<svg width="34" height="34" viewBox="0 0 34 34" fill="none" xmlns="http://www.w3.org/2000/svg">
<path d="M15.3334 11.9997H18.6667V8.66634H15.3334M17 30.333C9.65004 30.333 3.66671 24.3497 3.66671 16.9997C3.66671 9.64967 9.65004 3.66634 17 3.66634C24.35 3.66634 30.3334 9.64967 30.3334 16.9997C30.3334 24.3497 24.35 30.333 17 30.333ZM17 0.333008C14.8113 0.333008 12.6441 0.764104 10.622 1.60168C8.59989 2.43926 6.76257 3.66692 5.21493 5.21456C2.08932 8.34017 0.333374 12.5794 0.333374 16.9997C0.333374 21.4199 2.08932 25.6592 5.21493 28.7848C6.76257 30.3324 8.59989 31.5601 10.622 32.3977C12.6441 33.2352 14.8113 33.6663 17 33.6663C21.4203 33.6663 25.6595 31.9104 28.7852 28.7848C31.9108 25.6592 33.6667 21.4199 33.6667 16.9997C33.6667 14.811 33.2356 12.6437 32.398 10.6216C31.5605 8.59952 30.3328 6.7622 28.7852 5.21456C27.2375 3.66692 25.4002 2.43926 23.3781 1.60168C21.356 0.764104 19.1887 0.333008 17 0.333008ZM15.3334 25.333H18.6667V15.333H15.3334V25.333Z" fill="#333333"/>
</svg>
