<svg width="18" height="19" viewBox="0 0 18 19" fill="none" xmlns="http://www.w3.org/2000/svg">
<g clip-path="url(#clip0_1_387)">
<path d="M11.4761 2.93164C11.6666 2.93164 11.8493 3.00732 11.984 3.14204C12.1188 3.27675 12.1944 3.45946 12.1944 3.64997V5.08664H15.0678C15.2583 5.08664 15.441 5.16232 15.5757 5.29704C15.7104 5.43175 15.7861 5.61446 15.7861 5.80497V14.425H17.2228V15.8616H1.41943V14.425H2.8561V5.80497C2.8561 5.61446 2.93178 5.43175 3.06649 5.29704C3.20121 5.16232 3.38392 5.08664 3.57443 5.08664H6.44777V3.64997C6.44777 3.45946 6.52345 3.27675 6.65816 3.14204C6.79287 3.00732 6.97559 2.93164 7.1661 2.93164H11.4761ZM7.88443 6.52331H6.44777V14.425H7.88443V6.52331ZM12.1944 6.52331H10.7578V14.425H12.1944V6.52331ZM10.7578 4.36831H7.88443V5.08664H10.7578V4.36831Z" fill="#048CFC"/>
</g>
<defs>
<clipPath id="clip0_1_387">
<rect width="17.24" height="17.24" fill="white" transform="translate(0.701172 0.777344)"/>
</clipPath>
</defs>
</svg>
