<svg width="25" height="25" viewBox="0 0 25 25" fill="none" xmlns="http://www.w3.org/2000/svg">
<circle cx="12.6709" cy="12.3125" r="11" stroke="white" stroke-width="2"/>
<path d="M15.7007 18.1598H14.789C14.839 17.9946 14.8664 17.8158 14.8664 17.6242C14.8664 17.4326 14.839 17.2539 14.789 17.0886H16.0676H16.5351V17.6242C16.5351 17.7031 16.499 17.8235 16.3559 17.9433C16.2075 18.0675 15.9738 18.1598 15.7007 18.1598ZM10.7426 17.0886C10.6926 17.2539 10.6652 17.4326 10.6652 17.6242C10.6652 17.8158 10.6926 17.9946 10.7426 18.1598H9.83091C9.55783 18.1598 9.32411 18.0675 9.17575 17.9433C9.03264 17.8235 8.99658 17.7031 8.99658 17.6242V17.0886H9.46404H10.7426Z" fill="white" stroke="white" stroke-width="2"/>
</svg>
