<svg width="10" height="15" viewBox="0 0 10 15" fill="none" xmlns="http://www.w3.org/2000/svg">
<path d="M0.625 1.875C0.625 1.37772 0.809374 0.900806 1.13756 0.549175C1.46575 0.197544 1.91087 0 2.375 0L7.625 0C8.08913 0 8.53425 0.197544 8.86244 0.549175C9.19063 0.900806 9.375 1.37772 9.375 1.875V13.125C9.375 13.6223 9.19063 14.0992 8.86244 14.4508C8.53425 14.8025 8.08913 15 7.625 15H2.375C1.91087 15 1.46575 14.8025 1.13756 14.4508C0.809374 14.0992 0.625 13.6223 0.625 13.125V1.875ZM5.875 12.1875C5.875 11.9389 5.78281 11.7004 5.61872 11.5246C5.45462 11.3488 5.23206 11.25 5 11.25C4.76794 11.25 4.54538 11.3488 4.38128 11.5246C4.21719 11.7004 4.125 11.9389 4.125 12.1875C4.125 12.4361 4.21719 12.6746 4.38128 12.8504C4.54538 13.0262 4.76794 13.125 5 13.125C5.23206 13.125 5.45462 13.0262 5.61872 12.8504C5.78281 12.6746 5.875 12.4361 5.875 12.1875Z" fill="#FDF313"/>
</svg>
