<svg width="18" height="24" viewBox="0 0 18 24" fill="none" xmlns="http://www.w3.org/2000/svg">
<path d="M12.3928 17.9995L12.5661 21.5151L9.01011 19.0439L5.43416 21.5175L5.60764 17.9995H4.10582L3.84697 23.2495H5.56691L9.00815 20.8692L12.4334 23.2495H14.1535L13.8946 17.9995H12.3928ZM16.4725 7.26114L16.3697 5.00861L14.4705 3.79328L13.255 1.89395L11.0024 1.79083L9.00022 0.753906L6.99805 1.79106L4.74547 1.89419L3.52991 3.79328L1.63077 5.00861L1.52793 7.26114L0.490723 9.26336L1.52793 11.2656L1.63105 13.5181L3.52991 14.7334L4.74529 16.6328L6.99786 16.7357L9.00022 17.7729L11.0024 16.7357L13.255 16.6328L14.4703 14.7334L16.3696 13.5183L16.4725 11.2658L17.5097 9.26355L16.4725 7.26114ZM14.9891 10.8681L14.9065 12.6735L13.3842 13.6475L12.4101 15.1698L10.6048 15.2523L9.00022 16.0835L7.3955 15.2523L5.59011 15.1698L4.61605 13.6475L3.09397 12.6735L3.01152 10.8681L2.17991 9.26336L3.01133 7.65892L3.09397 5.8533L4.61605 4.87923L5.59011 3.35702L7.3955 3.27452L9.00022 2.44323L10.6049 3.27447L12.4103 3.35697L13.3844 4.87919L14.9065 5.8533L14.9889 7.65869L15.8205 9.26336L14.9891 10.8681Z" fill="white"/>
</svg>
