<svg width="36" height="36" viewBox="0 0 36 36" fill="none" xmlns="http://www.w3.org/2000/svg">
<g clip-path="url(#clip0_1_1803)">
<path d="M3.50034 13.5599L18.0003 5.22992L32.5003 13.5599C32.7289 13.6795 32.9948 13.7061 33.2425 13.6342C33.4902 13.5624 33.7006 13.3976 33.8296 13.1743C33.9587 12.951 33.9965 12.6864 33.9352 12.4359C33.8738 12.1854 33.718 11.9683 33.5003 11.8299L18.0003 2.91992L2.50034 11.8299C2.38084 11.8924 2.27521 11.9785 2.18982 12.0829C2.10443 12.1873 2.04104 12.3079 2.00347 12.4374C1.96589 12.5669 1.9549 12.7027 1.97116 12.8366C1.98743 12.9705 2.0306 13.0997 2.0981 13.2165C2.16559 13.3332 2.25601 13.4351 2.36391 13.516C2.47181 13.597 2.59496 13.6552 2.72596 13.6873C2.85695 13.7194 2.99309 13.7246 3.12617 13.7027C3.25925 13.6809 3.38652 13.6323 3.50034 13.5599Z" fill="#333333"/>
<path d="M4 26.0009C4 26.2661 4.10536 26.5204 4.29289 26.708C4.48043 26.8955 4.73478 27.0009 5 27.0009H31C31.2652 27.0009 31.5196 26.8955 31.7071 26.708C31.8946 26.5204 32 26.2661 32 26.0009C32 25.7356 31.8946 25.4813 31.7071 25.2938C31.5196 25.1062 31.2652 25.0009 31 25.0009H28V17.6309H26V25.0009H19V17.6309H17V25.0009H10V17.6309H8V25.0009H5C4.73478 25.0009 4.48043 25.1062 4.29289 25.2938C4.10536 25.4813 4 25.7356 4 26.0009Z" fill="#333333"/>
<path d="M5.01953 14H31.0195V16H5.01953V14Z" fill="#333333"/>
<path d="M33 29H3C2.73478 29 2.48043 29.1054 2.29289 29.2929C2.10536 29.4804 2 29.7348 2 30C2 30.2652 2.10536 30.5196 2.29289 30.7071C2.48043 30.8946 2.73478 31 3 31H33C33.2652 31 33.5196 30.8946 33.7071 30.7071C33.8946 30.5196 34 30.2652 34 30C34 29.7348 33.8946 29.4804 33.7071 29.2929C33.5196 29.1054 33.2652 29 33 29Z" fill="#333333"/>
<path d="M22.1499 11.5805H25.3599L18.6499 7.72046C18.5283 7.65025 18.3903 7.61328 18.2499 7.61328C18.1095 7.61328 17.9715 7.65025 17.8499 7.72046L11.1299 11.5805H14.3399L18.2399 9.34046L22.1499 11.5805Z" fill="#333333"/>
</g>
<defs>
<clipPath id="clip0_1_1803">
<rect width="36" height="36" fill="white"/>
</clipPath>
</defs>
</svg>
