<svg width="27" height="30" viewBox="0 0 27 30" fill="none" xmlns="http://www.w3.org/2000/svg">
<path d="M15.8439 5.79751C18.5855 6.36292 21.0191 7.89953 22.6801 10.114C24.341 12.3286 25.1131 15.0659 24.8489 17.8036C24.5847 20.5413 23.3027 23.0877 21.2477 24.9567C19.1926 26.8256 16.5084 27.8864 13.7073 27.9364C10.9063 27.9864 8.18452 27.0222 6.06158 25.2278C3.93864 23.4334 2.56317 20.9345 2.19771 18.2081C1.83225 15.4816 2.50239 12.7185 4.08021 10.4461C5.65804 8.1738 8.03307 6.55133 10.752 5.88842" stroke="#048CFC"/>
<path d="M17.265 25.4471C17.8757 25.6906 18.5328 25.7762 19.1778 25.7034C19.8631 24.9947 22.6973 22.8598 22.7411 21.8751C22.7849 20.8905 22.4664 19.9262 21.8465 19.1663C21.2265 18.4064 20.3484 17.9041 19.3799 17.7553C18.4114 17.6065 17.4202 17.8216 16.5955 18.3595C15.7708 18.8974 15.1704 19.7205 14.9089 20.6717C14.6473 21.6229 14.743 22.6355 15.1776 23.5164C15.6121 24.3972 16.3552 25.0845 17.265 25.4471Z" fill="#048CFC" fill-opacity="0.14"/>
<path d="M13.5371 0V13.9874" stroke="#048CFC"/>
</svg>
