<svg width="36" height="36" viewBox="0 0 36 36" fill="none" xmlns="http://www.w3.org/2000/svg">
<g clip-path="url(#clip0_1_9801)">
<path d="M3.49985 13.5599L17.9999 5.22992L32.4999 13.5599C32.7284 13.6795 32.9943 13.7061 33.242 13.6342C33.4897 13.5624 33.7001 13.3976 33.8291 13.1743C33.9582 12.951 33.996 12.6864 33.9347 12.4359C33.8733 12.1854 33.7175 11.9683 33.4999 11.8299L17.9999 2.91992L2.49985 11.8299C2.38035 11.8924 2.27472 11.9785 2.18934 12.0829C2.10395 12.1873 2.04056 12.3079 2.00298 12.4374C1.9654 12.5669 1.95441 12.7027 1.97068 12.8366C1.98694 12.9705 2.03012 13.0997 2.09761 13.2165C2.1651 13.3332 2.25552 13.4351 2.36342 13.516C2.47132 13.597 2.59447 13.6552 2.72547 13.6873C2.85646 13.7194 2.9926 13.7246 3.12568 13.7027C3.25876 13.6809 3.38604 13.6323 3.49985 13.5599Z" fill="#048CFC"/>
<path d="M4 25.9999C4 26.2651 4.10536 26.5195 4.29289 26.707C4.48043 26.8945 4.73478 26.9999 5 26.9999H31C31.2652 26.9999 31.5196 26.8945 31.7071 26.707C31.8946 26.5195 32 26.2651 32 25.9999C32 25.7347 31.8946 25.4803 31.7071 25.2928C31.5196 25.1052 31.2652 24.9999 31 24.9999H28V17.6299H26V24.9999H19V17.6299H17V24.9999H10V17.6299H8V24.9999H5C4.73478 24.9999 4.48043 25.1052 4.29289 25.2928C4.10536 25.4803 4 25.7347 4 25.9999Z" fill="#048CFC"/>
<path d="M5.02002 14H31.02V16H5.02002V14Z" fill="#048CFC"/>
<path d="M33 29H3C2.73478 29 2.48043 29.1054 2.29289 29.2929C2.10536 29.4804 2 29.7348 2 30C2 30.2652 2.10536 30.5196 2.29289 30.7071C2.48043 30.8946 2.73478 31 3 31H33C33.2652 31 33.5196 30.8946 33.7071 30.7071C33.8946 30.5196 34 30.2652 34 30C34 29.7348 33.8946 29.4804 33.7071 29.2929C33.5196 29.1054 33.2652 29 33 29Z" fill="#048CFC"/>
<path d="M22.1499 11.5805H25.3599L18.6499 7.72046C18.5283 7.65025 18.3903 7.61328 18.2499 7.61328C18.1095 7.61328 17.9715 7.65025 17.8499 7.72046L11.1299 11.5805H14.3399L18.2399 9.34046L22.1499 11.5805Z" fill="#048CFC"/>
</g>
<defs>
<clipPath id="clip0_1_9801">
<rect width="36" height="36" fill="white"/>
</clipPath>
</defs>
</svg>
