<svg width="25" height="25" viewBox="0 0 25 25" fill="none" xmlns="http://www.w3.org/2000/svg">
<path d="M24.1865 12.5195C24.1865 18.7327 19.1497 23.7695 12.9365 23.7695C6.72332 23.7695 1.68652 18.7327 1.68652 12.5195C1.68652 6.30633 6.72332 1.26953 12.9365 1.26953C19.1497 1.26953 24.1865 6.30633 24.1865 12.5195Z" fill="white" stroke="#333333" stroke-width="1.5"/>
<path d="M13.2313 5.18555C17.0968 5.18555 20.2302 8.31945 20.2302 12.1855C20.2302 16.0516 17.0968 19.1855 13.2313 19.1855C9.36583 19.1855 6.23242 16.0516 6.23242 12.1855C6.23242 8.31945 9.36583 5.18555 13.2313 5.18555ZM14.4001 14.9855H12.0625L11.0967 16.3134L11.4844 17.5076C12.0483 17.6924 12.638 17.7862 13.2313 17.7855C13.8409 17.7855 14.4281 17.6875 14.9782 17.5076L15.3653 16.3134L14.3994 14.9855H14.4001ZM8.53786 11.3959L7.6336 12.0518L7.6322 12.1855C7.6322 13.3965 8.01644 14.5172 8.66944 15.4335H10.0062L10.9322 14.1595L10.2127 11.9405L8.53786 11.3959ZM17.9248 11.3959L16.2499 11.9405L15.5305 14.1595L16.4557 15.4335H17.7925C18.4692 14.4859 18.8321 13.3501 18.8304 12.1855L18.8283 12.0525L17.9248 11.3959ZM13.2313 10.4607L11.5908 11.6521L12.2179 13.5855H14.2441L14.8712 11.6521L13.2313 10.4607ZM14.8348 6.81865L13.9312 7.47665V9.23855L15.8167 10.6084L17.3838 10.0995L17.7715 8.90745C17.049 7.90706 16.0167 7.17288 14.8348 6.81865ZM11.6272 6.81865C10.4453 7.1732 9.41338 7.90762 8.69113 8.90815L9.07887 10.0995L10.6459 10.6084L12.5314 9.23855V7.47665L11.6272 6.81865Z" fill="#333333"/>
</svg>
