<svg width="32" height="32" viewBox="0 0 32 32" fill="none" xmlns="http://www.w3.org/2000/svg">
<circle cx="16" cy="16" r="16" fill="#048CFC" fill-opacity="0.0156863"/>
<path d="M8.47656 8.87512H23.4766C23.6518 8.87504 23.8268 8.88615 24.0006 8.9084C23.9417 8.49486 23.7997 8.09752 23.583 7.74036C23.3664 7.3832 23.0797 7.07361 22.7402 6.83025C22.4007 6.58688 22.0154 6.4148 21.6076 6.32436C21.1998 6.23392 20.7779 6.227 20.3673 6.30402L8.03125 8.41012H8.01719C7.24285 8.55819 6.55425 8.9963 6.09203 9.63496C6.7884 9.13965 7.622 8.87401 8.47656 8.87512ZM23.4766 10.0001H8.47656C7.68118 10.001 6.91862 10.3173 6.3562 10.8798C5.79378 11.4422 5.47743 12.2047 5.47656 13.0001V22.0001C5.47743 22.7955 5.79378 23.5581 6.3562 24.1205C6.91862 24.6829 7.68118 24.9993 8.47656 25.0001H23.4766C24.2719 24.9993 25.0345 24.6829 25.5969 24.1205C26.1593 23.5581 26.4757 22.7955 26.4766 22.0001V13.0001C26.4757 12.2047 26.1593 11.4422 25.5969 10.8798C25.0345 10.3173 24.2719 10.001 23.4766 10.0001ZM21.25 19.0001C20.9533 19.0001 20.6633 18.9121 20.4166 18.7473C20.17 18.5825 19.9777 18.3482 19.8642 18.0741C19.7506 17.8001 19.7209 17.4985 19.7788 17.2075C19.8367 16.9165 19.9796 16.6492 20.1893 16.4395C20.3991 16.2297 20.6664 16.0868 20.9574 16.0289C21.2483 15.9711 21.5499 16.0008 21.824 16.1143C22.0981 16.2278 22.3324 16.4201 22.4972 16.6668C22.662 16.9134 22.75 17.2034 22.75 17.5001C22.75 17.8979 22.592 18.2795 22.3107 18.5608C22.0294 18.8421 21.6478 19.0001 21.25 19.0001Z" fill="#048CFC"/>
<path d="M5.5 16.1641V11.5C5.5 10.4842 6.0625 8.78125 8.01484 8.41234C9.67188 8.10156 11.3125 8.10156 11.3125 8.10156C11.3125 8.10156 12.3906 8.85156 11.5 8.85156C10.6094 8.85156 10.6328 10 11.5 10C12.3672 10 11.5 11.1016 11.5 11.1016L8.00781 15.0625L5.5 16.1641Z" fill="#048CFC"/>
</svg>
