<svg width="19" height="16" viewBox="0 0 19 16" fill="none" xmlns="http://www.w3.org/2000/svg">
<path d="M1.50708 5.75977H10.9304" stroke="#05478A" stroke-width="1.5" stroke-miterlimit="10" stroke-linecap="round" stroke-linejoin="round"/>
<path d="M4.52307 10.8789H6.0308" stroke="#05478A" stroke-width="1.5" stroke-miterlimit="10" stroke-linecap="round" stroke-linejoin="round"/>
<path d="M7.9165 10.8789H10.932" stroke="#05478A" stroke-width="1.5" stroke-miterlimit="10" stroke-linecap="round" stroke-linejoin="round"/>
<path d="M16.5844 9.29877V10.63C16.5844 12.8764 15.9134 13.4396 13.2372 13.4396H4.85424C2.17802 13.4396 1.50708 12.8764 1.50708 10.63V5.36917C1.50708 3.12277 2.17802 2.55957 4.85424 2.55957H10.9304" fill="#048CFC" fill-opacity="0.15"/>
<path d="M16.5844 9.29877V10.63C16.5844 12.8764 15.9134 13.4396 13.2372 13.4396H4.85424C2.17802 13.4396 1.50708 12.8764 1.50708 10.63V5.36917C1.50708 3.12277 2.17802 2.55957 4.85424 2.55957H10.9304" stroke="#05478A" stroke-width="1.5" stroke-linecap="round" stroke-linejoin="round"/>
<path d="M15.076 2.55941V6.39941L16.5838 5.11941" fill="#048CFC" fill-opacity="0.15"/>
<path d="M15.076 2.55941V6.39941L16.5838 5.11941" stroke="#05478A" stroke-width="1.5" stroke-linecap="round" stroke-linejoin="round"/>
<path d="M15.0768 6.39941L13.5691 5.11941" stroke="#05478A" stroke-width="1.5" stroke-linecap="round" stroke-linejoin="round"/>
</svg>
