<svg width="25" height="24" viewBox="0 0 25 24" fill="none" xmlns="http://www.w3.org/2000/svg">
<circle cx="12.0479" cy="12" r="12" fill="#048CFC"/>
<path d="M9.6476 15.361L6.8476 12.561C6.77439 12.4869 6.68718 12.428 6.59106 12.3879C6.49493 12.3477 6.39178 12.327 6.2876 12.327C6.18342 12.327 6.08028 12.3477 5.98415 12.3879C5.88802 12.428 5.80082 12.4869 5.7276 12.561C5.65349 12.6342 5.59465 12.7214 5.55449 12.8175C5.51433 12.9137 5.49365 13.0168 5.49365 13.121C5.49365 13.2252 5.51433 13.3283 5.55449 13.4244C5.59465 13.5206 5.65349 13.6078 5.7276 13.681L9.0796 17.033C9.3916 17.345 9.8956 17.345 10.2076 17.033L18.6876 8.56098C18.7617 8.48776 18.8206 8.40056 18.8607 8.30444C18.9009 8.20831 18.9216 8.10516 18.9216 8.00098C18.9216 7.8968 18.9009 7.79366 18.8607 7.69753C18.8206 7.6014 18.7617 7.5142 18.6876 7.44098C18.6144 7.36687 18.5272 7.30803 18.4311 7.26787C18.3349 7.22771 18.2318 7.20703 18.1276 7.20703C18.0234 7.20703 17.9203 7.22771 17.8242 7.26787C17.728 7.30803 17.6408 7.36687 17.5676 7.44098L9.6476 15.361Z" fill="white"/>
</svg>
