<svg width="27" height="27" viewBox="0 0 27 27" fill="none" xmlns="http://www.w3.org/2000/svg">
<g clip-path="url(#clip0_1_9900)">
<path d="M13.5 1.5C11.1266 1.5 8.80655 2.20379 6.83316 3.52236C4.85977 4.84094 3.3217 6.71509 2.41345 8.9078C1.5052 11.1005 1.26756 13.5133 1.73058 15.8411C2.1936 18.1689 3.33649 20.3071 5.01472 21.9853C6.69295 23.6635 8.83115 24.8064 11.1589 25.2694C13.4867 25.7324 15.8995 25.4948 18.0922 24.5866C20.2849 23.6783 22.1591 22.1402 23.4776 20.1668C24.7962 18.1935 25.5 15.8734 25.5 13.5C25.5 10.3174 24.2357 7.26516 21.9853 5.01472C19.7349 2.76428 16.6826 1.5 13.5 1.5ZM13.5 24C11.4233 24 9.39323 23.3842 7.66652 22.2304C5.9398 21.0767 4.59399 19.4368 3.79927 17.5182C3.00455 15.5996 2.79662 13.4884 3.20176 11.4516C3.6069 9.41475 4.60693 7.54383 6.07538 6.07538C7.54384 4.60693 9.41476 3.6069 11.4516 3.20175C13.4884 2.79661 15.5996 3.00454 17.5182 3.79926C19.4368 4.59399 21.0767 5.9398 22.2304 7.66651C23.3842 9.39323 24 11.4233 24 13.5C24 16.2848 22.8938 18.9555 20.9246 20.9246C18.9555 22.8938 16.2848 24 13.5 24Z" fill="#048CFC"/>
<path d="M14.1904 13.8V8.0625C14.1904 7.86359 14.1114 7.67282 13.9708 7.53217C13.8301 7.39152 13.6393 7.3125 13.4404 7.3125C13.2415 7.3125 13.0508 7.39152 12.9101 7.53217C12.7694 7.67282 12.6904 7.86359 12.6904 8.0625V14.6025L17.1154 17.6025C17.1969 17.6638 17.2901 17.7078 17.3892 17.7319C17.4883 17.756 17.5913 17.7596 17.6919 17.7425C17.7924 17.7254 17.8884 17.688 17.974 17.6326C18.0596 17.5771 18.133 17.5048 18.1897 17.42C18.2464 17.3352 18.2852 17.2398 18.3038 17.1395C18.3223 17.0392 18.3202 16.9362 18.2976 16.8367C18.2749 16.7373 18.2322 16.6435 18.1721 16.5611C18.112 16.4787 18.0357 16.4094 17.9479 16.3575L14.1904 13.8Z" fill="#048CFC"/>
<path d="M6.00027 13.4546C5.99342 12.1054 6.35285 10.7796 7.04025 9.61858C7.72765 8.45758 8.71725 7.5049 9.90353 6.8621C11.0898 6.21931 12.4283 5.91051 13.7763 5.96862C15.1243 6.02674 16.4312 6.44959 17.5578 7.1921L18.1953 6.1721C17.1252 5.47115 15.9132 5.0159 14.6462 4.83904C13.3793 4.66219 12.0889 4.76813 10.8678 5.14925C9.64668 5.53037 8.52512 6.1772 7.5837 7.04329C6.64228 7.90939 5.90436 8.97323 5.42295 10.1584C4.94154 11.3436 4.7286 12.6207 4.79942 13.8979C4.87024 15.1752 5.22306 16.4209 5.83253 17.5456C6.44201 18.6703 7.29301 19.646 8.32441 20.4027C9.35581 21.1594 10.542 21.6783 11.7978 21.9221L12.0003 20.7746C10.3113 20.4298 8.79257 19.5138 7.69978 18.1806C6.60699 16.8474 6.00682 15.1784 6.00027 13.4546Z" fill="#048CFC"/>
</g>
<defs>
<clipPath id="clip0_1_9900">
<rect width="27" height="27" fill="white"/>
</clipPath>
</defs>
</svg>
