<svg width="21" height="18" viewBox="0 0 21 18" fill="none" xmlns="http://www.w3.org/2000/svg">
<path d="M14.2353 9.675V12.825C14.2353 15.45 13.0618 16.5 10.128 16.5H6.60738C3.67356 16.5 2.50003 15.45 2.50003 12.825V9.675C2.50003 7.05 3.67356 6 6.60738 6H10.128C13.0618 6 14.2353 7.05 14.2353 9.675Z" stroke="#048CFC" stroke-linecap="round" stroke-linejoin="round"/>
<path d="M19.2647 5.175V8.325C19.2647 10.95 18.0912 12 15.1574 12H14.2353V9.675C14.2353 7.05 13.0618 6 10.1279 6H7.52942V5.175C7.52942 2.55 8.70295 1.5 11.6368 1.5H15.1574C18.0912 1.5 19.2647 2.55 19.2647 5.175Z" stroke="#048CFC" stroke-linecap="round" stroke-linejoin="round"/>
</svg>
