<svg width="25" height="25" viewBox="0 0 25 25" fill="none" xmlns="http://www.w3.org/2000/svg">
<circle cx="12.9365" cy="12.041" r="11.25" stroke="#333333" stroke-width="1.5"/>
<path d="M16.3508 16.5671H17.0683V17.3527C17.0683 17.5137 16.9929 17.7016 16.7996 17.8635C16.6023 18.0286 16.3104 18.1383 15.984 18.1383H14.6901C14.8219 17.9134 14.8996 17.6499 14.8996 17.3527C14.8996 17.0555 14.8219 16.792 14.6901 16.5671H16.3508ZM16.8725 6.46773H16.3508H9.74725H9.22553C9.2477 6.4447 9.27198 6.42203 9.29848 6.39985C9.49575 6.23471 9.78768 6.125 10.1141 6.125H15.984C16.3104 6.125 16.6023 6.23471 16.7996 6.39985C16.8261 6.42203 16.8504 6.4447 16.8725 6.46773ZM9.02979 17.3527V16.5671H9.74725H11.4079C11.2762 16.792 11.1984 17.0555 11.1984 17.3527C11.1984 17.6499 11.2762 17.9134 11.4079 18.1383H10.1141C9.78768 18.1383 9.49575 18.0286 9.29848 17.8635C9.10514 17.7016 9.02979 17.5137 9.02979 17.3527Z" stroke="#333333" stroke-width="1.5"/>
<g clip-path="url(#clip0_5_3533)">
<path d="M14.0802 10.93C14.1482 10.9301 14.2139 10.95 14.2647 10.9862C14.3156 11.0224 14.348 11.0722 14.356 11.1263L14.3579 11.1523V13.2903L14.8657 12.884C14.9156 12.8438 14.9828 12.8203 15.0536 12.8183C15.1245 12.8164 15.1935 12.8362 15.2467 12.8737C15.2999 12.9112 15.3331 12.9635 15.3397 13.02C15.3462 13.0764 15.3255 13.1327 15.2818 13.1774L15.2585 13.1983L14.2765 13.984C14.2287 14.0223 14.1651 14.0453 14.0976 14.0487C14.0301 14.0521 13.9633 14.0357 13.9099 14.0025L13.8838 13.984L12.9015 13.1983C12.8517 13.1583 12.8228 13.1046 12.8207 13.0482C12.8185 12.9917 12.8433 12.9368 12.89 12.8944C12.9366 12.8521 13.0017 12.8255 13.072 12.8202C13.1422 12.8148 13.2124 12.8311 13.2682 12.8656L13.2946 12.884L13.8024 13.29V11.1523C13.8024 11.0933 13.8316 11.0368 13.8837 10.9951C13.9358 10.9535 14.0065 10.93 14.0802 10.93ZM12.0543 10.0983L13.0363 10.884C13.0628 10.9045 13.084 10.9291 13.0985 10.9562C13.1131 10.9833 13.1207 11.0124 13.1211 11.042C13.1214 11.0715 13.1144 11.1007 13.1004 11.128C13.0864 11.1553 13.0658 11.1802 13.0397 11.201C13.0136 11.2219 12.9826 11.2384 12.9485 11.2496C12.9143 11.2607 12.8778 11.2664 12.8409 11.2661C12.804 11.2658 12.7675 11.2597 12.7337 11.2481C12.6998 11.2364 12.6691 11.2195 12.6435 11.1983L12.1357 10.792V12.9298C12.1357 12.9888 12.1065 13.0453 12.0544 13.087C12.0023 13.1286 11.9316 13.152 11.8579 13.152C11.7843 13.152 11.7136 13.1286 11.6615 13.087C11.6094 13.0453 11.5802 12.9888 11.5802 12.9298V10.7923L11.0718 11.1983C11.0194 11.2387 10.9493 11.2611 10.8764 11.2606C10.8036 11.2601 10.7339 11.2368 10.6824 11.1956C10.6309 11.1544 10.6017 11.0986 10.6011 11.0404C10.6005 10.9821 10.6285 10.926 10.679 10.884L11.6613 10.0983C11.7134 10.0566 11.784 10.0332 11.8577 10.0332C11.9313 10.0332 12.0022 10.0566 12.0543 10.0983Z" fill="#333333"/>
</g>
<defs>
<clipPath id="clip0_5_3533">
<rect width="6.66667" height="5.33333" fill="white" transform="translate(9.63574 9.375)"/>
</clipPath>
</defs>
</svg>
