<svg width="21" height="17" viewBox="0 0 21 17" fill="none" xmlns="http://www.w3.org/2000/svg">
<path d="M16.9494 0C17.1 2.59566e-06 17.2485 0.0339971 17.3841 0.0994482C17.5197 0.164899 17.6387 0.260117 17.7323 0.378L17.8063 0.486L20.8058 5.486C20.9041 5.64995 20.9532 5.83863 20.9476 6.02968C20.9419 6.22074 20.8816 6.40616 20.7738 6.564L20.6938 6.667L12.1652 16.2C12.0068 16.3616 11.8178 16.4899 11.6092 16.5775C11.4006 16.6651 11.1766 16.7101 10.9504 16.71C10.5504 16.71 10.1655 16.57 9.84056 16.293L9.70558 16.167L1.20693 6.667C1.07907 6.52432 0.994891 6.3479 0.964403 6.15874C0.933916 5.96958 0.958404 5.77564 1.03495 5.6L1.09495 5.485L4.10747 0.463L4.17146 0.373C4.21723 0.316061 4.26921 0.264408 4.32643 0.219L4.41542 0.155L4.50341 0.105L4.5534 0.0819998L4.61339 0.0570002L4.72237 0.0250001L4.83435 0.00500011L4.95133 0H16.9494ZM8.06484 3.943C7.83754 3.80686 7.56551 3.76652 7.30849 3.83083C7.05147 3.89514 6.83048 4.05885 6.69406 4.286L6.09415 5.286L6.03416 5.402C5.95764 5.57848 5.93363 5.77329 5.96502 5.96308C5.99641 6.15286 6.08186 6.32957 6.21114 6.472L8.21082 8.672L8.3008 8.76C8.48588 8.9184 8.72242 9.00377 8.96598 9.00009C9.20954 8.99641 9.44339 8.90392 9.6236 8.74L9.71058 8.65C9.86896 8.46489 9.95432 8.22832 9.95064 7.98472C9.94695 7.74112 9.85448 7.50724 9.69058 7.327L8.18982 5.677L8.40779 5.314L8.46278 5.211C8.56325 4.98758 8.57824 4.73505 8.50488 4.50132C8.43153 4.26759 8.27495 4.06892 8.06484 3.943Z" fill="#048CFC"/>
</svg>
