<svg width="180" height="52" viewBox="0 0 180 52" fill="none" xmlns="http://www.w3.org/2000/svg">
<path d="M2.64 40.2C2.29333 40.2 2.01333 40.16 1.8 40.08C1.58667 40.0267 1.48 39.92 1.48 39.76C1.48 39.44 1.92 39.2 2.8 39.04C3.81333 38.8533 4.56 38.5467 5.04 38.12C5.52 37.6933 5.76 37 5.76 36.04V18.04C5.76 17.08 5.56 16.4 5.16 16C4.78667 15.6 4.09333 15.3067 3.08 15.12C2.62667 15.04 2.29333 14.9333 2.08 14.8C1.86667 14.6667 1.76 14.5067 1.76 14.32C1.76 14.16 1.86667 14.0533 2.08 14C2.29333 13.92 2.57333 13.88 2.92 13.88C3.93333 13.88 4.78667 13.8933 5.48 13.92C6.2 13.9467 6.89333 13.9733 7.56 14C8.25333 14 9.06667 14 10 14C10.88 14 11.8 14 12.76 14C13.7467 13.9733 14.6533 13.96 15.48 13.96C16.3867 13.9333 17.1467 13.92 17.76 13.92C18.4 13.8933 18.7733 13.88 18.88 13.88C19.0133 13.88 19.16 13.9067 19.32 13.96C19.48 14.0133 19.5733 14.1067 19.6 14.24C19.7333 14.9867 19.8667 15.7333 20 16.48C20.1333 17.2 20.2 17.8267 20.2 18.36C20.2 18.6 20.1333 18.76 20 18.84C19.8933 18.92 19.7733 18.96 19.64 18.96C19.5067 18.96 19.4133 18.9333 19.36 18.88C19.3067 18.8 19.2533 18.6933 19.2 18.56C19.0667 18.1067 18.9333 17.68 18.8 17.28C18.6667 16.8533 18.5067 16.5467 18.32 16.36C17.9467 15.9333 17.5333 15.6533 17.08 15.52C16.6267 15.36 16.1467 15.28 15.64 15.28H10.4C10.1867 15.28 9.89333 15.4 9.52 15.64C9.14667 15.88 8.96 16.1867 8.96 16.56V25.04C8.96 25.28 9.02667 25.4933 9.16 25.68C9.32 25.84 9.49333 25.92 9.68 25.92H13.64C14.4133 25.92 14.9467 25.7867 15.24 25.52C15.5333 25.2267 15.7733 24.7067 15.96 23.96C16.12 23.3733 16.36 23.08 16.68 23.08C16.7867 23.08 16.8933 23.1333 17 23.24C17.1333 23.3467 17.2 23.5067 17.2 23.72C17.2 23.8267 17.1867 24.0667 17.16 24.44C17.16 24.8133 17.1467 25.2 17.12 25.6C17.0933 26 17.08 26.3067 17.08 26.52C17.08 26.7867 17.08 27.1467 17.08 27.6C17.1067 28.0267 17.12 28.44 17.12 28.84C17.1467 29.24 17.16 29.4933 17.16 29.6C17.16 29.7867 17.1333 29.9467 17.08 30.08C17.0533 30.2133 16.96 30.28 16.8 30.28C16.4 30.28 16.0933 29.8533 15.88 29C15.72 28.3867 15.5067 27.9333 15.24 27.64C14.9733 27.3467 14.5733 27.2 14.04 27.2H10.32C9.86667 27.2 9.52 27.2667 9.28 27.4C9.06667 27.5067 8.96 27.7867 8.96 28.24V35.92C8.96 36.9333 9.17333 37.64 9.6 38.04C10.0267 38.4133 10.6933 38.6 11.6 38.6H14.56C15.4133 38.6 16.12 38.56 16.68 38.48C17.2667 38.3733 17.7733 38.1867 18.2 37.92C18.6267 37.6267 19 37.24 19.32 36.76C19.6667 36.28 20.0533 35.64 20.48 34.84C20.56 34.68 20.6533 34.5467 20.76 34.44C20.8667 34.3333 20.9867 34.2933 21.12 34.32C21.2533 34.3467 21.36 34.4133 21.44 34.52C21.52 34.6 21.56 34.72 21.56 34.88C21.56 35.12 21.4933 35.5467 21.36 36.16C21.2267 36.7467 21.0533 37.36 20.84 38C20.6533 38.64 20.48 39.1467 20.32 39.52C20.24 39.7067 20.16 39.8667 20.08 40C20.0267 40.1333 19.92 40.2 19.76 40.2C18.48 40.2 17.2933 40.1867 16.2 40.16C15.1067 40.1333 14.0667 40.1067 13.08 40.08C12.0933 40.0533 11.12 40.0267 10.16 40C9.22667 39.9733 8.25333 39.96 7.24 39.96C6.65333 39.96 6.14667 39.9733 5.72 40C5.29333 40.0533 4.85333 40.0933 4.4 40.12C3.94667 40.1733 3.36 40.2 2.64 40.2ZM30.3781 51.6C28.1115 51.6 26.3115 51.16 24.9781 50.28C23.6715 49.4267 23.0181 48.2667 23.0181 46.8C23.0181 46.1067 23.1248 45.52 23.3381 45.04C23.5515 44.56 23.8848 44.1467 24.3381 43.8C24.7115 43.48 25.2048 43.0667 25.8181 42.56C26.4581 42.08 27.1115 41.5733 27.7781 41.04L29.4581 41.12C28.1781 41.9467 27.2848 42.7333 26.7781 43.48C26.2715 44.2267 26.0181 45.1333 26.0181 46.2C26.0181 47.2667 26.4848 48.16 27.4181 48.88C28.3781 49.6267 29.5515 50 30.9381 50C32.5115 50 33.7781 49.64 34.7381 48.92C35.4048 48.4133 35.9248 47.7467 36.2981 46.92C36.6715 46.12 36.8581 45.2667 36.8581 44.36C36.8581 43.7733 36.6448 43.28 36.2181 42.88C35.8181 42.5067 35.1781 42.2 34.2981 41.96C33.4181 41.72 32.2715 41.56 30.8581 41.48C28.3515 41.2933 26.6048 40.96 25.6181 40.48C24.6581 40 24.1781 39.2533 24.1781 38.24C24.1781 37.9733 24.2448 37.7333 24.3781 37.52C24.5381 37.28 24.7781 37.0267 25.0981 36.76C25.7115 36.28 26.1648 35.9333 26.4581 35.72C26.7515 35.48 26.9648 35.28 27.0981 35.12C27.2581 34.96 27.4048 34.76 27.5381 34.52L28.8981 35.2C28.3115 35.4133 27.8181 35.7067 27.4181 36.08C27.0181 36.4267 26.8181 36.7467 26.8181 37.04C26.8181 37.4133 27.0181 37.7467 27.4181 38.04C27.8181 38.3067 28.4048 38.52 29.1781 38.68C29.9515 38.84 30.8981 38.96 32.0181 39.04C34.4715 39.1733 36.2981 39.5733 37.4981 40.24C38.6981 40.9067 39.2981 41.8533 39.2981 43.08C39.2981 44.12 39.0315 45.1333 38.4981 46.12C37.9915 47.1333 37.3115 48.0533 36.4581 48.88C35.6048 49.7067 34.6448 50.36 33.5781 50.84C32.5381 51.3467 31.4715 51.6 30.3781 51.6ZM30.8581 34.36C31.8715 34.36 32.7115 33.8533 33.3781 32.84C34.0448 31.8 34.3781 30.52 34.3781 29C34.3781 28.2267 34.1915 27.5067 33.8181 26.84C33.4715 26.1467 33.0048 25.6 32.4181 25.2C31.8581 24.7733 31.2448 24.56 30.5781 24.56C29.9648 24.56 29.3781 24.7867 28.8181 25.24C28.2848 25.6667 27.8448 26.2267 27.4981 26.92C27.1781 27.6133 27.0181 28.3733 27.0181 29.2C27.0181 30.1333 27.1915 31 27.5381 31.8C27.8848 32.5733 28.3515 33.2 28.9381 33.68C29.5248 34.1333 30.1648 34.36 30.8581 34.36ZM30.6181 35.76C29.5248 35.76 28.4848 35.48 27.4981 34.92C26.5115 34.36 25.6981 33.6267 25.0581 32.72C24.4448 31.7867 24.1381 30.7733 24.1381 29.68C24.1381 28.4267 24.4581 27.3333 25.0981 26.4C25.7648 25.44 26.6315 24.6933 27.6981 24.16C28.7648 23.6267 29.8981 23.36 31.0981 23.36C31.8715 23.36 32.5381 23.4667 33.0981 23.68C33.6848 23.8667 34.2581 24.04 34.8181 24.2C35.4581 24.3867 35.9648 24.5067 36.3381 24.56C36.7115 24.5867 37.0981 24.6 37.4981 24.6C37.8181 24.6 38.2181 24.5867 38.6981 24.56C39.1781 24.5067 39.5115 24.48 39.6981 24.48C40.0448 24.48 40.2181 24.68 40.2181 25.08C40.2181 25.32 40.0848 25.5733 39.8181 25.84C39.6848 25.9733 39.5781 26.04 39.4981 26.04H38.4181C37.6981 26.04 37.2981 26.1467 37.2181 26.36C37.1915 26.4667 37.1515 26.6267 37.0981 26.84C37.0715 27.0267 37.0448 27.24 37.0181 27.48C36.9915 27.72 36.9781 27.96 36.9781 28.2C36.9781 29.56 36.6848 30.8133 36.0981 31.96C35.5115 33.1067 34.7381 34.0267 33.7781 34.72C32.8181 35.4133 31.7648 35.76 30.6181 35.76ZM49.3209 40.56C47.8276 40.56 46.4809 40.2133 45.2809 39.52C44.0809 38.8267 43.1209 37.88 42.4009 36.68C41.7076 35.4533 41.3609 34.0667 41.3609 32.52C41.3609 31.4 41.5743 30.3067 42.0009 29.24C42.4543 28.1733 43.0809 27.2 43.8809 26.32C44.6809 25.44 45.6143 24.7467 46.6809 24.24C47.7476 23.7067 48.8943 23.44 50.1209 23.44C51.6676 23.44 53.0543 23.8133 54.2809 24.56C55.5343 25.3067 56.5209 26.2933 57.2409 27.52C57.9876 28.72 58.3609 30.04 58.3609 31.48C58.3609 33.0267 58.0143 34.4933 57.3209 35.88C56.6543 37.2667 55.6543 38.4 54.3209 39.28C52.9876 40.1333 51.3209 40.56 49.3209 40.56ZM50.1609 39.36C51.0676 39.36 51.8809 39.1867 52.6009 38.84C53.3209 38.4933 53.8809 37.9333 54.2809 37.16C54.6009 36.5467 54.8143 35.8 54.9209 34.92C55.0276 34.04 55.0809 33.2133 55.0809 32.44C55.0809 31.16 54.8409 29.9333 54.3609 28.76C53.9076 27.56 53.2543 26.5867 52.4009 25.84C51.5743 25.0667 50.5876 24.68 49.4409 24.68C48.7209 24.68 48.0676 24.8 47.4809 25.04C46.9209 25.2533 46.4009 25.6667 45.9209 26.28C45.3876 26.9467 45.0409 27.76 44.8809 28.72C44.7209 29.68 44.6409 30.64 44.6409 31.6C44.6409 32.9067 44.8809 34.16 45.3609 35.36C45.8409 36.5333 46.4943 37.4933 47.3209 38.24C48.1476 38.9867 49.0943 39.36 50.1609 39.36ZM62.1256 40.2C61.779 40.2 61.499 40.16 61.2856 40.08C61.0723 40.0267 60.9656 39.92 60.9656 39.76C60.9656 39.44 61.4056 39.2 62.2856 39.04C63.299 38.8533 63.9923 38.5467 64.3656 38.12C64.7656 37.6933 64.9656 36.9867 64.9656 36V19.12C64.9656 17.92 64.8056 17 64.4856 16.36C64.1923 15.72 63.539 15.3067 62.5256 15.12C62.0723 15.04 61.739 14.9333 61.5256 14.8C61.3123 14.6667 61.2056 14.5067 61.2056 14.32C61.2056 14.16 61.3123 14.0533 61.5256 14C61.739 13.92 62.019 13.88 62.3656 13.88C63.3523 13.88 64.179 13.8933 64.8456 13.92C65.539 13.9467 66.219 13.9733 66.8856 14C67.5523 14 68.339 14 69.2456 14C70.019 14 70.8456 14 71.7256 14C72.6056 14 73.459 14 74.2856 14C75.139 14 75.8856 13.9333 76.5256 13.8C77.1923 13.6667 77.7656 13.6 78.2456 13.6C78.379 13.6 78.5256 13.6267 78.6856 13.68C78.8456 13.7333 78.939 13.8267 78.9656 13.96C79.019 14.2533 79.059 14.6933 79.0856 15.28C79.1123 15.84 79.1256 16.3867 79.1256 16.92C79.1523 17.4533 79.1656 17.8133 79.1656 18C79.1656 18.56 79.0456 18.84 78.8056 18.84C78.6723 18.84 78.5523 18.8 78.4456 18.72C78.339 18.6133 78.259 18.4933 78.2056 18.36C78.099 17.9067 77.9656 17.52 77.8056 17.2C77.6456 16.8533 77.4723 16.5867 77.2856 16.4C76.9123 15.9733 76.499 15.6933 76.0456 15.56C75.5923 15.4 75.1123 15.32 74.6056 15.32H69.5256C68.9123 15.32 68.539 15.52 68.4056 15.92C68.2723 16.32 68.1923 16.7867 68.1656 17.32C68.139 17.8267 68.1256 18.4533 68.1256 19.2C68.1256 19.92 68.1256 20.6267 68.1256 21.32C68.1256 21.9867 68.1256 22.6667 68.1256 23.36C68.1256 24.0533 68.139 24.64 68.1656 25.12C68.1656 25.3333 68.179 25.5333 68.2056 25.72C68.259 25.9067 68.379 26 68.5656 26C69.419 26 70.2856 25.9867 71.1656 25.96C72.0456 25.9067 72.7256 25.88 73.2056 25.88C73.7923 25.88 74.299 25.72 74.7256 25.4C75.1523 25.08 75.459 24.6933 75.6456 24.24C75.699 24.1333 75.8056 24 75.9656 23.84C76.1256 23.6533 76.259 23.56 76.3656 23.56C76.4723 23.56 76.5923 23.6267 76.7256 23.76C76.859 23.8667 76.9123 24.0133 76.8856 24.2C76.859 24.6533 76.8323 25.0533 76.8056 25.4C76.779 25.7467 76.7656 26.08 76.7656 26.4C76.7656 26.8 76.779 27.2133 76.8056 27.64C76.8323 28.04 76.859 28.5333 76.8856 29.12C76.8856 29.3067 76.859 29.4667 76.8056 29.6C76.779 29.7333 76.6856 29.8 76.5256 29.8C76.259 29.8 76.0456 29.68 75.8856 29.44C75.7523 29.2 75.659 29.0133 75.6056 28.88C75.419 28.2667 75.139 27.8533 74.7656 27.64C74.3923 27.4 74.0456 27.28 73.7256 27.28C73.379 27.28 73.0323 27.28 72.6856 27.28C72.3656 27.2533 72.0456 27.24 71.7256 27.24C71.2723 27.24 70.8323 27.24 70.4056 27.24C69.979 27.24 69.5523 27.2667 69.1256 27.32C68.859 27.3467 68.6323 27.44 68.4456 27.6C68.259 27.7333 68.1656 27.9733 68.1656 28.32C68.1656 29.5467 68.1656 30.8 68.1656 32.08C68.1923 33.3333 68.2323 34.6267 68.2856 35.96C68.339 36.8133 68.539 37.4933 68.8856 38C69.259 38.5067 69.939 38.8533 70.9256 39.04C71.379 39.12 71.7123 39.2133 71.9256 39.32C72.139 39.4267 72.2456 39.5733 72.2456 39.76C72.2456 39.92 72.139 40.0267 71.9256 40.08C71.7123 40.16 71.4323 40.2 71.0856 40.2C70.3656 40.2 69.8056 40.1733 69.4056 40.12C69.0323 40.0667 68.6856 40.0267 68.3656 40C68.0723 39.9467 67.6723 39.92 67.1656 39.92C66.5256 39.92 65.9523 39.9467 65.4456 40C64.9656 40.0267 64.4723 40.0667 63.9656 40.12C63.459 40.1733 62.8456 40.2 62.1256 40.2ZM81.9944 40.12C81.7544 40.12 81.5544 40.08 81.3944 40C81.261 39.9467 81.1944 39.84 81.1944 39.68C81.1944 39.4667 81.2877 39.32 81.4744 39.24C81.6877 39.16 81.901 39.0933 82.1144 39.04C82.6744 38.9067 83.101 38.7467 83.3944 38.56C83.6877 38.3467 83.8344 38 83.8344 37.52V28.84C83.8344 28.12 83.701 27.48 83.4344 26.92C83.1944 26.36 82.7277 26.0267 82.0344 25.92C81.901 25.8933 81.7944 25.84 81.7144 25.76C81.661 25.68 81.6344 25.56 81.6344 25.4C81.6344 25.1067 81.7544 24.9467 81.9944 24.92C83.061 24.68 83.941 24.36 84.6344 23.96C85.3277 23.5333 85.8477 23.1867 86.1944 22.92C86.4344 22.7333 86.621 22.64 86.7544 22.64C86.9144 22.64 86.9944 22.7067 86.9944 22.84C86.9944 23.0533 86.9544 23.48 86.8744 24.12C86.821 24.7333 86.7677 25.4267 86.7144 26.2C86.661 26.9467 86.6344 27.6267 86.6344 28.24V37.52C86.6344 37.9733 86.781 38.3067 87.0744 38.52C87.3944 38.7333 87.821 38.9067 88.3544 39.04C88.5677 39.0933 88.7677 39.16 88.9544 39.24C89.1677 39.32 89.2744 39.4667 89.2744 39.68C89.2744 39.9733 89.0077 40.12 88.4744 40.12C87.9677 40.12 87.5544 40.0933 87.2344 40.04C86.941 40.0133 86.6477 39.9867 86.3544 39.96C86.0877 39.9333 85.7144 39.92 85.2344 39.92C84.781 39.92 84.4077 39.9333 84.1144 39.96C83.821 39.9867 83.5277 40.0133 83.2344 40.04C82.941 40.0933 82.5277 40.12 81.9944 40.12ZM85.1944 19.36C84.6344 19.36 84.1544 19.1733 83.7544 18.8C83.381 18.4 83.1944 17.92 83.1944 17.36C83.1944 16.7733 83.381 16.2933 83.7544 15.92C84.1544 15.52 84.6344 15.32 85.1944 15.32C85.781 15.32 86.261 15.52 86.6344 15.92C87.0344 16.2933 87.2344 16.7733 87.2344 17.36C87.2344 17.92 87.0344 18.4 86.6344 18.8C86.261 19.1733 85.781 19.36 85.1944 19.36ZM91.7991 40.12C91.5591 40.12 91.3591 40.08 91.1991 40C91.0657 39.9467 90.9991 39.84 90.9991 39.68C90.9991 39.4667 91.0791 39.3333 91.2391 39.28C91.3991 39.2 91.6257 39.12 91.9191 39.04C92.3191 38.9333 92.7057 38.7867 93.0791 38.6C93.4524 38.4133 93.6391 38.0533 93.6391 37.52V28.92C93.6391 28.2 93.5591 27.5867 93.3991 27.08C93.2657 26.5733 92.8524 26.2267 92.1591 26.04C92.0524 25.9867 91.9591 25.9333 91.8791 25.88C91.7991 25.8 91.7591 25.68 91.7591 25.52C91.7591 25.2267 91.8791 25.0667 92.1191 25.04C93.0524 24.8 93.8124 24.5067 94.3991 24.16C94.9857 23.8133 95.5591 23.4267 96.1191 23C96.1991 22.9467 96.2657 22.9067 96.3191 22.88C96.3991 22.8267 96.4791 22.8 96.5591 22.8C96.6124 22.8 96.6524 22.8267 96.6791 22.88C96.7324 22.9333 96.7591 23 96.7591 23.08C96.7591 23.2667 96.7191 23.6533 96.6391 24.24C96.5857 24.8 96.5591 25.2667 96.5591 25.64C96.5591 25.7467 96.5591 25.8533 96.5591 25.96C96.5857 26.04 96.6124 26.0933 96.6391 26.12C97.5724 25.24 98.5591 24.5733 99.5991 24.12C100.666 23.6667 101.826 23.44 103.079 23.44C104.386 23.44 105.466 23.9733 106.319 25.04C107.172 26.1067 107.599 27.4267 107.599 29V37.52C107.599 38.0533 107.786 38.4133 108.159 38.6C108.532 38.76 108.919 38.9067 109.319 39.04C109.532 39.12 109.732 39.2133 109.919 39.32C110.132 39.4 110.239 39.5467 110.239 39.76C110.239 39.92 110.146 40.0133 109.959 40.04C109.772 40.0933 109.599 40.12 109.439 40.12C108.906 40.12 108.492 40.0933 108.199 40.04C107.906 40.0133 107.626 39.9867 107.359 39.96C107.092 39.9333 106.719 39.92 106.239 39.92C105.786 39.92 105.412 39.9333 105.119 39.96C104.826 39.9867 104.519 40.0133 104.199 40.04C103.906 40.0933 103.492 40.12 102.959 40.12C102.826 40.12 102.652 40.0933 102.439 40.04C102.252 40.0133 102.159 39.92 102.159 39.76C102.159 39.5467 102.252 39.4 102.439 39.32C102.652 39.2133 102.866 39.12 103.079 39.04C103.479 38.9067 103.866 38.76 104.239 38.6C104.612 38.4133 104.799 38.0533 104.799 37.52V29.12C104.799 27.9467 104.466 27.04 103.799 26.4C103.159 25.7333 102.292 25.3867 101.199 25.36C100.239 25.36 99.3991 25.52 98.6791 25.84C97.9591 26.1333 97.3191 26.5067 96.7591 26.96C96.6524 27.0667 96.5724 27.2133 96.5191 27.4C96.4657 27.56 96.4391 27.72 96.4391 27.88V37.52C96.4391 38.0533 96.6257 38.4133 96.9991 38.6C97.3724 38.7867 97.7591 38.9333 98.1591 39.04C98.7724 39.2 99.0791 39.4133 99.0791 39.68C99.0791 39.84 99.0124 39.9467 98.8791 40C98.7457 40.08 98.5457 40.12 98.2791 40.12C97.7457 40.12 97.3191 40.0933 96.9991 40.04C96.7057 40.0133 96.4257 39.9867 96.1591 39.96C95.8924 39.9333 95.5191 39.92 95.0391 39.92C94.5857 39.92 94.2124 39.9333 93.9191 39.96C93.6524 39.9867 93.3591 40.0133 93.0391 40.04C92.7457 40.0933 92.3324 40.12 91.7991 40.12ZM115.852 40.56C115.372 40.56 114.879 40.3733 114.372 40C113.892 39.6267 113.479 39.1733 113.132 38.64C112.812 38.1067 112.652 37.6 112.652 37.12C112.652 36.2667 112.879 35.6 113.332 35.12C113.785 34.64 114.505 34.2 115.492 33.8L119.572 32.12C120.105 31.9067 120.412 31.72 120.492 31.56C120.599 31.4 120.665 31.0533 120.692 30.52L120.772 27.96C120.799 27.2667 120.599 26.6667 120.172 26.16C119.772 25.6533 119.185 25.4 118.412 25.4C118.012 25.4 117.612 25.4667 117.212 25.6C116.812 25.7333 116.479 25.9067 116.212 26.12C116.052 26.2267 115.945 26.3867 115.892 26.6C115.839 26.8133 115.812 27.04 115.812 27.28C115.812 27.3867 115.812 27.5067 115.812 27.64C115.839 27.7733 115.852 27.8933 115.852 28C115.852 28.1333 115.679 28.32 115.332 28.56C115.012 28.7733 114.639 28.9733 114.212 29.16C113.812 29.32 113.479 29.4 113.212 29.4C113.079 29.4 112.972 29.3733 112.892 29.32C112.812 29.24 112.772 29.1467 112.772 29.04C112.772 28.6133 112.905 28.16 113.172 27.68C113.465 27.1733 113.865 26.7067 114.372 26.28C114.985 25.72 115.652 25.2267 116.372 24.8C117.092 24.3733 117.799 24.04 118.492 23.8C119.185 23.56 119.799 23.44 120.332 23.44C121.292 23.44 122.079 23.7867 122.692 24.48C123.332 25.1467 123.639 25.9867 123.612 27L123.412 36.6C123.385 37.16 123.505 37.6133 123.772 37.96C124.065 38.3067 124.425 38.48 124.852 38.48C125.519 38.48 126.012 38.3333 126.332 38.04C126.465 37.9067 126.572 37.84 126.652 37.84C126.785 37.84 126.892 37.88 126.972 37.96C127.052 38.04 127.092 38.1467 127.092 38.28C127.092 38.5733 126.945 38.8667 126.652 39.16C126.225 39.5867 125.759 39.92 125.252 40.16C124.772 40.4267 124.319 40.56 123.892 40.56C122.665 40.56 121.692 39.8667 120.972 38.48H120.852C119.972 39.2 119.132 39.72 118.332 40.04C117.532 40.3867 116.705 40.56 115.852 40.56ZM117.732 38.64C118.265 38.64 118.719 38.56 119.092 38.4C119.465 38.2133 119.799 37.9733 120.092 37.68C120.225 37.5467 120.332 37.3733 120.412 37.16C120.519 36.92 120.585 36.5467 120.612 36.04L120.692 34.08C120.719 33.7867 120.705 33.5733 120.652 33.44C120.599 33.3067 120.492 33.24 120.332 33.24C120.279 33.24 120.185 33.2533 120.052 33.28C119.919 33.3067 119.745 33.36 119.532 33.44C118.119 33.9467 117.132 34.48 116.572 35.04C116.039 35.5733 115.772 36.0667 115.772 36.52C115.772 37.2133 115.972 37.7467 116.372 38.12C116.799 38.4667 117.252 38.64 117.732 38.64ZM128.908 40.12C128.668 40.12 128.468 40.08 128.308 40C128.175 39.9467 128.108 39.84 128.108 39.68C128.108 39.4667 128.188 39.3333 128.348 39.28C128.508 39.2 128.735 39.12 129.028 39.04C129.428 38.9333 129.815 38.7867 130.188 38.6C130.562 38.4133 130.748 38.0533 130.748 37.52V28.92C130.748 28.2 130.668 27.5867 130.508 27.08C130.375 26.5733 129.962 26.2267 129.268 26.04C129.162 25.9867 129.068 25.9333 128.988 25.88C128.908 25.8 128.868 25.68 128.868 25.52C128.868 25.2267 128.988 25.0667 129.228 25.04C130.162 24.8 130.922 24.5067 131.508 24.16C132.095 23.8133 132.668 23.4267 133.228 23C133.308 22.9467 133.375 22.9067 133.428 22.88C133.508 22.8267 133.588 22.8 133.668 22.8C133.722 22.8 133.762 22.8267 133.788 22.88C133.842 22.9333 133.868 23 133.868 23.08C133.868 23.2667 133.828 23.6533 133.748 24.24C133.695 24.8 133.668 25.2667 133.668 25.64C133.668 25.7467 133.668 25.8533 133.668 25.96C133.695 26.04 133.722 26.0933 133.748 26.12C134.682 25.24 135.668 24.5733 136.708 24.12C137.775 23.6667 138.935 23.44 140.188 23.44C141.495 23.44 142.575 23.9733 143.428 25.04C144.282 26.1067 144.708 27.4267 144.708 29V37.52C144.708 38.0533 144.895 38.4133 145.268 38.6C145.642 38.76 146.028 38.9067 146.428 39.04C146.642 39.12 146.842 39.2133 147.028 39.32C147.242 39.4 147.348 39.5467 147.348 39.76C147.348 39.92 147.255 40.0133 147.068 40.04C146.882 40.0933 146.708 40.12 146.548 40.12C146.015 40.12 145.602 40.0933 145.308 40.04C145.015 40.0133 144.735 39.9867 144.468 39.96C144.202 39.9333 143.828 39.92 143.348 39.92C142.895 39.92 142.522 39.9333 142.228 39.96C141.935 39.9867 141.628 40.0133 141.308 40.04C141.015 40.0933 140.602 40.12 140.068 40.12C139.935 40.12 139.762 40.0933 139.548 40.04C139.362 40.0133 139.268 39.92 139.268 39.76C139.268 39.5467 139.362 39.4 139.548 39.32C139.762 39.2133 139.975 39.12 140.188 39.04C140.588 38.9067 140.975 38.76 141.348 38.6C141.722 38.4133 141.908 38.0533 141.908 37.52V29.12C141.908 27.9467 141.575 27.04 140.908 26.4C140.268 25.7333 139.402 25.3867 138.308 25.36C137.348 25.36 136.508 25.52 135.788 25.84C135.068 26.1333 134.428 26.5067 133.868 26.96C133.762 27.0667 133.682 27.2133 133.628 27.4C133.575 27.56 133.548 27.72 133.548 27.88V37.52C133.548 38.0533 133.735 38.4133 134.108 38.6C134.482 38.7867 134.868 38.9333 135.268 39.04C135.882 39.2 136.188 39.4133 136.188 39.68C136.188 39.84 136.122 39.9467 135.988 40C135.855 40.08 135.655 40.12 135.388 40.12C134.855 40.12 134.428 40.0933 134.108 40.04C133.815 40.0133 133.535 39.9867 133.268 39.96C133.002 39.9333 132.628 39.92 132.148 39.92C131.695 39.92 131.322 39.9333 131.028 39.96C130.762 39.9867 130.468 40.0133 130.148 40.04C129.855 40.0933 129.442 40.12 128.908 40.12ZM156.801 40.6C155.468 40.6 154.255 40.2667 153.161 39.6C152.095 38.9067 151.241 37.9733 150.601 36.8C149.988 35.6 149.681 34.2667 149.681 32.8C149.681 31.0667 150.055 29.4933 150.801 28.08C151.575 26.6667 152.601 25.5467 153.881 24.72C155.161 23.8667 156.575 23.44 158.121 23.44C159.855 23.44 161.375 23.9067 162.681 24.84C163.001 25.08 163.161 25.3333 163.161 25.6C163.161 25.8133 163.068 26.0533 162.881 26.32C162.695 26.5867 162.468 26.8133 162.201 27C161.935 27.16 161.681 27.24 161.441 27.24C161.308 27.24 161.175 27.2 161.041 27.12C160.908 27.0133 160.761 26.9067 160.601 26.8C160.015 26.3467 159.361 25.92 158.641 25.52C157.921 25.12 157.321 24.92 156.841 24.92C155.535 24.92 154.468 25.5333 153.641 26.76C152.841 27.96 152.441 29.5467 152.441 31.52C152.441 32.7733 152.708 33.9067 153.241 34.92C153.801 35.9333 154.535 36.7333 155.441 37.32C156.375 37.9067 157.401 38.2 158.521 38.2C159.295 38.2 159.961 38.08 160.521 37.84C161.081 37.5733 161.681 37.12 162.321 36.48C162.375 36.4267 162.441 36.3867 162.521 36.36C162.601 36.3067 162.668 36.28 162.721 36.28C163.015 36.28 163.161 36.4667 163.161 36.84C163.161 37 163.108 37.1867 163.001 37.4C162.921 37.5867 162.775 37.8133 162.561 38.08C162.135 38.6133 161.628 39.08 161.041 39.48C160.455 39.8533 159.801 40.1333 159.081 40.32C158.388 40.5067 157.628 40.6 156.801 40.6ZM172.309 40.6C170.842 40.6 169.562 40.24 168.469 39.52C167.376 38.8 166.522 37.7867 165.909 36.48C165.296 35.1467 164.989 33.6133 164.989 31.88C164.989 30.3333 165.336 28.9333 166.029 27.68C166.749 26.4 167.696 25.3733 168.869 24.6C170.042 23.8267 171.322 23.44 172.709 23.44C173.776 23.44 174.722 23.6533 175.549 24.08C176.376 24.5067 177.016 25.1067 177.469 25.88C177.949 26.6267 178.189 27.4933 178.189 28.48C178.189 29.3067 177.789 29.72 176.989 29.72H168.549C168.176 29.72 167.909 29.8267 167.749 30.04C167.616 30.2267 167.549 30.6133 167.549 31.2C167.549 32.48 167.829 33.6533 168.389 34.72C168.949 35.76 169.696 36.6 170.629 37.24C171.562 37.8533 172.589 38.16 173.709 38.16C174.509 38.16 175.229 38.0133 175.869 37.72C176.536 37.4 177.122 36.9467 177.629 36.36C177.736 36.2267 177.816 36.1467 177.869 36.12C177.922 36.0667 177.989 36.04 178.069 36.04C178.282 36.04 178.389 36.1733 178.389 36.44C178.389 36.9467 178.149 37.5067 177.669 38.12C177.269 38.6267 176.789 39.0667 176.229 39.44C175.669 39.8133 175.056 40.0933 174.389 40.28C173.722 40.4933 173.029 40.6 172.309 40.6ZM168.629 28.48H172.269C172.909 28.48 173.456 28.4667 173.909 28.44C174.362 28.4133 174.802 28.36 175.229 28.28C175.362 28.2533 175.442 28.1733 175.469 28.04C175.522 27.88 175.549 27.6667 175.549 27.4C175.549 26.6267 175.202 25.9733 174.509 25.44C173.842 24.88 173.042 24.6 172.109 24.6C171.496 24.6 170.882 24.7867 170.269 25.16C169.656 25.5067 169.149 25.9467 168.749 26.48C168.349 27.0133 168.149 27.5467 168.149 28.08C168.149 28.3467 168.309 28.48 168.629 28.48Z" fill="#048CFC" fill-opacity="0.4"/>
</svg>
