<svg width="25" height="25" viewBox="0 0 25 25" fill="none" xmlns="http://www.w3.org/2000/svg">
<circle cx="12.5503" cy="12.7773" r="11.25" fill="white" stroke="#333333" stroke-width="1.5"/>
<path d="M13.043 8.04883L10.0435 11.1988H12.0432V13.2988L15.0427 10.1488H13.043V8.04883Z" fill="#333333"/>
<path fill-rule="evenodd" clip-rule="evenodd" d="M19.4972 10.5936C19.3454 11.495 18.8279 12.347 18.0059 13.0488C17.525 13.4601 16.3026 14.635 16.0427 15.398H9.04374C8.78378 14.6343 7.55996 13.4594 7.07903 13.0478C6.25739 12.3457 5.74039 11.4934 5.58926 10.5918C5.44026 9.69226 5.6645 8.78167 6.23516 7.96895C6.81118 7.15003 7.70658 6.462 8.81777 5.98445C9.93861 5.50223 11.2286 5.2473 12.5442 5.24805C13.863 5.24805 15.1548 5.50355 16.2706 5.9855C17.3816 6.46323 18.2766 7.15138 18.8523 7.97035C19.4227 8.78324 19.6466 9.69397 19.4972 10.5936ZM15.3343 14.698H9.75163C9.53866 14.354 9.2542 14.0092 8.98924 13.7163C8.64059 13.3313 8.26139 12.9603 7.85342 12.605C7.15263 12.0064 6.71161 11.2797 6.58261 10.511C6.45561 9.74491 6.64653 8.96942 7.13253 8.2773C7.6255 7.57699 8.3916 6.98871 9.34219 6.5805C10.3053 6.16626 11.4138 5.94732 12.5442 5.94805C13.679 5.94805 14.7889 6.1682 15.7462 6.58155C16.6965 6.98984 17.4622 7.57812 17.9549 8.27835C18.4406 8.97064 18.6312 9.74626 18.5038 10.5124C18.3743 11.2809 17.933 12.0074 17.232 12.6057C16.8238 12.9608 16.4448 13.3318 16.0967 13.717C15.8317 14.0099 15.5473 14.354 15.3343 14.698Z" fill="#333333"/>
<path d="M9.04346 16.4473C9.04346 16.3545 9.09613 16.2656 9.18988 16.2001C9.28364 16.1345 9.41079 16.0977 9.54338 16.0977H15.5425C15.6751 16.0977 15.8022 16.1345 15.896 16.2001C15.9897 16.2656 16.0424 16.3545 16.0424 16.4473C16.0424 16.54 15.9897 16.6289 15.896 16.6945C15.8022 16.76 15.6751 16.7969 15.5425 16.7969H9.54338C9.41079 16.7969 9.28364 16.76 9.18988 16.6945C9.09613 16.6289 9.04346 16.54 9.04346 16.4473Z" fill="#333333"/>
<path fill-rule="evenodd" clip-rule="evenodd" d="M9.04346 17.498H16.0424V18.548C16.0424 18.7337 15.9371 18.9117 15.7495 19.043C15.562 19.1743 15.3077 19.248 15.0425 19.248H10.0433C9.77813 19.248 9.52381 19.1743 9.33631 19.043C9.1488 18.9117 9.04346 18.7337 9.04346 18.548V17.498ZM10.0433 18.198H15.0425V18.548H10.0433V18.198Z" fill="#333333"/>
</svg>
