<svg width="250" height="250" viewBox="0 0 250 250" fill="none" xmlns="http://www.w3.org/2000/svg">
<path d="M206.2 165.69H219.44V160.095H206.2V165.69Z" fill="#EBEBEB"/>
<path d="M213.59 172.745L220.265 172.605L223.555 172.55C224.65 172.525 225.74 172.55 226.83 172.52L226.605 172.745V167.15L226.855 167.4L220.235 167.37C218.03 167.37 215.82 167.31 213.615 167.285L213.75 167.15C213.75 168.065 213.71 168.985 213.685 169.915L213.59 172.745ZM213.59 172.745L213.5 170C213.475 169.07 213.44 168.125 213.435 167.175V167H213.575C215.78 166.97 217.99 166.92 220.195 166.915L226.815 166.885H227.065V167.135L227.035 172.73V172.955H226.815C225.7 172.955 224.58 172.955 223.465 172.93L220.135 172.875L213.59 172.745Z" fill="#EBEBEB"/>
<path d="M116.07 117.79L122.75 117.65L126.035 117.595C127.13 117.57 128.22 117.595 129.31 117.57L129.085 117.79L129.06 112.195L129.31 112.445L122.69 112.415C120.485 112.415 118.275 112.36 116.07 112.33L116.205 112.195C116.205 113.11 116.165 114.03 116.14 114.965L116.07 117.79ZM116.07 117.79L116 115C115.975 114.07 115.945 113.125 115.935 112.175V112.04H116.075C118.28 112.015 120.49 111.96 122.695 111.955L129.315 111.925H129.565V112.175L129.54 117.77V118H129.32C128.205 118 127.085 118 125.975 117.97L122.64 117.915L116.07 117.79Z" fill="#EBEBEB"/>
<path d="M123.455 124.845H136.695V119.25H123.455V124.845Z" fill="#EBEBEB"/>
<path d="M108.57 124.845L115.25 124.705L118.54 124.65C119.635 124.625 120.72 124.65 121.81 124.625L121.59 124.845L121.56 119.25L121.81 119.5L115.19 119.47C112.985 119.47 110.78 119.415 108.57 119.385L108.71 119.25C108.71 120.165 108.665 121.085 108.645 122.02L108.57 124.845ZM108.57 124.845L108.5 122.075C108.5 121.145 108.445 120.2 108.435 119.25V119.115H108.57C110.78 119.115 112.985 119.035 115.19 119.03L121.81 119H122.065V119.25L122.04 124.845V125.07H121.815C120.7 125.07 119.58 125.07 118.47 125.04L115.14 124.985L108.57 124.845Z" fill="#EBEBEB"/>
<path d="M136.455 53.98H149.695V48.385H136.455V53.98Z" fill="#EBEBEB"/>
<path d="M23.1699 172.745L29.8499 172.605L33.1399 172.55C34.2299 172.525 35.3199 172.55 36.4099 172.52L36.1899 172.745L36.1599 167.15L36.4099 167.4L29.7899 167.37C27.5849 167.37 25.3749 167.31 23.1699 167.285L23.3049 167.15C23.3049 168.065 23.2649 168.985 23.2399 169.915L23.1699 172.745ZM23.1699 172.745L23.0999 170C23.0749 169.07 23.0449 168.125 23.0349 167.175V167H23.1699C25.3749 166.97 27.5849 166.92 29.7899 166.915L36.4099 166.885H36.6599V167.135V172.73V172.955H36.4349C35.3199 172.955 34.1999 172.955 33.0899 172.93L29.7599 172.875L23.1699 172.745Z" fill="#EBEBEB"/>
<path d="M30.5548 31.0999L37.2348 30.9599L40.5248 30.9049C41.6198 30.8799 42.7048 30.9049 43.7948 30.8749L43.5748 31.0999L43.5448 25.4999L43.7948 25.7499L37.1748 25.7199C34.9698 25.7199 32.7648 25.6599 30.5548 25.6349L30.6948 25.4999C30.6948 26.4149 30.6498 27.3349 30.6248 28.2699L30.5548 31.0999ZM30.5548 31.0999L30.4998 28.3299C30.4998 27.3999 30.4448 26.4549 30.4348 25.5049V25.3699H30.5698C32.7798 25.3449 34.9848 25.2899 37.1898 25.2849L43.8098 25.2549H44.0648V25.4999L43.9998 31.0999V31.3249H43.7748C42.6598 31.3249 41.5398 31.3249 40.4298 31.2949L37.0998 31.2399L30.5548 31.0999Z" fill="#EBEBEB"/>
<path d="M23.1699 38.155H36.4099V32.56H23.1699V38.155Z" fill="#EBEBEB"/>
<path d="M213.59 31.0999L220.265 30.9599L223.555 30.9049C224.65 30.8799 225.74 30.9049 226.83 30.8749L226.605 31.0999V25.5049L226.855 25.7549L220.235 25.7249C218.03 25.7249 215.82 25.6649 213.615 25.6399L213.75 25.5049C213.75 26.4199 213.71 27.3399 213.685 28.2749L213.59 31.0999ZM213.59 31.0999L213.5 28.3299C213.475 27.3999 213.44 26.4549 213.435 25.5049V25.3699H213.575C215.78 25.3449 217.99 25.2899 220.195 25.2849L226.815 25.2549H227.065V25.4999L227.05 31.0999V31.3249H226.83C225.715 31.3249 224.595 31.3249 223.48 31.2949L220.15 31.2399L213.59 31.0999Z" fill="#EBEBEB"/>
<path d="M84.6349 190.885H48.6599V230.72H84.6349V190.885Z" fill="#EBEBEB"/>
<path d="M30.0898 230.725H48.6648L48.6648 190.885H30.0898L30.0898 230.725Z" fill="#DBDBDB"/>
<path d="M31.365 228C32.745 225.167 34.1083 222.333 35.455 219.5L39.5 210.885L43.5 202.28C44.8333 199.407 46.14 196.523 47.42 193.63C46.04 196.463 44.6767 199.305 43.33 202.155L39.3 210.725L35.3 219.33C33.97 222.207 32.6583 225.097 31.365 228Z" fill="#EBEBEB"/>
<path d="M31.365 193.63C32.6583 196.527 33.965 199.41 35.285 202.28L39.285 210.885L43.315 219.455C44.665 222.305 46.0283 225.138 47.405 227.955C46.1117 225.062 44.805 222.178 43.485 219.305L39.485 210.7L35.455 202.13C34.105 199.297 32.7417 196.463 31.365 193.63Z" fill="#EBEBEB"/>
<path d="M84.6349 130.72H48.6599V167.81H84.6349V130.72Z" fill="#EBEBEB"/>
<path d="M30.0898 167.815H48.6648L48.6648 130.72H30.0898L30.0898 167.815Z" fill="#DBDBDB"/>
<path d="M63.595 139.33H64.36H64.93L65.255 138.665L65.715 139.33L66.335 137.965L66.925 139.33H68.61H69.375L69.655 138.42L69.915 139.33H70.415V130.72H63.595V139.33Z" fill="#DBDBDB"/>
<path d="M31.365 165.45C32.745 162.817 34.1083 160.167 35.455 157.5L39.485 149.5L43.485 141.5C44.8183 138.833 46.125 136.148 47.405 133.445C46.025 136.085 44.6617 138.732 43.315 141.385L39.285 149.36L35.285 157.36C33.965 160.057 32.6583 162.753 31.365 165.45Z" fill="#EBEBEB"/>
<path d="M31.365 133.465C32.6583 136.155 33.965 138.833 35.285 141.5L39.285 149.5L43.315 157.5C44.665 160.167 46.0283 162.813 47.405 165.44C46.1117 162.747 44.805 160.062 43.485 157.385L39.485 149.385L35.455 141.41C34.105 138.753 32.7417 136.105 31.365 133.465Z" fill="#EBEBEB"/>
<path d="M51.0299 165.51H55.0249V161.515H51.0299V165.51Z" fill="white"/>
<path d="M82.2399 167.815H46.2649V190.885H82.2399V167.815Z" fill="#DBDBDB"/>
<path d="M27.6899 190.885H46.2649V167.815H27.6899L27.6899 190.885Z" fill="#C7C7C7"/>
<path d="M61.2 176.425H61.9599H62.535L62.86 175.76L63.32 176.425L63.9399 175.06L64.5299 176.425H66.2099H66.98L67.2549 175.515L67.5199 176.425H68.0199V167.815H61.2V176.425Z" fill="white"/>
<path d="M28.97 189.5C30.3466 187.833 31.71 186.152 33.06 184.455L37.09 179.385L41.09 174.29C42.4033 172.59 43.7083 170.883 45.005 169.17C43.6316 170.837 42.2683 172.518 40.915 174.215L36.885 179.29L32.885 184.38C31.5683 186.09 30.2633 187.797 28.97 189.5Z" fill="#DBDBDB"/>
<path d="M28.97 169.185C30.2666 170.898 31.5733 172.605 32.89 174.305L36.89 179.4L40.92 184.47C42.2533 186.157 43.6133 187.833 45 189.5C43.71 187.787 42.405 186.08 41.085 184.38L37.085 179.29L33.055 174.215C31.7083 172.542 30.3466 170.865 28.97 169.185Z" fill="#DBDBDB"/>
<path d="M222.31 195.875H186.335V230.725H222.31V195.875Z" fill="#DBDBDB"/>
<path d="M167.765 230.725H186.34V195.875H167.765V230.725Z" fill="#C7C7C7"/>
<path d="M201.27 204.485H202.03H202.605L202.93 203.82L203.39 204.485L204.01 203.12L204.6 204.485H206.28H207.05L207.33 203.57L207.59 204.485H208.09V195.875H201.27V204.485Z" fill="white"/>
<path d="M169.04 228.65C170.416 226.12 171.78 223.58 173.13 221.03L177.16 213.37L181.16 205.68C182.493 203.11 183.798 200.533 185.075 197.95C183.701 200.48 182.338 203.02 180.985 205.57L176.955 213.225L172.98 220.92C171.66 223.49 170.346 226.067 169.04 228.65Z" fill="#DBDBDB"/>
<path d="M169.04 197.95C170.336 200.533 171.643 203.11 172.96 205.68L176.935 213.37L180.965 221.03C182.315 223.58 183.678 226.12 185.055 228.65C183.765 226.063 182.46 223.487 181.14 220.92L177.14 213.225L173.11 205.57C171.773 203.02 170.416 200.48 169.04 197.95Z" fill="#DBDBDB"/>
<path d="M159.76 23.5V108.55H218.29V23.5H159.76ZM216.13 106.365H161.92V25.635H216.13V106.365Z" fill="#EBEBEB"/>
<path d="M216.13 25.6348H161.92V106.365H216.13V25.6348Z" fill="white"/>
<path d="M161.92 69.5801H216.13V67.4201H161.92V69.5801Z" fill="#EBEBEB"/>
<path d="M155.78 114.72L222.265 114.72V108.52L155.78 108.52V114.72Z" fill="#DBDBDB"/>
<path d="M157.545 117.2L220.505 118.52V114.72H157.545V117.2Z" fill="#EBEBEB"/>
<path d="M161.92 25.6348H216.13V81.0998H161.92V25.6348ZM214.13 27.6348H163.92V79.0998H214.13V27.6348Z" fill="#DBDBDB"/>
<path d="M198.83 25.6348H197.75V79.0998H198.83V25.6348Z" fill="#DBDBDB"/>
<path d="M180.3 25.6348H179.22V79.0998H180.3V25.6348Z" fill="#DBDBDB"/>
<path d="M31.71 23.5V108.55H90.24V23.5H31.71ZM88.08 106.365H33.87V25.635H88.08V106.365Z" fill="#EBEBEB"/>
<path d="M88.0799 25.6348H33.8699V106.365H88.0799V25.6348Z" fill="white"/>
<path d="M33.8698 69.5801H88.0798V67.4201H33.8698V69.5801Z" fill="#EBEBEB"/>
<path d="M27.7298 114.72L94.2148 114.72V108.52L27.7298 108.52V114.72Z" fill="#DBDBDB"/>
<path d="M29.4949 117.2L92.4549 118.52V114.72H29.4949V117.2Z" fill="#EBEBEB"/>
<path d="M33.8699 25.6348H88.0799V81.0998H33.8699V25.6348ZM86.0799 27.6348H35.8699V79.0998H86.0799V27.6348Z" fill="#DBDBDB"/>
<path d="M70.78 25.6348H69.7V79.0998H70.78V25.6348Z" fill="#DBDBDB"/>
<path d="M52.2499 25.6348H51.1699V79.0998H52.2499V25.6348Z" fill="#DBDBDB"/>
<path d="M169.355 189.525H119.515V230.705H169.355V189.525Z" fill="#048CFC"/>
<path opacity="0.1" d="M169.355 189.525H119.515V230.705H169.355V189.525Z" fill="#333333"/>
<path d="M189.105 189.53H169.355V230.71H189.105V189.53Z" fill="#048CFC"/>
<path opacity="0.2" d="M189.105 189.53H169.355V230.71H189.105V189.53Z" fill="#333333"/>
<path d="M187.74 227.87C186.28 224.943 184.832 222.007 183.395 219.06L179.11 210.2L174.88 201.305C173.48 198.335 172.092 195.355 170.715 192.365C172.182 195.295 173.632 198.232 175.065 201.175L179.345 210.035L183.575 218.93C184.982 221.9 186.37 224.88 187.74 227.87Z" fill="#048CFC"/>
<path d="M187.74 192.365C186.367 195.365 184.978 198.345 183.575 201.305L179.345 210.2L175.065 219.06C173.628 222.003 172.178 224.94 170.715 227.87C172.092 224.87 173.48 221.89 174.88 218.93L179.11 210.035L183.395 201.18C184.832 198.23 186.28 195.292 187.74 192.365Z" fill="#048CFC"/>
<path d="M147.96 198.425H147.175H146.58L146.245 197.74L145.77 198.425L145.125 197.015L144.52 198.425H142.78H141.985L141.695 197.485L141.425 198.425H140.91V189.53H147.96V198.425Z" fill="white"/>
<path d="M172.36 148.35H135.175V189.525H172.36V148.35Z" fill="#048CFC"/>
<path d="M191.56 148.35H172.36V189.53H191.56V148.35Z" fill="#048CFC"/>
<path opacity="0.1" d="M191.56 148.35H172.36V189.53H191.56V148.35Z" fill="#333333"/>
<g opacity="0.1">
<path d="M169.635 186.69C166.905 183.76 164.198 180.823 161.515 177.88L153.5 169L145.605 160.105C142.985 157.135 140.392 154.155 137.825 151.165C140.558 154.095 143.265 157.033 145.945 159.98L153.945 168.835L161.84 177.73C164.47 180.713 167.068 183.7 169.635 186.69Z" fill="#333333"/>
<path d="M169.635 151.185C167.065 154.185 164.472 157.165 161.855 160.125L153.96 169L145.96 177.86C143.293 180.803 140.587 183.74 137.84 186.67C140.41 183.67 143.003 180.69 145.62 177.73L153.5 168.855L161.5 160C164.19 157.05 166.902 154.112 169.635 151.185Z" fill="#333333"/>
</g>
<path d="M188.86 182.56H185.495V187.31H188.86V182.56Z" fill="white"/>
<path d="M20.7251 230.725L46.7951 230.6L72.8651 230.56L125 230.475L177.135 230.56L203.205 230.6L229.275 230.725L203.205 230.845L177.135 230.89L125 230.975L72.8651 230.89L46.7951 230.845L20.7251 230.725Z" fill="#333333"/>
<path d="M144.86 88.9C144.58 88.72 144.3 88.545 144.02 88.375L144.215 88.05L145.065 88.585L144.86 88.9Z" fill="#333333"/>
<path d="M132.65 139H132.29V138.625C132.958 138.64 133.625 138.615 134.29 138.55L134.33 138.925C133.785 138.965 133.215 139 132.65 139ZM136.36 138.59L136.28 138.225C136.93 138.078 137.569 137.882 138.19 137.64L138.325 137.99C137.686 138.235 137.029 138.432 136.36 138.58V138.59ZM140.175 137.09L139.99 136.765C140.565 136.429 141.111 136.048 141.625 135.625L141.865 135.91C141.336 136.352 140.771 136.748 140.175 137.095V137.09ZM143.34 134.49L143.065 134.235C143.514 133.742 143.926 133.217 144.3 132.665L144.61 132.875C144.227 133.447 143.802 133.99 143.34 134.5V134.49ZM145.63 131.095L145.29 130.935C145.575 130.333 145.808 129.707 145.985 129.065L146.345 129.165C146.163 129.83 145.924 130.477 145.63 131.1V131.095ZM146.71 127.135L146.335 127.105C146.335 126.835 146.37 126.56 146.37 126.295C146.369 125.924 146.347 125.554 146.305 125.185C145.916 125.159 145.529 125.11 145.145 125.04L145.21 124.67C145.821 124.78 146.44 124.837 147.06 124.84H147.19V125.215H147.055H146.68C146.72 125.577 146.74 125.941 146.74 126.305C146.745 126.575 146.73 126.86 146.71 127.14V127.135ZM149.245 124.965L149.16 124.6C149.803 124.448 150.426 124.219 151.015 123.92L151.185 124.255C150.569 124.569 149.918 124.809 149.245 124.97V124.965ZM143.155 124.5C142.508 124.267 141.882 123.983 141.28 123.65L141.465 123.325C142.047 123.647 142.654 123.921 143.28 124.145L143.155 124.5ZM145.845 123.18C145.626 122.555 145.337 121.956 144.985 121.395L145.3 121.195C145.67 121.778 145.972 122.403 146.2 123.055L145.845 123.18ZM152.905 123.1L152.665 122.815C153.172 122.387 153.636 121.909 154.05 121.39L154.34 121.625C153.913 122.169 153.432 122.668 152.905 123.115V123.1ZM139.585 122.5L139.48 122.4C138.985 121.965 138.591 121.428 138.325 120.825L138.675 120.685C138.919 121.237 139.281 121.728 139.735 122.125L139.835 122.215L139.585 122.5ZM155.5 119.945L155.18 119.75C155.53 119.17 155.855 118.575 156.14 117.99L156.48 118.155C156.19 118.75 155.86 119.355 155.5 119.945ZM143.74 119.87C143.283 119.428 142.78 119.035 142.24 118.7L142.165 118.65L142.36 118.33L142.44 118.38C142.997 118.732 143.515 119.143 143.985 119.605L143.74 119.87ZM138.775 118.905L138.465 118.695C138.679 118.394 138.963 118.15 139.292 117.983C139.621 117.815 139.986 117.73 140.355 117.735V118.11C140.048 118.108 139.744 118.179 139.469 118.318C139.195 118.456 138.957 118.657 138.775 118.905ZM157.275 116.27L156.925 116.14C157.157 115.512 157.355 114.873 157.52 114.225L157.88 114.315C157.719 114.978 157.518 115.631 157.28 116.27H157.275ZM158.275 112.305L157.9 112.255C157.989 111.592 158.041 110.924 158.055 110.255H158.43C158.416 110.941 158.365 111.625 158.275 112.305ZM157.985 108.255C157.925 107.584 157.83 106.916 157.7 106.255L158.07 106.18C158.201 106.85 158.297 107.526 158.36 108.205L157.985 108.255ZM157.21 104.325C157.02 103.695 156.795 103.06 156.535 102.43L156.885 102.29C157.145 102.925 157.385 103.575 157.57 104.215L157.21 104.325ZM155.71 100.6C155.41 100.015 155.075 99.425 154.71 98.845L155.03 98.65C155.39 99.235 155.73 99.835 156.03 100.43L155.71 100.6ZM153.605 97.17C153.22 96.63 152.805 96.095 152.375 95.575L152.665 95.335C153.1 95.86 153.52 96.405 153.91 96.95L153.605 97.17ZM151.045 94.06C150.59 93.56 150.11 93.095 149.62 92.635L149.875 92.36C150.375 92.83 150.875 93.315 151.315 93.805L151.045 94.06ZM148.11 91.295C147.61 90.87 147.065 90.45 146.53 90.05L146.75 89.75C147.295 90.15 147.835 90.575 148.35 91.01L148.11 91.295Z" fill="#333333"/>
<path d="M130.195 138.82C129.859 138.778 129.525 138.718 129.195 138.64L129.285 138.275C129.285 138.275 129.645 138.365 130.245 138.45L130.195 138.82Z" fill="#333333"/>
<path d="M125.15 138.075C124.915 140.075 129 141.195 129.31 138.575C129.62 135.955 125.385 136.06 125.15 138.075Z" fill="#333333"/>
<path d="M130.5 141.385C130.12 142.14 128.775 142.245 127.385 141.275C126.441 140.554 125.644 139.66 125.035 138.64C126.211 138.517 127.399 138.621 128.535 138.945C130.18 139.5 130.9 140.62 130.5 141.385Z" fill="#EBEBEB"/>
<path d="M125.05 138.64C125.84 138.995 126.615 139.38 127.39 139.76C128.165 140.14 128.93 140.545 129.685 140.965C128.895 140.61 128.12 140.225 127.345 139.845C126.57 139.465 125.805 139.06 125.05 138.64Z" fill="#333333"/>
<path d="M128.68 141.37C128.5 141.162 128.334 140.943 128.18 140.715C128.029 140.489 127.892 140.253 127.77 140.01C127.95 140.218 128.117 140.437 128.27 140.665C128.422 140.891 128.559 141.126 128.68 141.37Z" fill="#333333"/>
<path d="M127 139.615C127.275 139.544 127.554 139.487 127.835 139.445C128.118 139.405 128.404 139.38 128.69 139.37C128.136 139.508 127.57 139.59 127 139.615Z" fill="#333333"/>
<path d="M126.565 139.945C126.393 139.731 126.27 139.482 126.205 139.215C126.377 139.429 126.5 139.678 126.565 139.945Z" fill="#333333"/>
<path d="M131.16 136.15C130.965 135.325 129.685 134.915 128.11 135.535C127.023 136.019 126.039 136.706 125.21 137.56C126.334 137.949 127.522 138.119 128.71 138.06C130.395 137.92 131.36 137 131.16 136.15Z" fill="#EBEBEB"/>
<path d="M125.21 137.56C126.06 137.4 126.905 137.2 127.745 137.005C128.585 136.81 129.425 136.6 130.245 136.365C129.4 136.525 128.555 136.725 127.715 136.92C126.875 137.115 126.045 137.325 125.21 137.56Z" fill="#333333"/>
<path d="M129.375 135.74C129.157 135.895 128.949 136.062 128.75 136.24C128.552 136.427 128.363 136.624 128.185 136.83C128.405 136.678 128.614 136.511 128.81 136.33C129.01 136.144 129.198 135.947 129.375 135.74Z" fill="#333333"/>
<path d="M127.325 137.06C127.832 137.324 128.365 137.533 128.915 137.685C128.41 137.419 127.876 137.21 127.325 137.06Z" fill="#333333"/>
<path d="M127 136.64C126.891 136.722 126.792 136.816 126.705 136.92C126.619 137.027 126.543 137.143 126.48 137.265C126.589 137.182 126.688 137.086 126.775 136.98C126.866 136.878 126.942 136.764 127 136.64Z" fill="#333333"/>
<path d="M125.15 138.075C125.293 138.092 125.428 138.151 125.538 138.244C125.648 138.337 125.728 138.461 125.768 138.6C125.807 138.738 125.805 138.886 125.761 139.023C125.717 139.16 125.633 139.282 125.52 139.371C125.408 139.461 125.271 139.516 125.127 139.528C124.983 139.54 124.839 139.509 124.713 139.439C124.587 139.37 124.484 139.264 124.418 139.136C124.351 139.008 124.324 138.864 124.34 138.72C124.363 138.528 124.461 138.352 124.612 138.231C124.764 138.11 124.957 138.054 125.15 138.075Z" fill="#333333"/>
<path d="M125.32 136.62C125.416 136.631 125.508 136.661 125.592 136.708C125.676 136.755 125.75 136.818 125.81 136.893C125.869 136.969 125.914 137.055 125.94 137.148C125.966 137.24 125.974 137.337 125.963 137.432C125.951 137.528 125.922 137.62 125.875 137.704C125.828 137.788 125.765 137.862 125.689 137.922C125.614 137.982 125.528 138.026 125.435 138.052C125.342 138.078 125.246 138.086 125.15 138.075C124.957 138.052 124.781 137.954 124.661 137.802C124.54 137.649 124.485 137.455 124.508 137.262C124.53 137.069 124.628 136.893 124.781 136.773C124.933 136.652 125.127 136.597 125.32 136.62Z" fill="#333333"/>
<path d="M80.0001 185.155C80.0001 185.155 69.3401 206.5 69.3351 206.5C68.4551 210.905 67.7651 214.79 67.5901 216.83C67.5875 216.842 67.5875 216.854 67.5901 216.865C67.4978 217.338 67.5166 217.826 67.6451 218.29C67.6425 218.302 67.6425 218.314 67.6451 218.325C68.7801 219.475 103.81 227.54 105.145 227.41C106.48 227.28 106.195 223.515 105.085 222.12C103.975 220.725 91.9401 211.62 91.9401 211.62L102.36 190.24L80.0001 185.155Z" fill="#D3766A"/>
<path d="M104.615 227.43C103.3 227.56 68.7949 219.49 67.6649 218.345C67.6633 218.333 67.6633 218.322 67.6649 218.31C67.5341 217.846 67.5135 217.358 67.6049 216.885C67.6007 216.874 67.6007 216.861 67.6049 216.85C67.7749 214.81 68.4699 210.925 69.3449 206.515L71.8949 201.405L93.9999 207.465L91.9599 211.655C91.9599 211.655 103.46 220.74 104.575 222.155C105.69 223.57 105.935 227.305 104.615 227.43Z" fill="#EBEBEB"/>
<path d="M105.095 226.87C103.76 226.97 68.645 218.02 67.525 216.83C67.095 216.385 68.1 211.19 69.495 204.95L69.54 204.755L92.26 210.28L92.155 210.66C92.155 210.66 104.06 220.1 105.155 221.54C106.25 222.98 106.425 226.775 105.095 226.87Z" fill="#333333"/>
<path d="M105.04 225.405C99.1599 223.755 75.2799 217.635 69.3399 216.445C69.2899 216.445 69.2799 216.47 69.3399 216.485C75.1349 218.25 99.0649 224.175 105.03 225.485C105.145 225.53 105.165 225.44 105.04 225.405Z" fill="white"/>
<path d="M94.0399 211.215C91.8199 210.185 88.8799 209.815 86.6799 211.025C86.5949 211.07 86.6799 211.19 86.7399 211.185C89.1494 211.034 91.5682 211.141 93.9549 211.505C93.99 211.507 94.0247 211.497 94.0534 211.477C94.0821 211.457 94.1031 211.428 94.113 211.394C94.1229 211.36 94.121 211.324 94.1077 211.292C94.0945 211.259 94.0705 211.232 94.0399 211.215Z" fill="white"/>
<path d="M95.4599 212.655C93.2449 211.63 90.3049 211.26 88.0999 212.465C88.0149 212.51 88.0999 212.63 88.1649 212.63C90.5744 212.477 92.9935 212.584 95.3799 212.95C95.4164 212.954 95.4529 212.944 95.4831 212.923C95.5132 212.903 95.535 212.872 95.5446 212.836C95.5542 212.801 95.5509 212.764 95.5354 212.73C95.5199 212.697 95.4932 212.671 95.4599 212.655Z" fill="white"/>
<path d="M96.885 214.1C94.665 213.07 91.725 212.7 89.525 213.905C89.44 213.955 89.525 214.075 89.59 214.07C91.9978 213.919 94.415 214.026 96.8 214.39C96.835 214.392 96.8697 214.382 96.8985 214.362C96.9272 214.342 96.9482 214.313 96.9581 214.279C96.9679 214.245 96.9661 214.209 96.9528 214.177C96.9395 214.144 96.9156 214.117 96.885 214.1Z" fill="white"/>
<path d="M105.95 225.75C106.515 226.15 105.84 228.225 105.345 228.28C104.85 228.335 66.605 218.405 66 218.09C65.395 217.775 66.225 215.505 67 215.59C67.775 215.675 105.95 225.75 105.95 225.75Z" fill="#048CFC"/>
<path d="M74.3349 210.165C72.1149 208.245 69.1249 211.695 71.3349 213.62C73.5449 215.545 76.5599 212.09 74.3349 210.165Z" fill="white"/>
<path d="M71.96 199.7L97.58 206.16C97.58 206.16 121.46 163.065 120.925 152.11C120.19 137 102.45 90.54 102.45 90.54H81.21C81.21 90.54 95.305 140.765 95.5 149.215C95.585 153.635 71.96 199.7 71.96 199.7Z" fill="#333333"/>
<path d="M98.6749 200.96C97.3099 200.415 85.1149 196.895 76.0149 194.96C76.0049 194.963 75.9961 194.97 75.99 194.978C75.9838 194.987 75.9805 194.997 75.9805 195.007C75.9805 195.018 75.9838 195.028 75.99 195.037C75.9961 195.045 76.0049 195.052 76.0149 195.055C78.8799 196.055 96.9599 200.82 98.6549 201.055C98.6949 201.07 98.7349 201 98.6749 200.96Z" fill="#333333"/>
<path d="M97.26 138.425C95.57 131.335 93.76 124.265 91.86 117.24C89.96 110.215 87.925 103.125 85.69 96.1551C85.42 95.3001 85.135 94.4551 84.86 93.6051C84.8521 93.5779 84.8336 93.555 84.8088 93.5414C84.7839 93.5278 84.7547 93.5247 84.7275 93.5326C84.7003 93.5406 84.6774 93.559 84.6638 93.5839C84.6502 93.6087 84.6471 93.6379 84.655 93.6651C86.655 100.61 88.655 107.54 90.55 114.51C92.445 121.48 94.25 128.47 95.95 135.51C96.375 137.25 96.79 138.985 97.195 140.73C97.6657 142.519 98.0297 144.333 98.285 146.165C98.4952 147.915 98.3748 149.689 97.93 151.395C97.4476 153.071 96.8167 154.701 96.045 156.265C92.9817 162.915 89.92 169.567 86.86 176.22C83.8 182.89 83.305 184.41 80.36 191.135C79.995 191.97 79.63 192.805 79.28 193.635C79.28 193.69 79.335 193.74 79.365 193.68C82.715 187.09 83.23 185.505 86.365 178.795C89.5 172.085 92.615 165.295 95.725 158.54C97.125 155.49 98.77 152.38 98.98 148.97C99.19 145.41 98.07 141.84 97.26 138.425Z" fill="#333333"/>
<path d="M98.4199 193.595L99.2399 217.095C99.3749 221.595 99.5699 225.53 99.8649 227.555C99.8625 227.567 99.8625 227.579 99.8649 227.59C99.8817 228.071 100.008 228.541 100.235 228.965L100.265 228.995C101.63 229.86 137.575 229.84 138.83 229.415C140.085 228.99 138.975 225.39 137.58 224.275C136.185 223.16 122.415 217.015 122.415 217.015L121.37 193.54L98.4199 193.595Z" fill="#D3766A"/>
<path d="M99.0701 212.285C99.0701 212.285 99.2401 217.095 99.2401 217.11C99.3751 221.61 99.5701 225.545 99.8651 227.57C99.8626 227.582 99.8626 227.593 99.8651 227.605C99.9334 228.076 100.058 228.538 100.235 228.98L100.265 229.01C101.63 229.875 137.575 229.855 138.83 229.43C140.085 229.005 138.975 225.405 137.58 224.29C136.185 223.175 122.415 217.03 122.415 217.03L122.31 212.135L99.0701 212.285Z" fill="#EBEBEB"/>
<path d="M138.85 229.39C137.58 229.795 101.35 229.235 99.9799 228.335C99.4799 228 99.2299 222.72 99.1399 216.335V216.135L122.52 216.235V216.635C122.52 216.635 136.295 223.05 137.69 224.195C139.085 225.34 140.125 229 138.85 229.39Z" fill="#333333"/>
<path d="M138.465 228C132.36 227.755 107.71 227.345 101.655 227.57C101.605 227.57 101.605 227.605 101.655 227.605C107.7 227.98 132.355 228.195 138.465 228.105C138.59 228.075 138.595 228 138.465 228Z" fill="white"/>
<path d="M124.47 216.725C122.075 216.225 119.125 216.56 117.265 218.225C117.19 218.29 117.265 218.39 117.365 218.37C119.673 217.665 122.05 217.208 124.455 217.005C124.484 216.996 124.51 216.978 124.528 216.954C124.547 216.93 124.557 216.901 124.559 216.87C124.561 216.84 124.553 216.81 124.537 216.784C124.521 216.758 124.498 216.737 124.47 216.725Z" fill="white"/>
<path d="M126.19 217.795C123.79 217.295 120.845 217.635 118.985 219.32C118.91 219.385 118.985 219.485 119.08 219.46C121.39 218.755 123.768 218.299 126.175 218.1C126.211 218.096 126.245 218.079 126.269 218.052C126.294 218.025 126.309 217.99 126.311 217.954C126.312 217.918 126.301 217.882 126.279 217.853C126.257 217.824 126.226 217.803 126.19 217.795Z" fill="white"/>
<path d="M127.905 218.87C125.51 218.37 122.565 218.705 120.7 220.37C120.63 220.435 120.7 220.535 120.8 220.515C123.108 219.811 125.485 219.353 127.89 219.15C127.919 219.141 127.944 219.123 127.963 219.099C127.982 219.075 127.992 219.046 127.994 219.015C127.996 218.985 127.988 218.955 127.972 218.929C127.956 218.903 127.933 218.882 127.905 218.87Z" fill="white"/>
<path d="M139.425 228.1C140.07 228.36 139.895 230.535 139.425 230.7C138.955 230.865 99.425 230.08 98.78 229.92C98.135 229.76 98.395 227.355 99.18 227.24C99.965 227.125 139.425 228.1 139.425 228.1Z" fill="#048CFC"/>
<path d="M105.06 220.275C102.455 218.92 100.345 222.97 102.955 224.325C105.565 225.68 107.67 221.63 105.06 220.275Z" fill="white"/>
<path d="M102.185 90.5C102.09 90.935 96.7949 111.87 96.1349 112.26C95.3849 112.705 115.375 139.6 117.745 152.805C119.245 161.25 122.745 210.475 122.745 210.475H97.2549C97.2549 210.475 94.7549 168.67 93.9249 154.895C93.5999 149.55 73.5499 124.84 71.6449 108.365C71.0449 103.175 74.7749 90.48 74.7749 90.48L102.185 90.5Z" fill="#333333"/>
<path d="M96.6101 190.585C96.3101 183.66 96.0351 176.72 95.5301 169.805C95.2451 165.885 94.6851 162.09 94.2951 158.185C94.2951 157.98 94.1101 157.93 94.1151 158.14C94.2951 165.095 94.8701 171.975 95.2401 178.925C95.6101 185.875 95.9651 187.495 96.3601 194.425C96.5801 198.345 96.7751 202.265 97.0801 206.18C97.0834 206.19 97.0897 206.199 97.0983 206.205C97.1068 206.211 97.1171 206.214 97.1276 206.214C97.1381 206.214 97.1484 206.211 97.1569 206.205C97.1654 206.199 97.1718 206.19 97.1751 206.18C97.1901 199.22 96.9151 197.535 96.6101 190.585Z" fill="#333333"/>
<path d="M117.77 153.135C117.552 151.306 117.198 149.496 116.71 147.72C116.185 145.999 115.493 144.332 114.645 142.745C112.91 139.415 110.935 136.195 109.03 132.96C107.125 129.725 105.14 126.42 103.13 123.19C102 121.377 100.865 119.565 99.7251 117.755C98.5651 115.93 97.3401 114.14 96.1451 112.34C96.1358 112.325 96.1208 112.314 96.1035 112.31C96.0861 112.306 96.0678 112.308 96.0526 112.318C96.0373 112.327 96.0264 112.342 96.0222 112.359C96.018 112.377 96.0208 112.395 96.0301 112.41C97.9801 115.68 99.9101 118.955 101.86 122.225C103.81 125.495 105.73 128.775 107.65 132.055C109.57 135.335 111.435 138.515 113.245 141.795C114.136 143.352 114.904 144.978 115.54 146.655C116.132 148.393 116.562 150.183 116.825 152C117.505 156.235 118.06 160.5 118.91 164.695C118.913 164.705 118.92 164.714 118.928 164.72C118.937 164.726 118.947 164.73 118.958 164.73C118.968 164.73 118.978 164.726 118.987 164.72C118.995 164.714 119.002 164.705 119.005 164.695C118.74 160.835 118.28 156.97 117.77 153.135Z" fill="#333333"/>
<path d="M120.5 206.105C119.045 205.915 107.94 205.53 98.6501 205.93C98.5901 205.93 98.5951 206.02 98.6501 206.025C101.675 206.29 118.78 206.41 120.485 206.21C120.53 206.205 120.55 206.115 120.5 206.105Z" fill="#333333"/>
<path d="M99.4599 110.83C96.8629 111.776 94.3533 112.947 91.9599 114.33C91.9394 114.339 91.9234 114.356 91.9154 114.378C91.9074 114.399 91.9082 114.422 91.9175 114.443C91.9267 114.463 91.9438 114.479 91.9649 114.487C91.986 114.495 92.0094 114.494 92.0299 114.485C94.5599 113.395 97.1449 112.355 99.6149 111.13C99.6547 111.11 99.6847 111.074 99.6983 111.031C99.7119 110.989 99.708 110.942 99.6874 110.903C99.6669 110.863 99.6314 110.833 99.5887 110.819C99.5461 110.806 99.4997 110.81 99.4599 110.83Z" fill="#333333"/>
<path d="M100.225 93.5002C100.225 93.4152 100.065 93.3952 100.065 93.5002C100.065 96.3255 99.9236 99.1491 99.6399 101.96C99.5199 103.265 98.4699 110.46 96.2099 109.96C95.8299 109.87 95.6399 109.5 95.5799 108.925C95.5862 108.179 95.687 107.436 95.8799 106.715C96.1299 105.215 96.3299 103.715 96.4599 102.17C96.725 99.3314 96.6949 96.4727 96.3699 93.6402C96.3657 93.6242 96.3563 93.61 96.3432 93.5999C96.3301 93.5898 96.314 93.5844 96.2974 93.5844C96.2809 93.5844 96.2648 93.5898 96.2517 93.5999C96.2386 93.61 96.2292 93.6242 96.2249 93.6402C96.2904 97.5752 96.0598 101.51 95.5349 105.41C95.2499 107.285 94.3049 110.11 96.2699 110.41C98.2349 110.71 99.5599 105.975 99.7999 104.68C100.425 100.988 100.568 97.2295 100.225 93.5002Z" fill="#333333"/>
<path d="M96.2701 110.115C96.0698 110.603 95.9027 111.104 95.7701 111.615C95.6262 112.007 95.555 112.422 95.5601 112.84C95.5625 112.857 95.5701 112.873 95.5817 112.886C95.5934 112.898 95.6087 112.907 95.6255 112.911C95.6423 112.915 95.6599 112.914 95.6759 112.907C95.6919 112.901 95.7055 112.89 95.7151 112.875C95.9513 112.507 96.1284 112.103 96.2401 111.68C96.4151 111.215 96.5951 110.76 96.7401 110.29C96.7633 110.228 96.7608 110.159 96.7331 110.098C96.7054 110.038 96.6549 109.991 96.5926 109.968C96.5302 109.944 96.4613 109.947 96.4008 109.975C96.3403 110.002 96.2933 110.053 96.2701 110.115Z" fill="#333333"/>
<path d="M97.3351 161.615C97.0951 158.055 97.1101 154.3 95.5951 151C94.7904 149.392 93.8644 147.847 92.8251 146.38C91.7917 144.8 90.7717 143.212 89.7651 141.615C85.7651 135.23 81.9051 128.715 78.3901 122.04C76.6951 118.825 75.1351 115.505 74.2851 111.955C73.4562 108.219 73.2987 104.366 73.8201 100.575C73.9401 99.6301 74.0701 98.6901 74.2251 97.7501C74.2256 97.7373 74.2216 97.7248 74.2139 97.7146C74.2062 97.7045 74.1952 97.6973 74.1828 97.6944C74.1704 97.6914 74.1574 97.6929 74.1459 97.6985C74.1345 97.7041 74.1254 97.7135 74.1201 97.7251C73.2974 101.33 73.016 105.037 73.2851 108.725C73.6698 112.251 74.6629 115.683 76.2201 118.87C77.7701 122.225 79.6151 125.455 81.4351 128.67C83.3117 132.003 85.2434 135.288 87.2301 138.525C89.2301 141.755 91.2901 144.92 93.3551 148.1C94.4084 149.6 95.2293 151.25 95.7901 152.995C96.2447 154.816 96.5061 156.679 96.5701 158.555C97.0701 166.425 99.0701 192.59 99.7801 200.42C99.8651 201.42 99.9551 202.42 100.05 203.42C100.047 203.43 100.047 203.441 100.049 203.452C100.051 203.463 100.055 203.472 100.062 203.481C100.068 203.49 100.077 203.497 100.087 203.501C100.096 203.506 100.107 203.509 100.118 203.509C100.128 203.509 100.139 203.506 100.149 203.501C100.158 203.497 100.167 203.49 100.173 203.481C100.18 203.472 100.184 203.463 100.186 203.452C100.188 203.441 100.188 203.43 100.185 203.42C99.8851 195.56 97.8501 169.46 97.3351 161.615Z" fill="#333333"/>
<path d="M85.0999 97.4001C85.0999 97.3451 85.0099 97.3651 85.0099 97.4001C84.9349 99.5851 85.0099 101.845 84.1549 103.9C83.3849 105.795 81.8349 107.125 80.0999 108.12C79.0909 108.686 78.051 109.195 76.9849 109.645C76.9099 109.68 76.9399 109.8 77.0249 109.775C79.0249 109.135 81.0899 108.44 82.7649 107.1C84.5549 105.66 85.3399 103.575 85.4249 101.325C85.4556 100.009 85.3467 98.6933 85.0999 97.4001Z" fill="#333333"/>
<path d="M96.1951 61.7852C99.0551 70.5652 106.78 85.5202 109.54 87.3252C111.985 88.9202 123.49 87.1402 128.54 85.9252C130.42 85.4702 126.19 71.1402 124.185 71.6652C121.78 72.2952 114.615 73.9102 114.095 73.5102C113.575 73.1102 106.35 64.2102 101.23 58.9702C96.5701 54.2252 95.1151 58.4652 96.1951 61.7852Z" fill="#D3766A"/>
<path d="M127.435 86.0352C128.4 85.9152 136.565 85.5352 140.31 83.5002C142.31 82.4152 147.415 78.8252 146.905 77.5352C146.44 76.3602 144.8 77.0002 144.8 77.0002C144.8 77.0002 147.055 75.3652 146.395 73.7352C145.735 72.1052 143.01 73.3302 143.01 73.3302C143.01 73.3302 145.205 71.4802 144.43 69.9052C143.655 68.3302 141.125 70.0152 141.125 70.0152C141.125 70.0152 143.21 68.4202 142.025 67.3902C140.595 66.1502 137.08 69.5302 134.705 70.3202C134.165 70.5002 123.525 73.1902 123.525 73.1902L127.435 86.0352Z" fill="#D3766A"/>
<path d="M141.035 69.9701C138.445 72.4451 136.88 73.0801 133.42 73.7801C133.355 73.7801 133.36 73.9001 133.42 73.8901C136.87 73.5151 138.945 73.0001 141.15 70.0901C141.27 69.9451 141.155 69.8501 141.035 69.9701Z" fill="#333333"/>
<path d="M142.925 73.2701C140.01 75.6101 138.32 76.3101 134.75 77.3101C134.7 77.3101 134.72 77.4151 134.775 77.4051C138.355 76.7151 140.415 76.1551 143.02 73.4351C143.14 73.3151 143.06 73.1651 142.925 73.2701Z" fill="#333333"/>
<path d="M144.625 77.04C141.625 79.1 139.82 79.955 136.23 80.48C136.213 80.48 136.196 80.4869 136.184 80.4991C136.172 80.5112 136.165 80.5278 136.165 80.545C136.165 80.5622 136.172 80.5788 136.184 80.591C136.196 80.6032 136.213 80.61 136.23 80.61C139.945 80.43 142.23 79.385 144.665 77.14C144.845 77 144.81 76.915 144.625 77.04Z" fill="#333333"/>
<path d="M120.735 73.65C120.735 73.65 123.71 70.285 125.34 69.095C126.97 67.905 134.69 65.705 135.26 67.345C135.995 69.465 131.79 71.61 129.595 72.39C129.595 72.39 131.3 77.29 128.595 79.48C125.89 81.67 120.735 73.65 120.735 73.65Z" fill="#D3766A"/>
<path d="M135.275 68C134.55 70.415 131.6 71.255 129.525 72.17C129.494 72.1832 129.467 72.2035 129.445 72.2291C129.424 72.2547 129.409 72.2849 129.401 72.3175C129.393 72.35 129.393 72.3839 129.401 72.4164C129.408 72.449 129.423 72.4793 129.445 72.505C130.025 74.605 130.225 77.735 128.755 79.505C128.715 79.555 128.78 79.625 128.83 79.58C130.665 77.9 130.715 74.805 129.935 72.545C132.08 71.64 135 70.665 135.295 68.01C135.3 68 135.28 68 135.275 68Z" fill="#333333"/>
<path d="M127.43 88.5L123.66 71.33L114.33 73.025C110.65 68.81 103.295 60.385 100.33 57.855C96.83 54.885 94.54 57.115 95.83 61.615C98.745 71.9 107.27 87 109.5 88.425C112.735 90.5 127.43 88.5 127.43 88.5Z" fill="#048CFC"/>
<path opacity="0.1" d="M114.11 78.25C114.572 78.3505 115.043 78.4057 115.515 78.415C116.515 78.55 116.955 80.025 116.045 80.585C115.567 80.8794 115.027 81.0576 114.468 81.1054C113.909 81.1531 113.346 81.0691 112.825 80.86C111.825 80.47 110.98 79.5 111.195 78.36C111.232 78.1475 111.324 77.9483 111.461 77.7816C111.598 77.615 111.776 77.4867 111.977 77.4092C112.179 77.3317 112.397 77.3076 112.61 77.3393C112.823 77.371 113.025 77.4573 113.195 77.59C113.472 77.8464 113.779 78.068 114.11 78.25ZM111.53 74.165C111.17 75.865 113.8 77.325 115.145 76.42C115.254 76.3379 115.342 76.2324 115.404 76.1114C115.466 75.9904 115.5 75.8569 115.503 75.721C115.507 75.585 115.479 75.45 115.423 75.3261C115.368 75.2021 115.284 75.0924 115.18 75.005C114.785 74.685 114.455 74.635 114.105 74.345C113.983 74.2495 113.875 74.1366 113.785 74.01C113.587 73.7367 113.333 73.5083 113.04 73.34C112.888 73.275 112.723 73.2453 112.557 73.2533C112.392 73.2612 112.23 73.3066 112.085 73.386C111.939 73.4655 111.814 73.5768 111.718 73.7118C111.622 73.8467 111.558 74.0017 111.53 74.165ZM107.335 74.255C106.795 74.96 107.2 76.02 107.675 76.66C107.889 76.9788 108.183 77.2351 108.529 77.4029C108.874 77.5706 109.257 77.6439 109.64 77.615C109.78 77.5954 109.91 77.5359 110.017 77.4436C110.123 77.3513 110.201 77.2302 110.24 77.0949C110.279 76.9596 110.278 76.8159 110.237 76.681C110.196 76.5462 110.118 76.426 110.01 76.335C109.709 76.1064 109.469 75.8077 109.31 75.465C109.075 74.935 108.92 74.25 108.31 74.02C108.144 73.9515 107.96 73.9374 107.785 73.9796C107.609 74.0218 107.452 74.1182 107.335 74.255ZM118.41 85.375C117.705 86.8 119.85 88.42 121.15 88.14C121.585 88.045 122.005 87.475 121.62 87.065C121.31 86.735 120.94 86.475 120.65 86.125C120.295 85.7 120.1 85.155 119.545 84.94C119.336 84.8526 119.102 84.8491 118.89 84.9301C118.679 85.0111 118.507 85.1705 118.41 85.375ZM98.2701 67.9C98.1471 67.6659 97.9768 67.4599 97.7701 67.295C98.0501 68.0117 98.3451 68.73 98.6551 69.45C98.6717 68.9078 98.5385 68.3715 98.2701 67.9ZM101.055 66.4C100.957 65.1649 100.475 63.9916 99.6751 63.045C99.0751 62.27 98.0351 61.045 96.9351 61.31C96.8182 61.3466 96.7161 61.4198 96.6441 61.5188C96.572 61.6179 96.5338 61.7376 96.5351 61.86C96.4651 62.705 97.4351 63.61 97.8551 64.285C98.3551 65.135 98.7501 66.075 99.2901 66.92C99.403 67.0938 99.569 67.2263 99.7634 67.2979C99.9579 67.3695 100.17 67.3762 100.369 67.3172C100.567 67.2581 100.742 67.1364 100.865 66.9702C100.989 66.804 101.056 66.6022 101.055 66.395V66.4ZM100.73 71.775C100.925 71.7649 101.112 71.6925 101.264 71.5683C101.415 71.4441 101.522 71.2747 101.57 71.085C101.648 70.6969 101.622 70.2951 101.495 69.92C101.42 69.5629 101.247 69.2338 100.995 68.97C100.905 68.8865 100.794 68.8279 100.675 68.7999C100.555 68.7718 100.43 68.7754 100.312 68.8102C100.194 68.8449 100.087 68.9098 100.002 68.9983C99.9165 69.0868 99.8556 69.1959 99.8251 69.315C99.7851 69.607 99.7851 69.9031 99.8251 70.195C99.8251 70.32 99.8251 70.445 99.8251 70.575C99.8225 70.7634 99.8427 70.9515 99.8851 71.135C99.9389 71.3177 100.05 71.4781 100.202 71.5925C100.355 71.7069 100.54 71.7692 100.73 71.77V71.775Z" fill="#333333" fill-opacity="0.2"/>
<path d="M124.165 87C123.735 86 122.665 81.56 122.43 80.455C122.195 79.35 121.325 74.88 121.07 73.745C121.07 73.68 121.14 73.645 121.155 73.705C121.425 74.825 122.63 79.235 122.895 80.335C123.16 81.435 124.155 85.87 124.225 86.985C124.226 86.9889 124.226 86.993 124.226 86.997C124.225 87.001 124.224 87.0049 124.222 87.0084C124.217 87.0154 124.211 87.0205 124.203 87.0225C124.195 87.0245 124.186 87.0232 124.179 87.019C124.172 87.0148 124.167 87.0079 124.165 87Z" fill="#333333"/>
<path opacity="0.1" d="M115.5 89.36C112.875 89.36 110.57 89.11 109.5 88.425C107.255 86.975 98.7299 71.925 95.7949 61.62C95.0549 59.04 95.4999 57.2 96.6699 56.665L115.5 89.36Z" fill="#333333"/>
<path d="M73.1899 92.855C73.2549 92.95 104.455 96.95 104.79 96.66C104.966 95.7914 105.092 94.9132 105.165 94.03C105.165 94.03 102.305 60.06 100.825 58.065C99.5299 56.325 95.5999 55.065 92.9249 56.2C87.3099 58.58 73.8649 88.93 74.0099 90.2C73.9999 90.185 73.1099 92.735 73.1899 92.855Z" fill="#048CFC"/>
<path opacity="0.1" d="M84.4399 88.7201C84.9211 88.9538 85.4233 89.1413 85.9399 89.2801C86.9799 89.6951 87.0749 91.4301 85.9399 91.7801C85.3365 91.9715 84.6968 92.0192 84.0717 91.9194C83.4467 91.8196 82.8536 91.575 82.3399 91.2051C81.3399 90.5051 80.6949 89.2051 81.2349 88.0451C81.334 87.8244 81.4882 87.6329 81.6827 87.489C81.8773 87.3451 82.1055 87.2537 82.3456 87.2236C82.5857 87.1934 82.8294 87.2256 83.0535 87.3169C83.2775 87.4083 83.4743 87.5557 83.6249 87.7451C83.9049 88.0701 84.0749 88.5001 84.4399 88.7201ZM82.7299 83.5551C81.8749 85.3201 84.3499 87.6251 86.0649 87.0001C86.2086 86.9427 86.3369 86.8527 86.4399 86.7372C86.5429 86.6218 86.6177 86.484 86.6584 86.3347C86.6991 86.1854 86.7046 86.0288 86.6745 85.877C86.6444 85.7252 86.5795 85.5825 86.4849 85.4601C86.1449 85.0051 85.7949 84.8601 85.4849 84.4601C85.3779 84.3219 85.292 84.1685 85.2299 84.0051C85.0821 83.656 84.8662 83.3399 84.5949 83.0751C83.9999 82.5001 83.0449 82.9051 82.7299 83.5551ZM79.8399 81.6751C78.9049 82.0251 78.6649 83.2851 78.7349 84.1751C78.7493 84.6075 78.8781 85.0283 79.1083 85.3946C79.3384 85.7609 79.6616 86.0595 80.0449 86.2601C80.1895 86.3247 80.3498 86.3461 80.5063 86.3215C80.6628 86.297 80.8089 86.2277 80.9268 86.1219C81.0448 86.0161 81.1296 85.8784 81.1709 85.7255C81.2123 85.5725 81.2084 85.4109 81.1599 85.2601C81.0011 84.8603 80.9461 84.4269 80.9999 84.0001C81.0849 83.3601 81.3399 82.6101 80.9149 82.0351C80.7966 81.8694 80.6289 81.7453 80.4358 81.6806C80.2427 81.6159 80.0341 81.614 79.8399 81.6751ZM90.0899 87.6251C89.8532 87.6048 89.6177 87.6759 89.4318 87.8237C89.2458 87.9716 89.1235 88.1849 89.0899 88.4201C89.0643 88.6728 89.1277 88.9264 89.2692 89.1373C89.4107 89.3482 89.6214 89.503 89.8649 89.5751C90.2058 89.6876 90.5739 89.6876 90.9149 89.5751C91.0894 89.5061 91.2332 89.3765 91.3199 89.2101C91.4203 89.0491 91.461 88.858 91.4349 88.6701C91.4072 88.4948 91.3269 88.332 91.2045 88.2034C91.0822 88.0748 90.9236 87.9865 90.7499 87.9501C90.7184 87.9086 90.6814 87.8716 90.6399 87.8401C90.4812 87.7168 90.2901 87.6421 90.0899 87.6251ZM82.4249 75.5601C81.5849 76.4201 81.9249 78.3751 82.8849 79.0351C83.0085 79.1291 83.1545 79.1891 83.3085 79.2091C83.4624 79.2292 83.619 79.2086 83.7625 79.1495C83.9061 79.0904 84.0317 78.9947 84.1268 78.872C84.222 78.7493 84.2833 78.6039 84.3049 78.4501C84.3197 78.252 84.3197 78.0532 84.3049 77.8551C84.3049 77.6401 84.2749 77.5051 84.3049 77.3551C84.3797 76.9276 84.3948 76.4918 84.3499 76.0601C84.311 75.8554 84.2148 75.6659 84.0725 75.5137C83.9301 75.3615 83.7474 75.2529 83.5457 75.2005C83.344 75.1482 83.1316 75.1541 82.9332 75.2178C82.7347 75.2814 82.5585 75.4002 82.4249 75.5601ZM76.9999 88.0001C75.8449 89.3701 77.7499 91.7201 79.2449 91.7651C79.7449 91.7651 80.3599 91.2651 80.0499 90.7151C79.7999 90.2751 79.4649 89.8851 79.2449 89.4301C78.9749 88.8701 78.9099 88.2151 78.3599 87.8351C78.1548 87.6843 77.8999 87.6175 77.6472 87.6481C77.3945 87.6788 77.163 87.8047 76.9999 88.0001ZM104.585 87.5651C104.397 87.5933 104.221 87.6768 104.08 87.805C103.94 87.9332 103.84 88.1003 103.795 88.2851C103.635 88.8401 103.615 89.3351 103.2 89.7851C102.751 90.1384 102.348 90.5466 102 91.0001C101.942 91.1134 101.914 91.2397 101.92 91.3668C101.925 91.494 101.964 91.6175 102.031 91.7254C102.099 91.8332 102.193 91.9217 102.305 91.9821C102.417 92.0425 102.543 92.0729 102.67 92.0701C103.543 91.9628 104.342 91.5265 104.905 90.8501C104.805 89.9001 104.705 88.7851 104.59 87.5451L104.585 87.5651ZM102.085 83.4401C101.805 84.1201 101.855 84.8901 101.62 85.6001C101.414 86.251 101.168 86.8889 100.885 87.5101C100.675 87.9601 101.095 88.6701 101.64 88.4301C102.526 88.0898 103.251 87.4273 103.67 86.5751C104.05 85.7901 104.47 84.4701 104.105 83.6351C103.74 82.8001 102.5 82.4351 102.075 83.4201L102.085 83.4401ZM99.2349 90.2551C98.8194 90.792 98.2878 91.2278 97.6799 91.5301C97.535 91.5751 97.4014 91.6503 97.2878 91.7508C97.1743 91.8514 97.0834 91.9749 97.0212 92.1132C96.959 92.2515 96.9269 92.4015 96.9271 92.5531C96.9272 92.7048 96.9596 92.8547 97.0221 92.9929C97.0846 93.1311 97.1758 93.2544 97.2895 93.3547C97.4033 93.455 97.5371 93.5299 97.682 93.5746C97.827 93.6192 97.9797 93.6326 98.1302 93.6137C98.2807 93.5948 98.4255 93.5442 98.5549 93.4651C99.0722 93.2433 99.5347 92.9108 99.9096 92.491C100.285 92.0711 100.563 91.5742 100.725 91.0351C100.96 90.1701 99.7899 89.6051 99.2249 90.2351L99.2349 90.2551ZM94.6649 65.7551C94.9443 65.8142 95.2356 65.7629 95.478 65.6119C95.7204 65.4609 95.8948 65.2219 95.9649 64.9451C96.2449 63.8701 95.2849 62.7651 94.5249 62.0951C93.7649 61.4251 92.6949 60.8151 91.6299 61.1601C91.4881 61.2061 91.3604 61.2875 91.2589 61.3966C91.1574 61.5057 91.0855 61.639 91.0499 61.7837C91.0144 61.9285 91.0164 62.0799 91.0557 62.2236C91.0951 62.3674 91.1705 62.4987 91.2749 62.6051C91.7399 63.1851 92.3849 63.6051 92.8799 64.1751C93.3749 64.7451 93.7849 65.5901 94.6549 65.7351L94.6649 65.7551ZM98.4999 70.0001C98.9199 69.3951 98.5949 68.5001 98.2949 67.9251C98.1351 67.6079 97.8868 67.3439 97.5799 67.1651C97.3734 67.033 97.123 66.9877 96.8833 67.0392C96.6436 67.0907 96.4339 67.2348 96.2999 67.4401C96.1635 67.7244 96.142 68.0504 96.2399 68.3501C96.2817 68.5069 96.3386 68.6593 96.4099 68.8051V68.8501V68.8901C96.4993 69.3676 96.7015 69.8168 96.9999 70.2001C97.1032 70.3041 97.2291 70.3828 97.3678 70.43C97.5065 70.4772 97.6543 70.4917 97.7995 70.4724C97.9448 70.453 98.0836 70.4003 98.2051 70.3184C98.3266 70.2364 98.4275 70.1275 98.4999 70.0001ZM101.08 66.4201C100.982 65.185 100.499 64.0116 99.6999 63.0651C99.0999 62.2901 98.0599 61.0651 96.9599 61.3301C96.843 61.3666 96.7409 61.4399 96.6689 61.5389C96.5968 61.638 96.5586 61.7576 96.5599 61.8801C96.4899 62.7251 97.4599 63.6301 97.8799 64.3051C98.3799 65.1551 98.7749 66.0951 99.3149 66.9401C99.4326 67.1043 99.5991 67.2271 99.7907 67.2911C99.9823 67.3551 100.189 67.3571 100.382 67.2967C100.575 67.2364 100.744 67.1167 100.864 66.9548C100.985 66.7929 101.052 66.5971 101.055 66.3951L101.08 66.4201ZM97.3049 74.9801C97.4877 75.0201 97.677 75.0201 97.8599 74.9801C98.1371 74.8948 98.3713 74.7071 98.5149 74.4551C98.6492 74.1869 98.7162 73.89 98.7099 73.5901C98.7008 73.306 98.6237 73.0282 98.4849 72.7801L98.3199 72.5751L98.0999 72.4151C97.9623 72.3441 97.8104 72.3051 97.6556 72.3009C97.5009 72.2967 97.3471 72.3274 97.2058 72.3909C97.0646 72.4543 96.9394 72.5488 96.8397 72.6672C96.74 72.7857 96.6683 72.9251 96.6299 73.0751C96.5467 73.3663 96.4881 73.664 96.4549 73.9651L96.4999 74.2401C96.5349 74.3781 96.6036 74.5052 96.6999 74.6101C96.8509 74.7847 97.0544 74.9057 97.2799 74.9551L97.3049 74.9801ZM100.755 71.7951C100.95 71.785 101.137 71.7126 101.288 71.5884C101.44 71.4642 101.547 71.2948 101.595 71.1051C101.673 70.7169 101.647 70.3151 101.52 69.9401C101.445 69.583 101.272 69.2539 101.02 68.9901C100.93 68.9066 100.819 68.848 100.7 68.8199C100.58 68.7919 100.455 68.7955 100.337 68.8302C100.219 68.865 100.112 68.9298 100.027 69.0183C99.9413 69.1068 99.8804 69.216 99.8499 69.3351C99.8099 69.6271 99.8099 69.9231 99.8499 70.2151C99.8499 70.3401 99.8499 70.4651 99.8499 70.5951C99.8473 70.7835 99.8675 70.9715 99.9099 71.1551C99.9659 71.33 100.075 71.4832 100.222 71.5934C100.369 71.7036 100.546 71.7654 100.73 71.7701L100.755 71.7951Z" fill="#333333" fill-opacity="0.2"/>
<path d="M99.0001 63.3901C97.0951 63.2151 94.6551 59.1451 94.1901 56.5601C94.1601 56.3801 94.9201 54.8751 95.7551 53.0051C96.2551 51.8701 96.7951 50.5901 97.1951 49.3901L104.115 53.7451C103.181 55.1036 102.417 56.5711 101.84 58.1151C101.788 58.2781 101.752 58.4455 101.73 58.6151C101.732 58.6434 101.732 58.6718 101.73 58.7001C101.555 59.7001 100.845 63.5601 99.0001 63.3901Z" fill="#D3766A"/>
<path d="M101.73 58.6251C101.732 58.6534 101.732 58.6817 101.73 58.7101C101.463 58.6579 101.201 58.586 100.945 58.4951C96.615 56.9351 97.38 51.2551 97.685 49.6851L99.41 50.7751L104.135 53.7751C103.202 55.1329 102.439 56.6007 101.865 58.1451C101.805 58.3006 101.76 58.4613 101.73 58.6251Z" fill="#333333"/>
<path d="M97.9201 41.375C96.4901 43.95 96.2401 52.22 97.8251 54.415C100.115 57.595 104.715 58.835 107.63 55.915C110.455 53.055 110.585 42.27 108.745 40.19C106.025 37.1 100.03 37.57 97.9201 41.375Z" fill="#D3766A"/>
<path d="M104.56 48.0601C104.56 48.0601 104.515 48.0601 104.515 48.1101C104.515 48.6801 104.415 49.3301 103.895 49.5001V49.5351C104.53 49.4651 104.65 48.6001 104.56 48.0601Z" fill="#333333"/>
<path d="M104.075 47.45C103.16 47.35 103.025 49.18 103.87 49.275C104.715 49.37 104.84 47.535 104.075 47.45Z" fill="#333333"/>
<path d="M107.84 48.2551C107.84 48.2551 107.88 48.2851 107.88 48.3101C107.815 48.8751 107.84 49.5351 108.335 49.7601C108.335 49.7601 108.335 49.8001 108.335 49.7951C107.71 49.6551 107.69 48.7801 107.84 48.2551Z" fill="#333333"/>
<path d="M108.395 47.7051C109.31 47.7051 109.235 49.5401 108.395 49.5401C107.555 49.5401 107.625 47.7001 108.395 47.7051Z" fill="#333333"/>
<path d="M104.815 47.08C104.56 47.135 104.315 47.14 104.065 47.17C103.806 47.2377 103.532 47.2184 103.285 47.115C103.213 47.0676 103.159 46.9977 103.131 46.9163C103.103 46.8349 103.103 46.7466 103.13 46.665C103.212 46.5158 103.332 46.391 103.478 46.3032C103.623 46.2154 103.79 46.1677 103.96 46.165C104.305 46.0986 104.663 46.1665 104.96 46.355C105.022 46.4014 105.069 46.4644 105.097 46.5366C105.124 46.6088 105.131 46.6873 105.116 46.7631C105.101 46.8389 105.064 46.9088 105.011 46.9649C104.958 47.021 104.89 47.0609 104.815 47.08Z" fill="#333333"/>
<path d="M109.215 46C108.972 45.9319 108.734 45.8501 108.5 45.755C108.237 45.7054 107.998 45.57 107.82 45.37C107.776 45.2967 107.757 45.2107 107.767 45.1256C107.777 45.0404 107.815 44.961 107.875 44.9C108.012 44.7956 108.174 44.7303 108.345 44.7109C108.516 44.6915 108.688 44.7189 108.845 44.79C109.183 44.8825 109.475 45.096 109.665 45.39C109.705 45.4598 109.723 45.5395 109.718 45.6195C109.713 45.6996 109.686 45.7765 109.638 45.841C109.59 45.9055 109.525 45.9549 109.45 45.9831C109.375 46.0113 109.293 46.0172 109.215 46Z" fill="#333333"/>
<path d="M104.145 52.5702C104.881 52.3939 105.649 52.3939 106.385 52.5702C106.45 52.5702 106.515 52.4402 106.53 52.3802L106.57 51.1802C106.725 51.2702 107.505 51.6802 107.505 51.4602C107.586 49.5098 107.467 47.5562 107.15 45.6302C107.147 45.619 107.14 45.6092 107.13 45.6022C107.121 45.5953 107.109 45.5916 107.098 45.5916C107.086 45.5916 107.074 45.5953 107.065 45.6022C107.056 45.6092 107.049 45.619 107.045 45.6302C106.965 47.4352 107.195 49.2352 107.14 51.0502C106.864 50.8973 106.568 50.7845 106.26 50.7152C106.195 50.7152 106.26 51.9902 106.26 52.1802C105.572 51.9431 104.818 51.9844 104.16 52.2952C103.9 52.4602 103.795 52.6802 104.145 52.5702Z" fill="#333333"/>
<path d="M102.665 53.76C102.79 53.9 102.915 54.09 103.115 54.12C103.325 54.13 103.535 54.0942 103.73 54.015C103.73 54.015 103.765 54.015 103.73 54.045C103.644 54.1511 103.53 54.2315 103.402 54.2774C103.273 54.3232 103.134 54.3328 103 54.305C102.891 54.27 102.794 54.2043 102.721 54.1155C102.649 54.0268 102.603 53.919 102.59 53.805C102.6 53.75 102.645 53.74 102.665 53.76Z" fill="#333333"/>
<path opacity="0.2" d="M100.335 38.75C100.26 40.035 99.955 44.02 99.335 44.83C98.715 45.64 97.405 47.525 96.74 47.83C96.83 45.175 97.24 42.65 97.925 41.33C98.4866 40.2724 99.3181 39.3823 100.335 38.75Z" fill="#333333"/>
<path d="M107.46 42.6452C107.11 43.001 106.675 43.2614 106.197 43.4014C105.718 43.5415 105.211 43.5565 104.725 43.4451C104.227 43.3344 103.767 43.0973 103.387 42.7566C103.008 42.4159 102.723 41.9831 102.56 41.5001C102.56 41.4701 102.505 41.5001 102.515 41.5001C102.642 42.0216 102.91 42.4982 103.289 42.8782C103.668 43.2581 104.144 43.5269 104.665 43.6551C105.185 43.7545 105.722 43.7142 106.222 43.5386C106.722 43.363 107.166 43.0581 107.51 42.6551C107.54 42.6601 107.5 42.6152 107.46 42.6452Z" fill="#333333"/>
<path d="M104.95 35.2351C104.181 35.1831 103.412 35.3253 102.713 35.6486C102.014 35.9719 101.408 36.4659 100.95 37.0851C100.56 37.7152 100.394 38.4589 100.48 39.1951H100.545C100.554 38.5491 100.738 37.9176 101.077 37.3675C101.416 36.8175 101.897 36.3692 102.47 36.0701C103.096 35.7197 103.794 35.5188 104.511 35.4832C105.227 35.4477 105.942 35.5784 106.6 35.8651C107.247 36.1317 107.778 36.6189 108.1 37.2401C108.13 37.3051 108.26 37.2751 108.235 37.2101C107.825 36.1201 106.5 35.3101 104.95 35.2351Z" fill="#333333"/>
<path d="M114.5 39.5952C114.282 38.7487 113.772 38.0065 113.06 37.5002C112.06 36.7852 110.89 36.7952 109.72 36.8352C109.685 36.8352 109.69 36.8852 109.72 36.8802C110.715 36.7763 111.718 36.9621 112.61 37.4152C113.336 37.8507 113.889 38.5237 114.175 39.3202C114.447 40.1371 114.416 41.0249 114.086 41.8204C113.756 42.6159 113.15 43.2656 112.38 43.6502C111.931 43.8609 111.445 43.9777 110.949 43.9931C110.454 44.0086 109.961 43.9225 109.5 43.7402C109.465 43.7402 109.435 43.7752 109.47 43.7952C110.093 44.0705 110.781 44.1661 111.456 44.0711C112.131 43.9761 112.766 43.6942 113.289 43.2574C113.813 42.8205 114.203 42.2461 114.417 41.5989C114.631 40.9518 114.66 40.2577 114.5 39.5952Z" fill="#333333"/>
<path d="M97.4199 43C97.4199 43 96.0399 39.855 97.5149 38.205C98.3499 37.275 100.86 37.595 100.86 37.595C101.61 36.6432 102.707 36.0281 103.91 35.885C106.055 35.55 108.5 37 108.5 37C108.5 37 110.59 36 112.385 37.215C114.885 38.91 114.26 42.875 111.53 43.955C109.61 44.72 107.22 42.89 107.22 42.89C106.98 42.89 104.39 44.21 102.685 41.86C102.685 41.86 101.065 43.095 99.7699 42.045C99.5236 42.4262 99.166 42.7223 98.7455 42.8932C98.3251 43.064 97.8622 43.1013 97.4199 43Z" fill="#333333"/>
<path d="M98.235 48.2251C98.235 48.2251 96.925 45.2901 95.63 45.7251C94.335 46.1601 94.965 50.1501 96.245 50.9301C96.401 51.0386 96.5772 51.1147 96.7631 51.1538C96.949 51.193 97.1409 51.1944 97.3274 51.158C97.5139 51.1217 97.6912 51.0482 97.8488 50.9421C98.0065 50.836 98.1412 50.6993 98.245 50.5401L98.235 48.2251Z" fill="#D3766A"/>
<path d="M95.8401 46.855V46.89C96.7301 47.465 97.0651 48.46 97.2401 49.455C97.2025 49.3478 97.142 49.25 97.0629 49.1684C96.9838 49.0869 96.8879 49.0235 96.7819 48.9826C96.6758 48.9417 96.5622 48.9243 96.4488 48.9316C96.3354 48.9389 96.225 48.9708 96.1251 49.025C96.0951 49.025 96.1251 49.08 96.1251 49.08C96.3072 49.0589 96.4913 49.0959 96.6511 49.1857C96.811 49.2755 96.9383 49.4135 97.0151 49.58C97.1508 49.8504 97.2548 50.1357 97.3251 50.43C97.3251 50.525 97.5151 50.51 97.5051 50.43C97.7601 49.14 97.1351 47.235 95.8401 46.855Z" fill="#333333"/>
<path d="M167.539 54.0503L113.708 70.5391L123.413 102.226L177.245 85.7372L167.539 54.0503Z" fill="#048CFC"/>
<path opacity="0.2" d="M167.539 54.0503L113.708 70.5391L123.413 102.226L177.245 85.7372L167.539 54.0503Z" fill="#333333"/>
<path opacity="0.2" d="M167.536 54.0507L149.446 59.5918L159.152 91.2787L177.242 85.7375L167.536 54.0507Z" fill="#333333"/>
<path d="M166.67 55.665C166.06 58.4717 165.467 61.2784 164.89 64.085L163.185 72.525L161.535 81C160.995 83.82 160.468 86.645 159.955 89.475C160.565 86.6717 161.158 83.865 161.735 81.055L163.44 72.615L165.09 64.16C165.63 61.3267 166.157 58.495 166.67 55.665Z" fill="#048CFC"/>
<path d="M175.555 84.6751C173.555 82.6217 171.537 80.5767 169.5 78.5401L163.4 72.46L157.26 66.4251C155.207 64.4251 153.143 62.425 151.07 60.425C153.07 62.4817 155.088 64.5267 157.125 66.56L163.225 72.64L169.365 78.6751C171.422 80.6951 173.485 82.6951 175.555 84.6751Z" fill="#048CFC"/>
<path d="M124.047 74.6225L124.343 74.5317L123.068 70.3677L122.771 70.4585L124.047 74.6225Z" fill="#333333"/>
<path d="M123.343 74.834L123.639 74.7432L122.363 70.5791L122.067 70.6699L123.343 74.834Z" fill="#333333"/>
<path d="M122.632 75.0608L122.928 74.97L121.653 70.8059L121.356 70.8967L122.632 75.0608Z" fill="#333333"/>
<path d="M121.929 75.2646L122.225 75.1738L120.95 71.0096L120.654 71.1003L121.929 75.2646Z" fill="#333333"/>
<path d="M121.219 75.4851L121.515 75.3943L120.24 71.2302L119.944 71.321L121.219 75.4851Z" fill="#333333"/>
<path d="M120.513 75.6967L120.81 75.606L119.534 71.4419L119.238 71.5327L120.513 75.6967Z" fill="#333333"/>
<path d="M119.8 75.9297L120.096 75.8389L118.82 71.6748L118.524 71.7656L119.8 75.9297Z" fill="#333333"/>
<path d="M119.093 76.1399L119.389 76.0491L118.113 71.8853L117.817 71.9761L119.093 76.1399Z" fill="#333333"/>
<path d="M118.38 76.3645L118.677 76.2737L117.401 72.1096L117.105 72.2004L118.38 76.3645Z" fill="#333333"/>
<path d="M126.065 69.795L124.835 69.825L127.5 69L126.46 69.67L126.93 71.2C127.775 71.055 128.345 71.76 128.775 73.16L126.11 74C125.68 72.605 125.755 71.7 126.535 71.345L126.065 69.795Z" fill="#333333"/>
<path d="M128.745 70.8601L129.44 70.6451L128.815 68.6051L130.595 68.0601L131.22 70.1001L131.92 69.8851L130.98 72.4951L128.745 70.8601Z" fill="#333333"/>
<path opacity="0.1" d="M113.71 70.54L114.505 73.14L151.715 67L149.445 59.595L113.71 70.54Z" fill="#333333"/>
<path d="M184.22 89.3301L166.125 94.8701L159.15 91.2801L177.245 85.7351L184.22 89.3301Z" fill="#048CFC"/>
<path opacity="0.2" d="M184.22 89.3301L166.125 94.8701L159.15 91.2801L177.245 85.7351L184.22 89.3301Z" fill="#333333"/>
<path d="M119.645 109.11L137.74 103.565L141.505 96.6851L123.41 102.225L119.645 109.11Z" fill="#048CFC"/>
<path opacity="0.1" d="M119.645 109.11L137.74 103.565L141.505 96.6851L123.41 102.225L119.645 109.11Z" fill="#333333"/>
<path d="M89.8649 65.6502C92.5099 74.4952 99.8649 89.6502 102.595 91.5002C105 93.1552 116.545 91.6502 121.595 90.5552C123.485 90.1502 119.595 75.7202 117.595 76.1952C115.175 76.7702 107.97 78.1952 107.46 77.8002C106.95 77.4052 99.9599 68.3002 94.9599 62.9602C90.4199 58.1002 88.8649 62.3052 89.8649 65.6502Z" fill="#D3766A"/>
<path d="M116.555 77.37C116.555 77.37 120.38 73.06 123.09 71.415C125.951 69.7777 129.166 68.8597 132.46 68.74C136.015 68.6 144.71 70.71 144.535 73.32C144.38 75.685 135.605 73.075 135.605 73.075C135.605 73.075 144.99 74.26 144.28 77.075C143.57 79.89 133.555 76.275 133.555 76.275C133.555 76.275 143.17 77.705 142 80.5C141.1 82.605 131.845 79.845 131.845 79.845C131.845 79.845 140.105 81.135 139.27 83.345C138.35 85.78 129.645 83.77 129.645 83.77C126.59 89.01 122.985 90.27 120.32 90.835C119.655 90.95 116.555 77.37 116.555 77.37Z" fill="#D3766A"/>
<path d="M132.385 72.4551C133.49 72.5551 134.615 72.6501 135.71 72.8451C136.805 73.0401 137.89 73.2801 138.965 73.5801C140.373 73.942 141.735 74.4637 143.025 75.1351C140.65 74.1101 136.74 73.3401 135.645 73.1351C134.55 72.9301 133.465 72.6851 132.375 72.4901C132.345 72.5001 132.355 72.4551 132.385 72.4551Z" fill="#333333"/>
<path d="M131.6 76.4001C133.005 76.5851 134.415 76.7201 135.815 76.9701C137.215 77.2201 138.51 77.5801 139.885 77.9251C139.99 77.9501 139.94 78.0001 139.835 77.9751C138.445 77.6851 137.145 77.5251 135.755 77.2551C134.365 76.9851 132.985 76.6551 131.59 76.4301C131.57 76.4301 131.575 76.3951 131.6 76.4001Z" fill="#333333"/>
<path d="M130.315 79.6602C132.483 79.8955 134.621 80.3546 136.695 81.0301C136.8 81.0601 136.73 81.1151 136.62 81.0901C134.51 80.5901 132.855 80.1901 130.31 79.7351C130.27 79.7301 130.27 79.6552 130.315 79.6602Z" fill="#333333"/>
<path d="M120.45 93.1151L117.09 75.8551L107.725 77.3251C104.145 73.0251 96.995 64.4251 94.075 61.8251C90.65 58.7701 88.305 60.9501 89.48 65.4751C92.17 75.8201 100.33 91.1001 102.54 92.6001C105.71 94.7501 120.45 93.1151 120.45 93.1151Z" fill="#048CFC"/>
<path opacity="0.1" d="M114.11 78.2501C114.572 78.3505 115.042 78.4058 115.515 78.4151C116.515 78.5501 116.955 80.0251 116.045 80.5851C115.567 80.8794 115.027 81.0576 114.468 81.1054C113.908 81.1532 113.346 81.0691 112.825 80.8601C111.825 80.4701 110.98 79.5001 111.195 78.3601C111.232 78.1476 111.324 77.9483 111.461 77.7817C111.598 77.6151 111.776 77.4867 111.977 77.4092C112.178 77.3317 112.396 77.3076 112.61 77.3393C112.823 77.371 113.025 77.4574 113.195 77.5901C113.472 77.8464 113.779 78.068 114.11 78.2501ZM113.11 76.4801C113.424 76.6313 113.769 76.7048 114.117 76.6944C114.465 76.6839 114.806 76.5898 115.11 76.4201C115.222 76.3453 115.312 76.2416 115.37 76.1201L113.11 76.4801ZM108.245 77.2401C108.643 77.5309 109.135 77.6644 109.625 77.6151C109.794 77.5919 109.95 77.5101 110.065 77.3841C110.18 77.258 110.247 77.0956 110.255 76.9251L108.245 77.2401ZM118.845 84.9451C118.647 85.028 118.487 85.1812 118.395 85.3751C117.975 86.2201 118.56 87.1301 119.395 87.6751L118.845 84.9451ZM103.785 88.2651C103.625 88.8201 103.605 89.3151 103.19 89.7651C102.743 90.1252 102.343 90.5402 102 91.0001C101.942 91.1133 101.914 91.2397 101.92 91.3668C101.925 91.494 101.964 91.6175 102.031 91.7253C102.099 91.8332 102.193 91.9216 102.305 91.9821C102.417 92.0425 102.543 92.0728 102.67 92.0701C103.541 91.9629 104.34 91.5323 104.909 90.8637C105.478 90.195 105.774 89.3372 105.74 88.4601C105.712 88.2353 105.608 88.0268 105.446 87.8686C105.284 87.7103 105.073 87.6118 104.848 87.5892C104.622 87.5665 104.396 87.6211 104.206 87.7439C104.015 87.8666 103.872 88.0504 103.8 88.2651H103.785ZM102.06 83.4201C101.78 84.1001 101.83 84.8701 101.595 85.5801C101.389 86.231 101.143 86.8688 100.86 87.4901C100.65 87.9401 101.07 88.6501 101.615 88.4101C102.501 88.0698 103.226 87.4073 103.645 86.5551C104.025 85.7701 104.445 84.4501 104.08 83.6151C103.715 82.7801 102.5 82.4351 102.075 83.4201H102.06ZM94.64 65.7351C94.9194 65.7942 95.2108 65.7429 95.4531 65.5919C95.6955 65.4409 95.87 65.2019 95.94 64.9251C96.22 63.8501 95.26 62.7451 94.5 62.0751C93.74 61.4051 92.67 60.7951 91.605 61.1401C91.4632 61.186 91.3355 61.2674 91.234 61.3766C91.1325 61.4857 91.0606 61.619 91.025 61.7637C90.9895 61.9084 90.9915 62.0599 91.0308 62.2036C91.0702 62.3474 91.1457 62.4787 91.25 62.5851C91.715 63.1651 92.36 63.5851 92.855 64.1551C93.35 64.7251 93.785 65.5901 94.655 65.7351H94.64ZM98.5 70.0001C98.92 69.3951 98.595 68.5001 98.295 67.9251C98.1352 67.6079 97.8869 67.3439 97.58 67.1651C97.3735 67.0329 97.1231 66.9877 96.8834 67.0392C96.6437 67.0907 96.434 67.2348 96.3 67.4401C96.1636 67.7244 96.1421 68.0503 96.24 68.3501C96.2818 68.5069 96.3387 68.6593 96.41 68.8051V68.8501V68.8901C96.4994 69.3676 96.7017 69.8167 97 70.2001C97.1033 70.3041 97.2292 70.3827 97.3679 70.43C97.5066 70.4772 97.6544 70.4917 97.7996 70.4723C97.9449 70.453 98.0837 70.4003 98.2052 70.3183C98.3267 70.2364 98.4276 70.1275 98.5 70.0001ZM97.305 75.0001C97.4878 75.04 97.6772 75.04 97.86 75.0001C98.1372 74.9148 98.3714 74.727 98.515 74.4751C98.6493 74.2069 98.7163 73.91 98.71 73.6101C98.7009 73.326 98.6238 73.0482 98.485 72.8001L98.32 72.5951L98.1 72.4351C97.9624 72.3641 97.8105 72.3251 97.6557 72.3209C97.501 72.3167 97.3472 72.3474 97.206 72.4109C97.0647 72.4743 96.9396 72.5687 96.8398 72.6872C96.7401 72.8057 96.6684 72.9451 96.63 73.0951C96.5468 73.3863 96.4882 73.684 96.455 73.9851L96.5 74.2601C96.535 74.3981 96.6037 74.5252 96.7 74.6301C96.8539 74.7973 97.0571 74.9111 97.28 74.9551L97.305 75.0001ZM101.5 69.9251L100.5 68.8001C100.34 68.7811 100.179 68.8215 100.047 68.9137C99.9153 69.0059 99.822 69.1435 99.785 69.3001C99.745 69.5921 99.745 69.8881 99.785 70.1801C99.785 70.3051 99.785 70.4301 99.785 70.5601C99.7824 70.7485 99.8026 70.9365 99.845 71.1201C99.8997 71.3104 100.017 71.4769 100.177 71.5929C100.337 71.7089 100.532 71.7678 100.73 71.7601C100.925 71.75 101.112 71.6775 101.264 71.5534C101.415 71.4292 101.522 71.2598 101.57 71.0701C101.645 70.6887 101.621 70.2945 101.5 69.9251Z" fill="#333333" fill-opacity="0.2"/>
<path d="M117.22 91.5302C116.815 90.5052 115.865 86.0552 115.64 84.9402C115.415 83.8252 114.67 79.3452 114.445 78.2002C114.445 78.1402 114.515 78.1002 114.53 78.1652C114.77 79.2902 115.875 83.7252 116.11 84.8352C116.345 85.9452 117.24 90.3952 117.28 91.5152C117.282 91.5231 117.281 91.5316 117.277 91.5386C117.272 91.5456 117.266 91.5507 117.258 91.5527C117.25 91.5547 117.241 91.5534 117.234 91.5492C117.227 91.545 117.222 91.5381 117.22 91.5302Z" fill="#333333"/>
<path d="M114.13 93.6002C112.595 93.6902 111.06 93.7251 109.525 93.7151C107.984 93.7219 106.445 93.6334 104.915 93.4501C104.131 93.3726 103.365 93.17 102.645 92.8502C101.998 92.3932 101.436 91.8263 100.985 91.1752C100.079 89.924 99.2583 88.6126 98.5299 87.2502C97.0299 84.5552 95.7399 81.7502 94.4799 78.9602C93.2199 76.1702 92.0749 73.3002 91.0249 70.4102C92.2999 73.2052 93.5599 76.0052 94.8699 78.7802C96.1799 81.5552 97.5049 84.3202 98.9349 87.0252C99.6486 88.3744 100.436 89.6831 101.295 90.9452C101.696 91.5735 102.203 92.1269 102.795 92.5802C103.477 92.8946 104.204 93.0988 104.95 93.1852C107.995 93.5541 111.064 93.6928 114.13 93.6002Z" fill="#333333"/>
<path d="M92.0001 72.8501C91.7947 72.6427 91.6089 72.4168 91.4451 72.1751C91.2754 71.9359 91.1454 71.6708 91.0601 71.3901C91.1354 71.5143 91.2172 71.6345 91.3051 71.7501L91.5501 72.1051C91.7146 72.3444 91.8649 72.5931 92.0001 72.8501Z" fill="#333333"/>
<path d="M99.895 68.2151C101.16 69.4851 102.295 70.8801 103.47 72.2151C104.645 73.5501 105.77 74.9601 106.97 76.2901L107.415 76.7901C107.495 76.8651 107.57 76.9501 107.645 77.0201C107.72 77.0901 107.72 77.0851 107.755 77.1151C107.755 77.1151 107.79 77.1151 107.81 77.1151C108.19 77.1151 108.67 77.0301 109.1 76.9751L111.76 76.5801C113.53 76.3201 115.305 76.0501 117.08 75.8101L117.15 76.2501L117.045 75.8151H117.07C115.315 76.1901 113.57 76.5251 111.79 76.8501C110.905 77.0101 110.02 77.1501 109.13 77.2851C108.675 77.3641 108.216 77.4175 107.755 77.4451C107.719 77.4498 107.682 77.4498 107.645 77.4451C107.596 77.4304 107.55 77.4066 107.51 77.3751C107.46 77.3359 107.411 77.2942 107.365 77.2501L107.12 77.0101C106.96 76.8451 106.81 76.6801 106.66 76.5101C105.485 75.1451 104.345 73.7651 103.225 72.3651L101.55 70.2601C101 69.6051 100.5 68.8851 99.895 68.2151Z" fill="#333333"/>
<path d="M100.55 68.365C100.738 68.5963 100.906 68.844 101.05 69.105C101.191 69.3628 101.291 69.6412 101.345 69.93C101.285 69.795 101.21 69.675 101.14 69.545L100.935 69.16C100.793 68.9021 100.664 68.6367 100.55 68.365Z" fill="#333333"/>
<path d="M40.58 199.11C40.3949 194.431 40.46 189.746 40.775 185.075C41.4645 175.447 42.9344 165.89 45.17 156.5C46.395 151.21 47.905 146 49.48 140.81C49.525 140.655 49.775 140.7 49.735 140.86C44.87 159.18 40.875 178.09 41.15 197.13C41.23 202.46 41.845 207.695 42.35 212.99C42.35 213.135 42.13 213.19 42.1 213.045C41.095 208.5 40.77 203.74 40.58 199.11Z" fill="#048CFC"/>
<path d="M49.7352 140.835C49.7352 140.835 57.1052 159.545 55.4552 163.94C53.8052 168.335 50.4002 169.275 50.4002 169.275C50.4002 169.275 54.9002 175.715 51.7602 181.775C48.6202 187.835 41.6102 187.525 41.1402 194.375C41.1402 194.355 40.7502 165.725 49.7352 140.835Z" fill="#048CFC"/>
<path d="M41.945 182.535C41.9327 182.503 41.9327 182.467 41.945 182.435C42.917 169.662 45.3169 157.038 49.1 144.8C49.1 144.765 49.17 144.775 49.16 144.8C47.7 150.27 46.41 155.77 45.29 161.3C46.2749 160.365 47.4781 159.691 48.79 159.34C48.79 159.34 48.825 159.34 48.79 159.375C47.4053 159.887 46.1614 160.72 45.16 161.805C44.9467 162.885 44.7383 163.97 44.535 165.06C46.18 163.22 48.465 162.305 50.75 161.435C50.78 161.435 50.8 161.475 50.75 161.485C48.37 162.455 45.995 163.705 44.385 165.755C43.8183 168.858 43.3183 171.973 42.885 175.1C44.0766 173.858 45.6036 172.99 47.28 172.6C47.33 172.6 47.36 172.665 47.28 172.68C45.5498 173.18 44.002 174.172 42.825 175.535H42.795C42.6483 176.635 42.51 177.737 42.38 178.84C43.3298 178.056 44.4025 177.434 45.555 177C45.585 177 45.6 177.035 45.555 177.045C44.4264 177.545 43.3928 178.237 42.5 179.09C42.5 179.09 42.5 179.09 42.46 179.09C42.34 180.135 42.215 181.185 42.11 182.235C43.7705 180.229 45.9244 178.691 48.36 177.77C48.3649 177.768 48.3702 177.767 48.3755 177.767C48.3808 177.767 48.386 177.768 48.3909 177.77C48.3958 177.772 48.4002 177.775 48.4039 177.779C48.4076 177.783 48.4105 177.788 48.4125 177.792C48.4145 177.797 48.4154 177.803 48.4154 177.808C48.4153 177.813 48.4142 177.819 48.4121 177.823C48.41 177.828 48.407 177.833 48.4032 177.836C48.3994 177.84 48.3949 177.843 48.39 177.845C45.9843 178.905 43.8708 180.531 42.23 182.585C42.2131 182.609 42.1889 182.627 42.1609 182.636C42.1329 182.645 42.1027 182.645 42.075 182.635C41.915 184.245 41.77 185.86 41.655 187.475H41.615C41.695 185.84 41.81 184.185 41.945 182.535Z" fill="#333333"/>
<path d="M47.8652 157.5C49.1995 156.669 50.7248 156.193 52.2952 156.12C52.3302 156.12 52.3352 156.17 52.2952 156.175C50.7783 156.456 49.3054 156.936 47.9152 157.605C47.9021 157.607 47.8885 157.606 47.8766 157.6C47.8647 157.594 47.8551 157.584 47.8493 157.572C47.8436 157.56 47.842 157.546 47.8449 157.533C47.8478 157.52 47.8549 157.508 47.8652 157.5Z" fill="#333333"/>
<path d="M46.97 177.305C47.9962 176.719 49.1247 176.334 50.295 176.17C50.335 176.17 50.34 176.225 50.295 176.23C49.1485 176.46 48.0395 176.849 47 177.385C46.965 177.405 46.925 177.33 46.97 177.305Z" fill="#333333"/>
<path d="M21.205 164.245C24.3213 166.401 27.1829 168.904 29.735 171.705C32.3739 174.666 34.4117 178.111 35.735 181.85C38.5317 189.642 40.0365 197.838 40.19 206.115C40.2858 210.699 39.8445 215.278 38.875 219.76C38.8665 219.791 38.8466 219.818 38.8192 219.836C38.7918 219.853 38.7589 219.86 38.727 219.854C38.695 219.848 38.6663 219.831 38.6465 219.805C38.6267 219.779 38.6173 219.747 38.62 219.715C39.8277 211.806 39.7872 203.756 38.5 195.86C37.23 188.12 35.245 179.7 30.325 173.41C27.62 170 24.28 167.295 21 164.5C20.805 164.36 21.025 164.12 21.205 164.245Z" fill="#048CFC"/>
<path d="M39.0901 200.545C37.3175 197.674 35.2332 195.008 32.8751 192.595C29.1851 188.91 26.0801 186.29 25.6001 183.85C25.1201 181.41 29.2951 179.62 29.2951 179.62C29.2951 179.62 24.1901 180.535 22.7951 178.39C21.4001 176.245 20.7251 163.85 20.7251 163.85C20.7251 163.85 30.0001 170.5 34.3351 179.765C38.6701 189.03 39.0901 200.545 39.0901 200.545Z" fill="#048CFC"/>
<path d="M24.0401 175.5C24.651 175.412 25.2697 175.392 25.8851 175.44C25.9601 175.44 25.9551 175.57 25.8851 175.57C25.2751 175.57 24.6651 175.54 24.0501 175.57C24.0001 175.56 24.0001 175.5 24.0401 175.5Z" fill="#333333"/>
<path d="M30.7201 187.5C31.7016 187.521 32.6716 187.715 33.5851 188.075C33.5851 188.075 33.5851 188.12 33.5851 188.115C32.6401 187.89 31.6851 187.795 30.7301 187.64C30.6351 187.64 30.6401 187.5 30.7201 187.5Z" fill="#333333"/>
<path d="M32.7251 183.355C33.1328 183.352 33.5397 183.388 33.9401 183.465C33.9801 183.465 33.9751 183.54 33.9401 183.54C33.5341 183.56 33.1271 183.54 32.7251 183.48C32.7115 183.476 32.6996 183.468 32.6911 183.457C32.6826 183.445 32.678 183.432 32.678 183.417C32.678 183.403 32.6826 183.39 32.6911 183.378C32.6996 183.367 32.7115 183.359 32.7251 183.355Z" fill="#333333"/>
<path d="M66.3001 177.41C63.281 178.433 60.3875 179.795 57.6751 181.47C54.8665 183.264 52.4303 185.583 50.5001 188.3C46.4358 193.96 43.3231 200.246 41.2851 206.91C40.151 210.598 39.4496 214.405 39.1951 218.255C39.1951 218.284 39.2067 218.312 39.2273 218.333C39.2479 218.353 39.2759 218.365 39.3051 218.365C39.3342 218.365 39.3622 218.353 39.3829 218.333C39.4035 218.312 39.4151 218.284 39.4151 218.255C40.26 211.584 42.1445 205.087 45.0001 199C47.8151 193.03 51.3701 186.675 56.8051 182.725C59.7651 180.57 63.0901 179.165 66.4051 177.675C66.6001 177.595 66.5001 177.35 66.3001 177.41Z" fill="#048CFC"/>
<path d="M43.4402 202.65C45.537 200.735 47.8393 199.058 50.3052 197.65C54.1452 195.52 57.2602 194.115 58.2152 192.255C59.1702 190.395 56.2152 187.975 56.2152 187.975C56.2152 187.975 60.1302 189.895 61.7552 188.475C63.3802 187.055 66.7902 177.18 66.7902 177.18C66.7902 177.18 57.7502 180.4 52.1002 186.92C46.4502 193.44 43.4402 202.65 43.4402 202.65Z" fill="#048CFC"/>
<path d="M50.9451 193.57C51.8325 193.508 52.7236 193.616 53.5701 193.89C53.5701 193.89 53.5701 193.935 53.5701 193.93C52.705 193.785 51.8316 193.695 50.9551 193.66C50.9431 193.661 50.9312 193.658 50.9218 193.65C50.9124 193.643 50.9064 193.632 50.9051 193.62C50.9037 193.608 50.9072 193.596 50.9147 193.587C50.9222 193.577 50.9331 193.571 50.9451 193.57Z" fill="#333333"/>
<path d="M58.835 183.22C59.2396 183.191 59.6464 183.214 60.045 183.29C60.0526 183.293 60.0592 183.298 60.0639 183.305C60.0686 183.311 60.0711 183.319 60.0711 183.327C60.0711 183.336 60.0686 183.344 60.0639 183.35C60.0592 183.357 60.0526 183.362 60.045 183.365C59.65 183.32 59.255 183.335 58.855 183.325C58.8427 183.324 58.8309 183.32 58.8216 183.311C58.8123 183.303 58.806 183.292 58.8037 183.28C58.8014 183.268 58.8032 183.256 58.8089 183.245C58.8146 183.234 58.8237 183.225 58.835 183.22Z" fill="#333333"/>
<path d="M31.7751 230.725H52.1851L49.2751 209.4L48.5301 203.935H35.4301L34.6851 209.4L31.7751 230.725Z" fill="#333333"/>
<path d="M34.6851 209.4H49.2751L48.5301 203.935H35.4301L34.6851 209.4Z" fill="#333333"/>
<path d="M33.55 206.665H50.405V202.035H33.55V206.665Z" fill="#333333"/>
<path d="M140.5 30.3851C140.5 32.4428 139.928 34.4599 138.848 36.2115C137.768 37.9631 136.223 39.3802 134.385 40.3048C132.547 41.2294 130.488 41.625 128.438 41.4476C126.388 41.2702 124.427 40.5267 122.775 39.3001L117.33 40.6901L119.595 35.6251C118.798 34.1358 118.351 32.4844 118.288 30.7963C118.225 29.1083 118.548 27.4281 119.231 25.8836C119.915 24.3391 120.943 22.9708 122.235 21.8829C123.527 20.795 125.05 20.0161 126.689 19.6054C128.327 19.1947 130.038 19.163 131.691 19.5127C133.343 19.8625 134.894 20.5845 136.226 21.6238C137.557 22.6632 138.635 23.9925 139.375 25.5106C140.116 27.0288 140.501 28.6959 140.5 30.3851Z" fill="white"/>
<path d="M140.5 30.3801C140.499 32.4404 139.932 34.4608 138.86 36.2201C138.599 36.6637 138.312 37.0911 138 37.5001C137.668 37.8918 137.313 38.2625 136.935 38.6101C136.189 39.3134 135.347 39.9076 134.435 40.3751C133.52 40.8423 132.544 41.1789 131.535 41.3751C131.029 41.4759 130.516 41.5394 130 41.5651C129.486 41.6077 128.969 41.6077 128.455 41.5651C126.375 41.4038 124.381 40.6681 122.695 39.4401L122.845 39.4701L117.415 40.9001L116.975 41.0151L117.16 40.5951L119.405 35.5201V35.7301C118.588 34.212 118.132 32.5263 118.071 30.8035C118.011 29.0807 118.347 27.367 119.055 25.7951C119.764 24.2277 120.819 22.8413 122.14 21.7401C123.46 20.6552 125.009 19.8834 126.67 19.4824C128.33 19.0815 130.061 19.0619 131.73 19.4251C133.385 19.8015 134.934 20.5429 136.265 21.5951C137.589 22.6442 138.658 23.9797 139.392 25.5013C140.125 27.0229 140.504 28.691 140.5 30.3801ZM140.5 30.3801C140.499 27.8401 139.619 25.3786 138.01 23.4136C136.4 21.4486 134.16 20.1012 131.67 19.6001C130.032 19.274 128.341 19.3253 126.725 19.7501C125.115 20.166 123.621 20.9461 122.36 22.0301C121.11 23.126 120.114 24.4806 119.44 26.0001C118.776 27.5154 118.464 29.1619 118.53 30.8151C118.607 32.4519 119.044 34.0516 119.81 35.5001L119.865 35.6051L119.815 35.7101L117.53 40.7701L117.275 40.4701L122.73 39.1201H122.815L122.88 39.1701C124.497 40.3982 126.424 41.1513 128.445 41.3451C128.944 41.3819 129.446 41.3819 129.945 41.3451C131.473 41.2926 132.972 40.9124 134.34 40.2301C135.253 39.7858 136.095 39.2097 136.84 38.5201C137.218 38.1777 137.573 37.812 137.905 37.4251C138.224 37.0273 138.519 36.6116 138.79 36.1801C139.882 34.4404 140.473 32.4338 140.5 30.3801Z" fill="#333333"/>
<path d="M130.165 31.5852V32.8102C130.168 32.9326 130.147 33.0544 130.102 33.1682C130.056 33.282 129.988 33.3853 129.902 33.4719C129.815 33.5585 129.712 33.6265 129.598 33.6718C129.484 33.7171 129.362 33.7386 129.24 33.7352C129.119 33.7352 128.999 33.7112 128.887 33.6647C128.775 33.6181 128.673 33.5499 128.588 33.4639C128.502 33.378 128.435 33.276 128.389 33.1638C128.343 33.0516 128.319 32.9314 128.32 32.8102V30.8552C128.32 30.8552 128.32 30.8552 128.32 30.8152C128.32 30.7752 128.32 30.8152 128.32 30.7802C128.326 30.5377 128.425 30.3068 128.596 30.1348C128.767 29.9628 128.998 29.8628 129.24 29.8552C129.525 29.8691 129.811 29.8249 130.078 29.7252C130.346 29.6256 130.591 29.4726 130.798 29.2755C131.005 29.0785 131.17 28.8414 131.282 28.5788C131.395 28.3162 131.453 28.0334 131.453 27.7477C131.453 27.4619 131.395 27.1792 131.282 26.9165C131.17 26.6539 131.005 26.4169 130.798 26.2198C130.591 26.0227 130.346 25.8698 130.078 25.7701C129.811 25.6705 129.525 25.6263 129.24 25.6402C128.875 25.639 128.516 25.7341 128.199 25.9158C127.882 26.0974 127.619 26.3594 127.435 26.6752C127.373 26.7817 127.291 26.875 127.194 26.9498C127.096 27.0245 126.985 27.0793 126.866 27.1109C126.747 27.1425 126.623 27.1503 126.501 27.1338C126.379 27.1174 126.261 27.0771 126.155 27.0152C126.051 26.9534 125.96 26.8716 125.887 26.7744C125.814 26.6773 125.762 26.5668 125.732 26.4492C125.702 26.3317 125.696 26.2094 125.714 26.0894C125.731 25.9694 125.773 25.8542 125.835 25.7502C126.164 25.1838 126.628 24.708 127.187 24.3654C127.745 24.0228 128.379 23.8242 129.033 23.7875C129.687 23.7507 130.34 23.8769 130.933 24.1548C131.526 24.4326 132.041 24.8534 132.431 25.3794C132.822 25.9053 133.075 26.52 133.169 27.1682C133.263 27.8163 133.195 28.4777 132.97 29.0929C132.746 29.7081 132.372 30.2579 131.882 30.6929C131.392 31.1279 130.802 31.4345 130.165 31.5852ZM130.165 35.7102V36.0502C130.168 36.1722 130.146 36.2935 130.1 36.4067C130.055 36.5198 129.986 36.6226 129.9 36.7086C129.813 36.7947 129.71 36.8623 129.597 36.9072C129.483 36.9522 129.362 36.9736 129.24 36.9702C128.996 36.9702 128.762 36.8732 128.589 36.7007C128.417 36.5282 128.32 36.2942 128.32 36.0502V35.7102C128.323 35.4665 128.42 35.2335 128.592 35.0607C128.764 34.8879 128.996 34.7891 129.24 34.7852C129.362 34.7838 129.483 34.8068 129.596 34.8529C129.708 34.8989 129.811 34.967 129.897 35.0531C129.983 35.1393 130.051 35.2418 130.097 35.3546C130.143 35.4674 130.166 35.5883 130.165 35.7102Z" fill="#048CFC"/>
</svg>
