<svg width="3" height="12" viewBox="0 0 3 12" fill="none" xmlns="http://www.w3.org/2000/svg">
<path d="M2.12713 0.818182L1.96307 8.0071H0.362216L0.203125 0.818182H2.12713ZM1.16264 11.1094C0.861032 11.1094 0.60251 11.0033 0.387074 10.7912C0.174953 10.5791 0.0688921 10.3205 0.0688921 10.0156C0.0688921 9.71733 0.174953 9.46212 0.387074 9.25C0.60251 9.03788 0.861032 8.93182 1.16264 8.93182C1.45762 8.93182 1.71283 9.03788 1.92827 9.25C2.14702 9.46212 2.25639 9.71733 2.25639 10.0156C2.25639 10.2178 2.20502 10.4018 2.10227 10.5675C2.00284 10.7332 1.87027 10.8658 1.70455 10.9652C1.54214 11.0613 1.36151 11.1094 1.16264 11.1094Z" fill="#333333"/>
</svg>
