<svg width="50" height="50" viewBox="0 0 50 50" fill="none" xmlns="http://www.w3.org/2000/svg">
<path d="M25.052 9.32292C28.7325 9.32292 32.2047 10.1132 35.4686 11.6938C38.7325 13.2743 41.4582 15.5569 43.6457 18.5417C43.8888 18.8542 43.9672 19.1319 43.8811 19.375C43.795 19.6181 43.6471 19.8264 43.4374 20C43.2276 20.1736 42.9846 20.2521 42.7082 20.2354C42.4318 20.2188 42.1888 20.0708 41.979 19.7917C40.0693 17.0833 37.6131 15.009 34.6103 13.5688C31.6075 12.1285 28.4214 11.4076 25.052 11.4062C21.6825 11.4049 18.5228 12.1257 15.5728 13.5688C12.6228 15.0118 10.1749 17.0861 8.22904 19.7917C8.0207 20.1042 7.77765 20.2778 7.49987 20.3125C7.22209 20.3472 6.97904 20.2778 6.7707 20.1042C6.52765 19.9306 6.37973 19.7139 6.32695 19.4542C6.27417 19.1944 6.35265 18.925 6.56237 18.6458C8.71515 15.6944 11.4151 13.4028 14.6624 11.7708C17.9096 10.1389 21.3728 9.32292 25.052 9.32292ZM25.052 14.2188C29.7395 14.2188 33.7672 15.7812 37.1353 18.9063C40.5033 22.0312 42.1874 25.9028 42.1874 30.5208C42.1874 32.2569 41.5714 33.7069 40.3395 34.8708C39.1075 36.0347 37.6054 36.616 35.8332 36.6146C34.061 36.6132 32.5422 36.0319 31.277 34.8708C30.0117 33.7097 29.3776 32.2597 29.3749 30.5208C29.3749 29.375 28.9499 28.4111 28.0999 27.6292C27.2499 26.8472 26.2339 26.4569 25.052 26.4583C23.87 26.4597 22.854 26.8507 22.004 27.6313C21.154 28.4118 20.729 29.375 20.729 30.5208C20.729 33.8889 21.7276 36.7014 23.7249 38.9583C25.7221 41.2153 28.2999 42.7951 31.4582 43.6979C31.7707 43.8021 31.979 43.9757 32.0832 44.2188C32.1874 44.4618 32.2047 44.7222 32.1353 45C32.0658 45.2431 31.927 45.4514 31.7186 45.625C31.5103 45.7986 31.2499 45.8507 30.9374 45.7813C27.3263 44.8785 24.3749 43.0813 22.0832 40.3896C19.7915 37.6979 18.6457 34.4083 18.6457 30.5208C18.6457 28.7847 19.2707 27.3264 20.5207 26.1458C21.7707 24.9653 23.2811 24.375 25.052 24.375C26.8228 24.375 28.3332 24.9653 29.5832 26.1458C30.8332 27.3264 31.4582 28.7847 31.4582 30.5208C31.4582 31.6667 31.8922 32.6306 32.7603 33.4125C33.6283 34.1944 34.6526 34.5847 35.8332 34.5833C37.0138 34.5819 38.0207 34.1917 38.854 33.4125C39.6874 32.6333 40.104 31.6694 40.104 30.5208C40.104 26.4931 38.6283 23.1076 35.677 20.3646C32.7256 17.6215 29.2013 16.25 25.104 16.25C21.0068 16.25 17.4825 17.6215 14.5311 20.3646C11.5797 23.1076 10.104 26.4757 10.104 30.4688C10.104 31.3021 10.1825 32.3438 10.3395 33.5938C10.4964 34.8438 10.8693 36.3021 11.4582 37.9688C11.5624 38.2813 11.554 38.559 11.4332 38.8021C11.3124 39.0451 11.1124 39.2188 10.8332 39.3229C10.554 39.4271 10.2853 39.4188 10.027 39.2979C9.76862 39.1771 9.58598 38.9771 9.47904 38.6979C8.9582 37.3438 8.58529 35.9986 8.36029 34.6625C8.13529 33.3264 8.02209 31.9458 8.0207 30.5208C8.0207 25.9028 9.6964 22.0312 13.0478 18.9063C16.3992 15.7812 20.4006 14.2188 25.052 14.2188ZM25.052 4.21875C27.2742 4.21875 29.4443 4.4875 31.5624 5.025C33.6804 5.5625 35.729 6.33542 37.7082 7.34375C38.0207 7.51736 38.2033 7.72569 38.2561 7.96875C38.3089 8.21181 38.2825 8.45486 38.177 8.69792C38.0714 8.94097 37.8978 9.13194 37.6561 9.27083C37.4145 9.40972 37.1193 9.39236 36.7707 9.21875C34.9304 8.28125 33.029 7.56111 31.0665 7.05833C29.104 6.55556 27.0992 6.30347 25.052 6.30208C23.0381 6.30208 21.0589 6.53681 19.1145 7.00625C17.17 7.47569 15.3124 8.21319 13.5415 9.21875C13.2638 9.39236 12.986 9.43611 12.7082 9.35C12.4304 9.26389 12.2221 9.08125 12.0832 8.80208C11.9443 8.52292 11.9096 8.27153 11.979 8.04792C12.0485 7.82431 12.2221 7.62431 12.4999 7.44792C14.4443 6.40625 16.4756 5.60764 18.5936 5.05208C20.7117 4.49653 22.8645 4.21875 25.052 4.21875ZM25.052 19.2708C28.2811 19.2708 31.0589 20.3563 33.3853 22.5271C35.7117 24.6979 36.8749 27.3625 36.8749 30.5208C36.8749 30.8333 36.7797 31.0854 36.5895 31.2771C36.3992 31.4688 36.1471 31.5639 35.8332 31.5625C35.5554 31.5625 35.3124 31.4674 35.104 31.2771C34.8957 31.0868 34.7915 30.8347 34.7915 30.5208C34.7915 27.9167 33.8276 25.7382 31.8999 23.9854C29.9721 22.2326 27.6895 21.3556 25.052 21.3542C22.4145 21.3528 20.1492 22.2299 18.2561 23.9854C16.3631 25.741 15.4165 27.9194 15.4165 30.5208C15.4165 33.3333 15.9026 35.7208 16.8749 37.6833C17.8471 39.6458 19.2707 41.616 21.1457 43.5938C21.354 43.8021 21.4582 44.0451 21.4582 44.3229C21.4582 44.6007 21.354 44.8438 21.1457 45.0521C20.9374 45.2604 20.6943 45.3646 20.4165 45.3646C20.1388 45.3646 19.8957 45.2604 19.6874 45.0521C17.6388 42.8993 16.0679 40.7035 14.9749 38.4646C13.8818 36.2257 13.3346 33.5778 13.3332 30.5208C13.3332 27.3611 14.479 24.6958 16.7707 22.525C19.0624 20.3542 21.8228 19.2694 25.052 19.2708ZM24.9999 29.4792C25.3124 29.4792 25.5645 29.5833 25.7561 29.7917C25.9478 30 26.0429 30.2431 26.0415 30.5208C26.0415 33.125 26.979 35.2604 28.854 36.9271C30.729 38.5938 32.9165 39.4271 35.4165 39.4271C35.6249 39.4271 35.92 39.4097 36.3019 39.375C36.6839 39.3403 37.0832 39.2882 37.4999 39.2188C37.8124 39.1493 38.0818 39.1931 38.3082 39.35C38.5346 39.507 38.6818 39.741 38.7499 40.0521C38.8193 40.3299 38.7672 40.5729 38.5936 40.7813C38.42 40.9896 38.1943 41.1285 37.9165 41.1979C37.2915 41.3715 36.745 41.4674 36.277 41.4854C35.8089 41.5035 35.5221 41.5118 35.4165 41.5104C32.3263 41.5104 29.6436 40.4688 27.3686 38.3854C25.0936 36.3021 23.9568 33.6806 23.9582 30.5208C23.9582 30.2431 24.054 30 24.2457 29.7917C24.4374 29.5833 24.6888 29.4792 24.9999 29.4792Z" fill="#DFE2E4"/>
</svg>
