<svg width="24" height="24" viewBox="0 0 24 24" fill="none" xmlns="http://www.w3.org/2000/svg">
<path d="M12.0012 5.19046L20.5026 13.3149V20.9991C20.5026 21.2643 20.3973 21.5187 20.2097 21.7062C20.0222 21.8938 19.7678 21.9991 19.5026 21.9991H14.9998C14.9335 21.9991 14.8699 21.9728 14.823 21.9259C14.7761 21.879 14.7498 21.8154 14.7498 21.7491V15.3741C14.7498 15.142 14.6576 14.9195 14.4935 14.7554C14.3294 14.5913 14.1069 14.4991 13.8748 14.4991H10.1248C9.89274 14.4991 9.67018 14.5913 9.50609 14.7554C9.34199 14.9195 9.24981 15.142 9.24981 15.3741V21.7491C9.24981 21.8154 9.22347 21.879 9.17658 21.9259C9.1297 21.9728 9.06611 21.9991 8.99981 21.9991H4.49512C4.2299 21.9991 3.97555 21.8938 3.78801 21.7062C3.6005 21.5187 3.49514 21.2644 3.49512 20.9992C3.49512 20.9992 3.49512 20.9991 3.49512 20.9991L3.49651 13.315L12.0012 5.19046Z" stroke="#048CFC"/>
<path d="M23.0114 11.4445L19.5052 8.09016V3C19.5052 2.80109 19.4261 2.61032 19.2855 2.46967C19.1448 2.32902 18.9541 2.25 18.7552 2.25H16.5052C16.3063 2.25 16.1155 2.32902 15.9748 2.46967C15.8342 2.61032 15.7552 2.80109 15.7552 3V4.5L13.0402 1.90406C12.7861 1.64719 12.4083 1.5 12 1.5C11.5931 1.5 11.2163 1.64719 10.9622 1.90453L0.991893 11.4436C0.70033 11.7248 0.663768 12.1875 0.92908 12.4922C0.995704 12.5691 1.07728 12.6316 1.16884 12.676C1.26041 12.7204 1.36005 12.7457 1.46169 12.7503C1.56334 12.755 1.66487 12.7389 1.7601 12.7031C1.85533 12.6672 1.94228 12.6124 2.01564 12.5419L11.7422 3.2475C11.812 3.18074 11.9048 3.14348 12.0014 3.14348C12.098 3.14348 12.1908 3.18074 12.2606 3.2475L21.9881 12.5419C22.1314 12.6793 22.3234 12.7543 22.5218 12.7504C22.7203 12.7465 22.9092 12.6641 23.047 12.5212C23.3348 12.2231 23.3109 11.7309 23.0114 11.4445Z" fill="#048CFC"/>
</svg>
