<svg width="33" height="20" viewBox="0 0 33 20" fill="none" xmlns="http://www.w3.org/2000/svg">
<path d="M10.5745 9.4375L11.0512 8.55844L10.3955 8.20288L9.8678 8.72995L10.5745 9.4375ZM18.8723 13.9375L18.3956 14.8166L19.0741 15.1845L19.6019 14.6214L18.8723 13.9375ZM31.9995 0.967707C31.9816 0.415711 31.5197 -0.0173131 30.9677 0.000521541L21.9724 0.291155C21.4204 0.308989 20.9874 0.770929 21.0052 1.32293C21.023 1.87492 21.485 2.30795 22.037 2.29011L30.0328 2.03177L30.2912 10.0276C30.309 10.5796 30.7709 11.0126 31.3229 10.9948C31.8749 10.9769 32.3079 10.515 32.2901 9.96301L31.9995 0.967707ZM1.70666 19.7075L11.2811 10.145L9.8678 8.72995L0.293336 18.2925L1.70666 19.7075ZM10.0977 10.3166L18.3956 14.8166L19.3491 13.0584L11.0512 8.55844L10.0977 10.3166ZM19.6019 14.6214L31.7296 1.6839L30.2704 0.316096L18.1428 13.2536L19.6019 14.6214Z" fill="#048CFC"/>
</svg>
