<svg width="17" height="17" viewBox="0 0 17 17" fill="none" xmlns="http://www.w3.org/2000/svg">
<g clip-path="url(#clip0_1_4772)">
<path d="M16.9915 8.65953C16.9915 7.96305 16.9337 7.4548 16.8085 6.92773H8.66895V10.0713H13.4467C13.3504 10.8525 12.8302 12.029 11.6743 12.8196L11.6581 12.9248L14.2317 14.8729L14.41 14.8903C16.0475 13.4126 16.9915 11.2384 16.9915 8.65953Z" fill="#048CFC"/>
<path d="M8.66943 16.9419C11.0101 16.9419 12.9751 16.1889 14.4105 14.8901L11.6748 12.8194C10.9427 13.3183 9.96017 13.6665 8.66943 13.6665C6.37689 13.6665 4.43112 12.1889 3.73751 10.1465L3.63584 10.1549L0.959801 12.1785L0.924805 12.2736C2.35041 15.0407 5.27873 16.9419 8.66943 16.9419Z" fill="#048CFC"/>
<path d="M3.73741 10.146C3.55439 9.61892 3.44848 9.05416 3.44848 8.47064C3.44848 7.88706 3.55439 7.32236 3.72778 6.7953L3.72293 6.68305L1.01336 4.62695L0.924707 4.66816C0.337145 5.81643 0 7.1059 0 8.47064C0 9.83538 0.337145 11.1248 0.924707 12.2731L3.73741 10.146Z" fill="#FBBC05"/>
<path d="M8.66943 3.27535C10.2973 3.27535 11.3954 3.96243 12.0216 4.5366L14.4682 2.20241C12.9656 0.837672 11.0101 0 8.66943 0C5.27873 0 2.35041 1.90121 0.924805 4.66832L3.72788 6.79546C4.43112 4.75306 6.37689 3.27535 8.66943 3.27535Z" fill="#EB4335"/>
</g>
<defs>
<clipPath id="clip0_1_4772">
<rect width="17" height="17" fill="white"/>
</clipPath>
</defs>
</svg>
