<svg width="30" height="30" viewBox="0 0 30 30" fill="none" xmlns="http://www.w3.org/2000/svg">
<path d="M14.9998 1.05664L27.0748 8.02914V21.9716L14.9998 28.9441L2.9248 21.9716V8.02914L14.9998 1.05664ZM14.9998 3.94414L5.42481 9.47164V20.5291L14.9998 26.0566L24.5748 20.5291V9.47164L14.9998 3.94414ZM14.9998 11.2504C14.0052 11.2504 13.0514 11.6455 12.3482 12.3487C11.6449 13.052 11.2498 14.0058 11.2498 15.0004C11.2498 15.995 11.6449 16.9488 12.3482 17.652C13.0514 18.3553 14.0052 18.7504 14.9998 18.7504C15.9944 18.7504 16.9482 18.3553 17.6515 17.652C18.3547 16.9488 18.7498 15.995 18.7498 15.0004C18.7498 14.0058 18.3547 13.052 17.6515 12.3487C16.9482 11.6455 15.9944 11.2504 14.9998 11.2504ZM8.7498 15.0004C8.7498 13.3428 9.40829 11.7531 10.5804 10.581C11.7525 9.40887 13.3422 8.75039 14.9998 8.75039C16.6574 8.75039 18.2471 9.40887 19.4192 10.581C20.5913 11.7531 21.2498 13.3428 21.2498 15.0004C21.2498 16.658 20.5913 18.2477 19.4192 19.4198C18.2471 20.5919 16.6574 21.2504 14.9998 21.2504C13.3422 21.2504 11.7525 20.5919 10.5804 19.4198C9.40829 18.2477 8.7498 16.658 8.7498 15.0004Z" fill="#048CFC"/>
</svg>
