<svg width="25" height="25" viewBox="0 0 25 25" fill="none" xmlns="http://www.w3.org/2000/svg">
<circle cx="12.9365" cy="12.7773" r="11.25" fill="white" stroke="#333333" stroke-width="1.5"/>
<path d="M15.7506 14.1949C15.8066 13.7329 15.8486 13.2709 15.8486 12.7949C15.8486 12.3189 15.8066 11.8569 15.7506 11.3949H18.1162C18.2282 11.8429 18.2982 12.3119 18.2982 12.7949C18.2982 13.2779 18.2282 13.7469 18.1162 14.1949M14.5118 18.0869C14.9317 17.3099 15.2537 16.4699 15.4776 15.5949H17.5423C16.8642 16.7627 15.7885 17.6473 14.5118 18.0869ZM14.3368 14.1949H11.0613C10.9914 13.7329 10.9494 13.2709 10.9494 12.7949C10.9494 12.3189 10.9914 11.8499 11.0613 11.3949H14.3368C14.3998 11.8499 14.4488 12.3189 14.4488 12.7949C14.4488 13.2709 14.3998 13.7329 14.3368 14.1949ZM12.6991 18.3669C12.1182 17.5269 11.6493 16.5959 11.3623 15.5949H14.0359C13.7489 16.5959 13.28 17.5269 12.6991 18.3669ZM9.89953 9.99492H7.85585C8.52695 8.82397 9.60193 7.93796 10.8794 7.50292C10.4594 8.27992 10.1445 9.11992 9.89953 9.99492ZM7.85585 15.5949H9.89953C10.1445 16.4699 10.4594 17.3099 10.8794 18.0869C9.60461 17.6471 8.53114 16.7623 7.85585 15.5949ZM7.28195 14.1949C7.16996 13.7469 7.09997 13.2779 7.09997 12.7949C7.09997 12.3119 7.16996 11.8429 7.28195 11.3949H9.64757C9.59158 11.8569 9.54959 12.3189 9.54959 12.7949C9.54959 13.2709 9.59158 13.7329 9.64757 14.1949M12.6991 7.21592C13.28 8.05592 13.7489 8.99392 14.0359 9.99492H11.3623C11.6493 8.99392 12.1182 8.05592 12.6991 7.21592ZM17.5423 9.99492H15.4776C15.2586 9.12794 14.9342 8.29105 14.5118 7.50292C15.7996 7.94392 16.8704 8.83292 17.5423 9.99492ZM12.6991 5.79492C8.8287 5.79492 5.7002 8.94492 5.7002 12.7949C5.7002 14.6514 6.43758 16.4319 7.75012 17.7447C8.40003 18.3947 9.17158 18.9103 10.0207 19.2621C10.8699 19.6139 11.78 19.7949 12.6991 19.7949C14.5553 19.7949 16.3355 19.0574 17.6481 17.7447C18.9606 16.4319 19.698 14.6514 19.698 12.7949C19.698 11.8757 19.5169 10.9654 19.1652 10.1161C18.8135 9.26686 18.298 8.49518 17.6481 7.84517C16.9981 7.19516 16.2266 6.67955 15.3774 6.32777C14.5283 5.97598 13.6182 5.79492 12.6991 5.79492Z" fill="#333333"/>
</svg>
