<svg width="24" height="24" viewBox="0 0 24 24" fill="none" xmlns="http://www.w3.org/2000/svg">
<g clip-path="url(#clip0_1_400)">
<path d="M10.8653 6.3438C10.7475 6.00909 10.5287 5.71919 10.2391 5.51408C9.94959 5.30897 9.60353 5.19876 9.24869 5.19866H7.92012C7.54322 5.19972 7.17996 5.33978 6.89991 5.59201C6.61985 5.84425 6.44269 6.19093 6.40235 6.56566C6.36201 6.9404 6.46133 7.31684 6.68128 7.6229C6.90124 7.92896 7.22637 8.14313 7.5944 8.22437L9.61383 8.66666C10.027 8.75685 10.3923 8.9966 10.6395 9.33983C10.8866 9.68305 10.9981 10.1055 10.9526 10.526C10.9071 10.9465 10.7077 11.3353 10.3929 11.6177C10.078 11.9001 9.66992 12.0561 9.24698 12.0558H8.10355C7.74912 12.056 7.40337 11.9462 7.11387 11.7418C6.82436 11.5373 6.60535 11.2482 6.48698 10.9141M8.67783 5.19866V3.48438M8.67783 13.7701V12.0558M11.947 23.1421V14.1421C11.947 13.5738 12.1727 13.0287 12.5746 12.6269C12.9765 12.225 13.5215 11.9992 14.0898 11.9992C14.6582 11.9992 15.2032 12.225 15.6051 12.6269C16.0069 13.0287 16.2327 13.5738 16.2327 14.1421V18.8564H19.6613C20.5706 18.8564 21.4426 19.2176 22.0856 19.8606C22.7286 20.5036 23.0898 21.3756 23.0898 22.2849V23.1421" stroke="#333333" stroke-linecap="round" stroke-linejoin="round"/>
<path d="M8.67945 16.3962C7.09782 16.396 5.55393 15.9129 4.25423 15.0116C2.95452 14.1103 1.96093 12.8337 1.40631 11.3525C0.851685 9.87132 0.762458 8.25609 1.15056 6.72281C1.53866 5.18952 2.38559 3.81126 3.57811 2.77228C4.77063 1.73331 6.25191 1.08314 7.82391 0.908714C9.3959 0.734287 10.9837 1.04391 12.375 1.79619C13.7662 2.54847 14.8947 3.70755 15.6095 5.11846C16.3243 6.52936 16.5913 8.12486 16.3749 9.69162" stroke="#333333" stroke-linecap="round"/>
</g>
<defs>
<clipPath id="clip0_1_400">
<rect width="24" height="24" fill="white"/>
</clipPath>
</defs>
</svg>
