<svg width="29" height="12" viewBox="0 0 29 12" fill="none" xmlns="http://www.w3.org/2000/svg">
<path d="M0.030451 11V0.818182H2.18315V5.30753H2.31738L5.98145 0.818182H8.5617L4.78329 5.37713L8.60645 11H6.03116L3.2421 6.81392L2.18315 8.10653V11H0.030451ZM9.0862 0.818182H11.4974L13.8192 5.20312H13.9186L16.2403 0.818182H18.6515L14.9378 7.40057V11H12.8V7.40057L9.0862 0.818182ZM28.1958 4.38281H26.0182C25.9784 4.10109 25.8972 3.85085 25.7746 3.6321C25.652 3.41004 25.4945 3.22112 25.3023 3.06534C25.1101 2.90956 24.888 2.79025 24.6361 2.70739C24.3875 2.62453 24.1174 2.5831 23.8257 2.5831C23.2987 2.5831 22.8397 2.71402 22.4486 2.97585C22.0575 3.23437 21.7542 3.61222 21.5388 4.10938C21.3234 4.60322 21.2156 5.20312 21.2156 5.90909C21.2156 6.63494 21.3234 7.24479 21.5388 7.73864C21.7575 8.23248 22.0625 8.60535 22.4536 8.85724C22.8447 9.10914 23.2971 9.23509 23.8108 9.23509C24.0992 9.23509 24.366 9.19697 24.6112 9.12074C24.8598 9.04451 25.0802 8.93348 25.2725 8.78764C25.4647 8.63849 25.6238 8.45786 25.7497 8.24574C25.879 8.03362 25.9685 7.79167 26.0182 7.51989L28.1958 7.52983C28.1394 7.99716 27.9986 8.44792 27.7732 8.8821C27.5511 9.31297 27.2512 9.6991 26.8733 10.0405C26.4988 10.3786 26.0513 10.647 25.531 10.8459C25.0139 11.0414 24.4289 11.1392 23.776 11.1392C22.8679 11.1392 22.0558 10.9337 21.3399 10.5227C20.6273 10.1117 20.0639 9.51681 19.6496 8.73793C19.2386 7.95904 19.0331 7.0161 19.0331 5.90909C19.0331 4.79877 19.2419 3.85417 19.6595 3.07528C20.0771 2.2964 20.6439 1.70312 21.3598 1.29545C22.0757 0.884469 22.8811 0.678977 23.776 0.678977C24.366 0.678977 24.9128 0.761837 25.4166 0.927557C25.9237 1.09328 26.3728 1.33523 26.7639 1.65341C27.155 1.96828 27.4732 2.3544 27.7185 2.81179C27.9671 3.26918 28.1262 3.79285 28.1958 4.38281Z" fill="#048CFC"/>
</svg>
