<svg width="24" height="18" viewBox="0 0 24 18" fill="none" xmlns="http://www.w3.org/2000/svg">
<path d="M3.2 16.9992V17.7992H4.8V16.9992H3.2ZM11.2 16.9992V17.7992H12.8V16.9992H11.2ZM4.8 16.9992V16.1992H3.2V16.9992H4.8ZM11.2 16.1992V16.9992H12.8V16.1992H11.2ZM8 12.9992C8.84869 12.9992 9.66263 13.3364 10.2627 13.9365C10.8629 14.5366 11.2 15.3505 11.2 16.1992H12.8C12.8 14.9262 12.2943 13.7053 11.3941 12.8051C10.4939 11.9049 9.27304 11.3992 8 11.3992V12.9992ZM4.8 16.1992C4.8 15.3505 5.13714 14.5366 5.73726 13.9365C6.33737 13.3364 7.15131 12.9992 8 12.9992V11.3992C6.72696 11.3992 5.50606 11.9049 4.60589 12.8051C3.70571 13.7053 3.2 14.9262 3.2 16.1992H4.8ZM8 3.39922C7.15131 3.39922 6.33737 3.73636 5.73726 4.33648C5.13714 4.93659 4.8 5.75053 4.8 6.59922H6.4C6.4 6.17487 6.56857 5.76791 6.86863 5.46785C7.16869 5.16779 7.57565 4.99922 8 4.99922V3.39922ZM11.2 6.59922C11.2 5.75053 10.8629 4.93659 10.2627 4.33648C9.66263 3.73636 8.84869 3.39922 8 3.39922V4.99922C8.42435 4.99922 8.83131 5.16779 9.13137 5.46785C9.43143 5.76791 9.6 6.17487 9.6 6.59922H11.2ZM8 9.79922C8.84869 9.79922 9.66263 9.46208 10.2627 8.86196C10.8629 8.26184 11.2 7.44791 11.2 6.59922H9.6C9.6 7.02357 9.43143 7.43053 9.13137 7.73059C8.83131 8.03065 8.42435 8.19922 8 8.19922V9.79922ZM8 8.19922C7.57565 8.19922 7.16869 8.03065 6.86863 7.73059C6.56857 7.43053 6.4 7.02357 6.4 6.59922H4.8C4.8 7.44791 5.13714 8.26184 5.73726 8.86196C6.33737 9.46208 7.15131 9.79922 8 9.79922V8.19922ZM2.4 1.79922H21.6V0.199219H2.4V1.79922ZM22.4 2.59922V15.3992H24V2.59922H22.4ZM21.6 16.1992H2.4V17.7992H21.6V16.1992ZM1.6 15.3992V2.59922H0V15.3992H1.6ZM2.4 16.1992C2.18783 16.1992 1.98434 16.1149 1.83431 15.9649C1.68429 15.8149 1.6 15.6114 1.6 15.3992H0C0 16.0357 0.252856 16.6462 0.702944 17.0963C1.15303 17.5464 1.76348 17.7992 2.4 17.7992V16.1992ZM22.4 15.3992C22.4 15.6114 22.3157 15.8149 22.1657 15.9649C22.0157 16.1149 21.8122 16.1992 21.6 16.1992V17.7992C22.2365 17.7992 22.847 17.5464 23.2971 17.0963C23.7471 16.6462 24 16.0357 24 15.3992H22.4ZM21.6 1.79922C21.8122 1.79922 22.0157 1.8835 22.1657 2.03353C22.3157 2.18356 22.4 2.38705 22.4 2.59922H24C24 1.9627 23.7471 1.35225 23.2971 0.902163C22.847 0.452075 22.2365 0.199219 21.6 0.199219V1.79922ZM2.4 0.199219C1.76348 0.199219 1.15303 0.452075 0.702944 0.902163C0.252856 1.35225 0 1.9627 0 2.59922H1.6C1.6 2.38705 1.68429 2.18356 1.83431 2.03353C1.98434 1.8835 2.18783 1.79922 2.4 1.79922V0.199219ZM14.4 6.59922H19.2V4.99922H14.4V6.59922ZM14.4 11.3992H19.2V9.79922H14.4V11.3992Z" fill="#333333"/>
</svg>
