<svg width="35" height="18" viewBox="0 0 35 18" fill="none" xmlns="http://www.w3.org/2000/svg">
<path d="M8.66671 11.0503C8.09226 11.0503 7.60671 10.8525 7.21004 10.457C6.81337 10.0603 6.61504 9.57477 6.61504 9.00033C6.61504 8.42588 6.81337 7.94033 7.21004 7.54366C7.60671 7.14699 8.09226 6.94866 8.66671 6.94866C9.24115 6.94866 9.72671 7.14699 10.1234 7.54366C10.52 7.94033 10.7184 8.42588 10.7184 9.00033C10.7184 9.57477 10.52 10.0603 10.1234 10.457C9.72671 10.8537 9.24115 11.052 8.66671 11.052M8.66671 17.3337C6.35893 17.3337 4.39337 16.5214 2.77004 14.897C1.1456 13.2737 0.333374 11.3081 0.333374 9.00033C0.333374 6.69255 1.1456 4.72699 2.77004 3.10366C4.39337 1.47921 6.35893 0.666992 8.66671 0.666992C10.3778 0.666992 11.9212 1.13088 13.2967 2.05866C14.6712 2.98533 15.675 4.1881 16.3084 5.66699H31.6467L34.98 9.00033L29.66 14.257L26.8084 12.1087L23.795 14.3203L20.83 12.3337H16.3084C15.675 13.7914 14.6712 14.9892 13.2967 15.927C11.9212 16.8648 10.3778 17.3337 8.66671 17.3337ZM8.66671 15.667C10.3078 15.667 11.7078 15.1737 12.8667 14.187C14.0256 13.1992 14.7678 12.0259 15.0934 10.667H21.36L23.7434 12.2787L26.84 10.0587L29.5417 12.092L32.635 9.00033L30.9684 7.33366H15.0934C14.7678 5.97477 14.0256 4.80144 12.8667 3.81366C11.7078 2.82699 10.3078 2.33366 8.66671 2.33366C6.83337 2.33366 5.26393 2.98644 3.95837 4.29199C2.65282 5.59755 2.00004 7.16699 2.00004 9.00033C2.00004 10.8337 2.65282 12.4031 3.95837 13.7087C5.26393 15.0142 6.83337 15.667 8.66671 15.667Z" fill="#333333"/>
</svg>
