<svg width="36" height="27" viewBox="0 0 36 27" fill="none" xmlns="http://www.w3.org/2000/svg">
<g clip-path="url(#clip0_1_17642)">
<path d="M7.08419 26.2283V24.5104C7.08419 23.8517 6.66577 23.4224 5.94858 23.4224C5.59005 23.4224 5.20157 23.5369 4.93261 23.9091C4.72353 23.5941 4.42476 23.4224 3.97653 23.4224C3.67762 23.4224 3.37898 23.5082 3.13982 23.8232V23.4796H2.51233V26.2283H3.13982V24.7107C3.13982 24.2241 3.40879 23.995 3.82721 23.995C4.24536 23.995 4.4547 24.2527 4.4547 24.7107V26.2283H5.0822V24.7107C5.0822 24.2241 5.38084 23.995 5.76931 23.995C6.18773 23.995 6.39681 24.2527 6.39681 24.7107V26.2283H7.08419ZM16.377 23.4796H15.3611V22.6493H14.7336V23.4796H14.1659V24.0235H14.7335V25.2835C14.7335 25.9134 15.0025 26.2855 15.7197 26.2855C15.9886 26.2855 16.2873 26.1997 16.4966 26.0852L16.3172 25.5697C16.1379 25.6843 15.9289 25.713 15.7794 25.713C15.4806 25.713 15.3611 25.5412 15.3611 25.2548V24.0235H16.377V23.4796ZM21.6958 23.4222C21.3373 23.4222 21.0983 23.5941 20.9488 23.8232V23.4796H20.3213V26.2283H20.9488V24.6822C20.9488 24.2241 21.1579 23.9664 21.5464 23.9664C21.6659 23.9664 21.8153 23.9951 21.9348 24.0236L22.1141 23.4511C21.9946 23.4224 21.8153 23.4224 21.6958 23.4224V23.4222ZM13.6579 23.7087C13.359 23.5082 12.9407 23.4224 12.4925 23.4224C11.7754 23.4224 11.2974 23.7659 11.2974 24.3099C11.2974 24.7681 11.6559 25.0257 12.2834 25.1117L12.5822 25.1404C12.9109 25.1975 13.0902 25.2835 13.0902 25.4267C13.0902 25.627 12.8511 25.7702 12.4327 25.7702C12.0144 25.7702 11.6857 25.627 11.4765 25.4839L11.1777 25.942C11.5065 26.171 11.9547 26.2855 12.4028 26.2855C13.2395 26.2855 13.7177 25.9134 13.7177 25.398C13.7177 24.9112 13.3292 24.6535 12.7315 24.5677L12.4327 24.539C12.1638 24.5103 11.9547 24.4531 11.9547 24.2814C11.9547 24.0809 12.1638 23.9664 12.4925 23.9664C12.8511 23.9664 13.2097 24.1095 13.3889 24.1954L13.6579 23.7087ZM30.3314 23.4224C29.9728 23.4224 29.7337 23.5941 29.5843 23.8232V23.4796H28.9568V26.2283H29.5843V24.6822C29.5843 24.2241 29.7935 23.9664 30.1818 23.9664C30.3015 23.9664 30.4509 23.9951 30.5704 24.0236L30.7497 23.4511C30.6302 23.4224 30.4509 23.4224 30.3314 23.4224ZM22.3233 24.854C22.3233 25.6843 22.9209 26.2855 23.8473 26.2855C24.2656 26.2855 24.5643 26.1997 24.8631 25.9707L24.5643 25.4839C24.3253 25.6557 24.0863 25.7415 23.8173 25.7415C23.3093 25.7415 22.9508 25.398 22.9508 24.854C22.9508 24.3386 23.3093 23.995 23.8173 23.9664C24.0863 23.9664 24.3253 24.0522 24.5643 24.2241L24.8631 23.7374C24.5643 23.5082 24.2656 23.4224 23.8473 23.4224C22.9209 23.4224 22.3233 24.0236 22.3233 24.854ZM28.1202 24.854V23.4796H27.4927V23.8232C27.2835 23.5656 26.9847 23.4224 26.5963 23.4224C25.7895 23.4224 25.162 24.0236 25.162 24.854C25.162 25.6843 25.7895 26.2855 26.5963 26.2855C27.0146 26.2855 27.3135 26.1425 27.4927 25.8847V26.2283H28.1202V24.854ZM25.8193 24.854C25.8193 24.3672 26.148 23.9664 26.6858 23.9664C27.1938 23.9664 27.5525 24.3386 27.5525 24.854C27.5525 25.3407 27.1938 25.7415 26.6858 25.7415C26.148 25.7128 25.8193 25.3407 25.8193 24.854ZM18.3193 23.4224C17.4826 23.4224 16.8849 23.995 16.8849 24.854C16.8849 25.713 17.4825 26.2855 18.3491 26.2855C18.7674 26.2855 19.1858 26.171 19.5146 25.9134L19.2157 25.4839C18.9766 25.6557 18.6779 25.7702 18.3791 25.7702C17.9906 25.7702 17.6021 25.5984 17.5124 25.1115H19.6341V24.8826C19.664 23.995 19.1261 23.4224 18.3192 23.4224H18.3193ZM18.3193 23.9377C18.7077 23.9377 18.9768 24.1669 19.0364 24.5964H17.5424C17.6021 24.2241 17.8711 23.9377 18.3193 23.9377ZM33.8872 24.854V22.3916H33.2597V23.8232C33.0505 23.5656 32.7517 23.4224 32.3632 23.4224C31.5565 23.4224 30.929 24.0236 30.929 24.854C30.929 25.6843 31.5565 26.2855 32.3632 26.2855C32.7817 26.2855 33.0804 26.1425 33.2597 25.8847V26.2283H33.8872V24.854ZM31.5864 24.854C31.5864 24.3672 31.915 23.9664 32.4529 23.9664C32.9609 23.9664 33.3194 24.3386 33.3194 24.854C33.3194 25.3407 32.9609 25.7415 32.4529 25.7415C31.915 25.7128 31.5864 25.3407 31.5864 24.854ZM10.61 24.854V23.4796H9.98251V23.8232C9.7733 23.5656 9.47452 23.4224 9.08605 23.4224C8.27929 23.4224 7.65179 24.0236 7.65179 24.854C7.65179 25.6843 8.27929 26.2855 9.08605 26.2855C9.50447 26.2855 9.80324 26.1425 9.98251 25.8847V26.2283H10.61V24.854ZM8.27929 24.854C8.27929 24.3672 8.60801 23.9664 9.1458 23.9664C9.65379 23.9664 10.0125 24.3386 10.0125 24.854C10.0125 25.3407 9.65379 25.7415 9.1458 25.7415C8.60801 25.7128 8.27929 25.3407 8.27929 24.854Z" fill="white"/>
<path d="M13.4486 2.60742H22.861V18.8132H13.4486V2.60742Z" fill="#FF5F00"/>
<path d="M14.0463 10.7099C14.0463 7.41728 15.6598 4.49674 18.1398 2.60697C16.3173 1.23265 14.0165 0.402344 11.5065 0.402344C5.56001 0.402344 0.749268 5.01206 0.749268 10.7099C0.749268 16.4077 5.56001 21.0175 11.5064 21.0175C14.0163 21.0175 16.3171 20.1872 18.1398 18.8128C15.6598 16.9517 14.0463 14.0026 14.0463 10.7099Z" fill="#EB001B"/>
<path d="M35.5604 10.7099C35.5604 16.4077 30.7496 21.0175 24.8033 21.0175C22.2933 21.0175 19.9925 20.1872 18.1698 18.8128C20.6798 16.9231 22.2635 14.0026 22.2635 10.7099C22.2635 7.41728 20.6498 4.49674 18.1698 2.60697C19.9924 1.23265 22.2933 0.402344 24.8033 0.402344C30.7496 0.402344 35.5605 5.04076 35.5605 10.7099H35.5604Z" fill="#F79E1B"/>
</g>
<defs>
<clipPath id="clip0_1_17642">
<rect width="34.8457" height="25.9552" fill="white" transform="translate(0.749268 0.402344)"/>
</clipPath>
</defs>
</svg>
