<svg width="26" height="25" viewBox="0 0 26 25" fill="none" xmlns="http://www.w3.org/2000/svg">
<path d="M12.6255 24.2649C19.2529 24.2649 24.6255 19.1011 24.6255 12.7311C24.6255 6.36114 19.2529 1.19727 12.6255 1.19727C5.99807 1.19727 0.625488 6.36114 0.625488 12.7311C0.625488 19.1011 5.99807 24.2649 12.6255 24.2649Z" stroke="#333333" stroke-width="1.15338" stroke-linecap="round" stroke-linejoin="round"/>
<path d="M8.87549 10.569C9.70392 10.569 10.3755 9.92352 10.3755 9.12728C10.3755 8.33103 9.70392 7.68555 8.87549 7.68555C8.04706 7.68555 7.37549 8.33103 7.37549 9.12728C7.37549 9.92352 8.04706 10.569 8.87549 10.569Z" fill="#333333"/>
<path d="M16.3755 10.569C17.2039 10.569 17.8755 9.92352 17.8755 9.12728C17.8755 8.33103 17.2039 7.68555 16.3755 7.68555C15.5471 7.68555 14.8755 8.33103 14.8755 9.12728C14.8755 9.92352 15.5471 10.569 16.3755 10.569Z" fill="#333333"/>
<path d="M8.12549 14.1719C9.02999 16.0937 10.53 17.0553 12.6255 17.0553C14.721 17.0553 16.221 16.0937 17.1255 14.1719" stroke="#333333" stroke-width="1.15338" stroke-linecap="round" stroke-linejoin="round"/>
</svg>
