<svg width="24" height="24" viewBox="0 0 24 24" fill="none" xmlns="http://www.w3.org/2000/svg">
<path d="M4.125 9.75C3.78028 9.75 3.43894 9.8179 3.12046 9.94982C2.80198 10.0817 2.5126 10.2751 2.26884 10.5188C2.02509 10.7626 1.83173 11.052 1.69982 11.3705C1.5679 11.6889 1.5 12.0303 1.5 12.375C1.5 12.7197 1.5679 13.0611 1.69982 13.3795C1.83173 13.698 2.02509 13.9874 2.26884 14.2312C2.5126 14.4749 2.80198 14.6683 3.12046 14.8002C3.43894 14.9321 3.78028 15 4.125 15C4.82119 15 5.48887 14.7234 5.98116 14.2312C6.47344 13.7389 6.75 13.0712 6.75 12.375C6.75 11.6788 6.47344 11.0111 5.98116 10.5188C5.48887 10.0266 4.82119 9.75 4.125 9.75ZM4.125 11.25C4.42337 11.25 4.70952 11.3685 4.9205 11.5795C5.13147 11.7905 5.25 12.0766 5.25 12.375C5.25 12.6734 5.13147 12.9595 4.9205 13.1705C4.70952 13.3815 4.42337 13.5 4.125 13.5C3.82663 13.5 3.54048 13.3815 3.3295 13.1705C3.11853 12.9595 3 12.6734 3 12.375C3 12.0766 3.11853 11.7905 3.3295 11.5795C3.54048 11.3685 3.82663 11.25 4.125 11.25ZM12 9.75C12.3447 9.75 12.6861 9.8179 13.0045 9.94982C13.323 10.0817 13.6124 10.2751 13.8562 10.5188C14.0999 10.7626 14.2933 11.052 14.4252 11.3705C14.5571 11.6889 14.625 12.0303 14.625 12.375C14.625 12.7197 14.5571 13.0611 14.4252 13.3795C14.2933 13.698 14.0999 13.9874 13.8562 14.2312C13.6124 14.4749 13.323 14.6683 13.0045 14.8002C12.6861 14.9321 12.3447 15 12 15C11.3038 15 10.6361 14.7234 10.1438 14.2312C9.65156 13.7389 9.375 13.0712 9.375 12.375C9.375 11.6788 9.65156 11.0111 10.1438 10.5188C10.6361 10.0266 11.3038 9.75 12 9.75ZM12 11.25C11.7016 11.25 11.4155 11.3685 11.2045 11.5795C10.9935 11.7905 10.875 12.0766 10.875 12.375C10.875 12.6734 10.9935 12.9595 11.2045 13.1705C11.4155 13.3815 11.7016 13.5 12 13.5C12.2984 13.5 12.5845 13.3815 12.7955 13.1705C13.0065 12.9595 13.125 12.6734 13.125 12.375C13.125 12.0766 13.0065 11.7905 12.7955 11.5795C12.5845 11.3685 12.2984 11.25 12 11.25ZM19.875 9.75C20.2197 9.75 20.5611 9.8179 20.8795 9.94982C21.198 10.0817 21.4874 10.2751 21.7312 10.5188C21.9749 10.7626 22.1683 11.052 22.3002 11.3705C22.4321 11.6889 22.5 12.0303 22.5 12.375C22.5 12.7197 22.4321 13.0611 22.3002 13.3795C22.1683 13.698 21.9749 13.9874 21.7312 14.2312C21.4874 14.4749 21.198 14.6683 20.8795 14.8002C20.5611 14.9321 20.2197 15 19.875 15C19.1788 15 18.5111 14.7234 18.0188 14.2312C17.5266 13.7389 17.25 13.0712 17.25 12.375C17.25 11.6788 17.5266 11.0111 18.0188 10.5188C18.5111 10.0266 19.1788 9.75 19.875 9.75ZM19.875 11.25C19.5766 11.25 19.2905 11.3685 19.0795 11.5795C18.8685 11.7905 18.75 12.0766 18.75 12.375C18.75 12.6734 18.8685 12.9595 19.0795 13.1705C19.2905 13.3815 19.5766 13.5 19.875 13.5C20.1734 13.5 20.4595 13.3815 20.6705 13.1705C20.8815 12.9595 21 12.6734 21 12.375C21 12.0766 20.8815 11.7905 20.6705 11.5795C20.4595 11.3685 20.1734 11.25 19.875 11.25Z" fill="#333333"/>
<path d="M4.125 17.75C3.78028 17.75 3.43894 17.8179 3.12046 17.9498C2.80198 18.0817 2.5126 18.2751 2.26884 18.5188C2.02509 18.7626 1.83173 19.052 1.69982 19.3705C1.5679 19.6889 1.5 20.0303 1.5 20.375C1.5 20.7197 1.5679 21.0611 1.69982 21.3795C1.83173 21.698 2.02509 21.9874 2.26884 22.2312C2.5126 22.4749 2.80198 22.6683 3.12046 22.8002C3.43894 22.9321 3.78028 23 4.125 23C4.82119 23 5.48887 22.7234 5.98116 22.2312C6.47344 21.7389 6.75 21.0712 6.75 20.375C6.75 19.6788 6.47344 19.0111 5.98116 18.5188C5.48887 18.0266 4.82119 17.75 4.125 17.75ZM4.125 19.25C4.42337 19.25 4.70952 19.3685 4.9205 19.5795C5.13147 19.7905 5.25 20.0766 5.25 20.375C5.25 20.6734 5.13147 20.9595 4.9205 21.1705C4.70952 21.3815 4.42337 21.5 4.125 21.5C3.82663 21.5 3.54048 21.3815 3.3295 21.1705C3.11853 20.9595 3 20.6734 3 20.375C3 20.0766 3.11853 19.7905 3.3295 19.5795C3.54048 19.3685 3.82663 19.25 4.125 19.25ZM12 17.75C12.3447 17.75 12.6861 17.8179 13.0045 17.9498C13.323 18.0817 13.6124 18.2751 13.8562 18.5188C14.0999 18.7626 14.2933 19.052 14.4252 19.3705C14.5571 19.6889 14.625 20.0303 14.625 20.375C14.625 20.7197 14.5571 21.0611 14.4252 21.3795C14.2933 21.698 14.0999 21.9874 13.8562 22.2312C13.6124 22.4749 13.323 22.6683 13.0045 22.8002C12.6861 22.9321 12.3447 23 12 23C11.3038 23 10.6361 22.7234 10.1438 22.2312C9.65156 21.7389 9.375 21.0712 9.375 20.375C9.375 19.6788 9.65156 19.0111 10.1438 18.5188C10.6361 18.0266 11.3038 17.75 12 17.75ZM12 19.25C11.7016 19.25 11.4155 19.3685 11.2045 19.5795C10.9935 19.7905 10.875 20.0766 10.875 20.375C10.875 20.6734 10.9935 20.9595 11.2045 21.1705C11.4155 21.3815 11.7016 21.5 12 21.5C12.2984 21.5 12.5845 21.3815 12.7955 21.1705C13.0065 20.9595 13.125 20.6734 13.125 20.375C13.125 20.0766 13.0065 19.7905 12.7955 19.5795C12.5845 19.3685 12.2984 19.25 12 19.25ZM19.875 17.75C20.2197 17.75 20.5611 17.8179 20.8795 17.9498C21.198 18.0817 21.4874 18.2751 21.7312 18.5188C21.9749 18.7626 22.1683 19.052 22.3002 19.3705C22.4321 19.6889 22.5 20.0303 22.5 20.375C22.5 20.7197 22.4321 21.0611 22.3002 21.3795C22.1683 21.698 21.9749 21.9874 21.7312 22.2312C21.4874 22.4749 21.198 22.6683 20.8795 22.8002C20.5611 22.9321 20.2197 23 19.875 23C19.1788 23 18.5111 22.7234 18.0188 22.2312C17.5266 21.7389 17.25 21.0712 17.25 20.375C17.25 19.6788 17.5266 19.0111 18.0188 18.5188C18.5111 18.0266 19.1788 17.75 19.875 17.75ZM19.875 19.25C19.5766 19.25 19.2905 19.3685 19.0795 19.5795C18.8685 19.7905 18.75 20.0766 18.75 20.375C18.75 20.6734 18.8685 20.9595 19.0795 21.1705C19.2905 21.3815 19.5766 21.5 19.875 21.5C20.1734 21.5 20.4595 21.3815 20.6705 21.1705C20.8815 20.9595 21 20.6734 21 20.375C21 20.0766 20.8815 19.7905 20.6705 19.5795C20.4595 19.3685 20.1734 19.25 19.875 19.25Z" fill="#333333"/>
<path d="M4.125 0.826172C3.78028 0.826172 3.43894 0.894069 3.12046 1.02599C2.80198 1.15791 2.5126 1.35126 2.26884 1.59502C2.02509 1.83877 1.83173 2.12815 1.69982 2.44663C1.5679 2.76511 1.5 3.10645 1.5 3.45117C1.5 3.79589 1.5679 4.13724 1.69982 4.45572C1.83173 4.7742 2.02509 5.06357 2.26884 5.30733C2.5126 5.55108 2.80198 5.74444 3.12046 5.87636C3.43894 6.00827 3.78028 6.07617 4.125 6.07617C4.82119 6.07617 5.48887 5.79961 5.98116 5.30733C6.47344 4.81504 6.75 4.14737 6.75 3.45117C6.75 2.75498 6.47344 2.0873 5.98116 1.59502C5.48887 1.10273 4.82119 0.826172 4.125 0.826172ZM4.125 2.32617C4.42337 2.32617 4.70952 2.4447 4.9205 2.65568C5.13147 2.86666 5.25 3.1528 5.25 3.45117C5.25 3.74954 5.13147 4.03569 4.9205 4.24667C4.70952 4.45764 4.42337 4.57617 4.125 4.57617C3.82663 4.57617 3.54048 4.45764 3.3295 4.24667C3.11853 4.03569 3 3.74954 3 3.45117C3 3.1528 3.11853 2.86666 3.3295 2.65568C3.54048 2.4447 3.82663 2.32617 4.125 2.32617ZM12 0.826172C12.3447 0.826172 12.6861 0.894069 13.0045 1.02599C13.323 1.15791 13.6124 1.35126 13.8562 1.59502C14.0999 1.83877 14.2933 2.12815 14.4252 2.44663C14.5571 2.76511 14.625 3.10645 14.625 3.45117C14.625 3.79589 14.5571 4.13724 14.4252 4.45572C14.2933 4.7742 14.0999 5.06357 13.8562 5.30733C13.6124 5.55108 13.323 5.74444 13.0045 5.87636C12.6861 6.00827 12.3447 6.07617 12 6.07617C11.3038 6.07617 10.6361 5.79961 10.1438 5.30733C9.65156 4.81504 9.375 4.14737 9.375 3.45117C9.375 2.75498 9.65156 2.0873 10.1438 1.59502C10.6361 1.10273 11.3038 0.826172 12 0.826172ZM12 2.32617C11.7016 2.32617 11.4155 2.4447 11.2045 2.65568C10.9935 2.86666 10.875 3.1528 10.875 3.45117C10.875 3.74954 10.9935 4.03569 11.2045 4.24667C11.4155 4.45764 11.7016 4.57617 12 4.57617C12.2984 4.57617 12.5845 4.45764 12.7955 4.24667C13.0065 4.03569 13.125 3.74954 13.125 3.45117C13.125 3.1528 13.0065 2.86666 12.7955 2.65568C12.5845 2.4447 12.2984 2.32617 12 2.32617ZM19.875 0.826172C20.2197 0.826172 20.5611 0.894069 20.8795 1.02599C21.198 1.15791 21.4874 1.35126 21.7312 1.59502C21.9749 1.83877 22.1683 2.12815 22.3002 2.44663C22.4321 2.76511 22.5 3.10645 22.5 3.45117C22.5 3.79589 22.4321 4.13724 22.3002 4.45572C22.1683 4.7742 21.9749 5.06357 21.7312 5.30733C21.4874 5.55108 21.198 5.74444 20.8795 5.87636C20.5611 6.00827 20.2197 6.07617 19.875 6.07617C19.1788 6.07617 18.5111 5.79961 18.0188 5.30733C17.5266 4.81504 17.25 4.14737 17.25 3.45117C17.25 2.75498 17.5266 2.0873 18.0188 1.59502C18.5111 1.10273 19.1788 0.826172 19.875 0.826172ZM19.875 2.32617C19.5766 2.32617 19.2905 2.4447 19.0795 2.65568C18.8685 2.86666 18.75 3.1528 18.75 3.45117C18.75 3.74954 18.8685 4.03569 19.0795 4.24667C19.2905 4.45764 19.5766 4.57617 19.875 4.57617C20.1734 4.57617 20.4595 4.45764 20.6705 4.24667C20.8815 4.03569 21 3.74954 21 3.45117C21 3.1528 20.8815 2.86666 20.6705 2.65568C20.4595 2.4447 20.1734 2.32617 19.875 2.32617Z" fill="#333333"/>
</svg>
