<svg width="39" height="25" viewBox="0 0 39 25" fill="none" xmlns="http://www.w3.org/2000/svg">
<path d="M6.36865 9.68934H9.55333V3.88867H12.738L18.1838 9.68934H25.4767V3.88867H28.6614V9.68934H31.8461V11.6229H28.6614V13.5564H31.8461V15.49H28.6614V21.2907H25.4767L20.015 15.49H12.738V21.2907H9.55333V15.49H6.36865V13.5564H9.55333V11.6229H6.36865V9.68934ZM12.738 9.68934H14.5374L12.738 7.78479V9.68934ZM12.738 11.6229V13.5564H18.1838L16.3685 11.6229H12.738ZM25.4767 17.4236V15.49H23.6455L25.4767 17.4236ZM19.9991 11.6229L21.8303 13.5564H25.4767V11.6229H19.9991Z" fill="#333333"/>
</svg>
