<svg width="28" height="28" viewBox="0 0 28 28" fill="none" xmlns="http://www.w3.org/2000/svg">
<path d="M21.9392 9.20131C21.9392 7.2914 21.0965 5.45972 19.5964 4.10921C18.0964 2.75871 16.0619 2 13.9405 2C11.8191 2 9.78458 2.75871 8.28452 4.10921C6.78447 5.45972 5.94175 7.2914 5.94175 9.20131C5.94175 17.6028 1.94238 20.0033 1.94238 20.0033H25.9386C25.9386 20.0033 21.9392 17.6028 21.9392 9.20131Z" stroke="#333333" stroke-width="3.33333" stroke-linecap="round" stroke-linejoin="round"/>
<path d="M16.2469 24.8047C16.0125 25.1684 15.6761 25.4704 15.2713 25.6803C14.8666 25.8902 14.4077 26.0007 13.9406 26.0007C13.4735 26.0007 13.0146 25.8902 12.6098 25.6803C12.2051 25.4704 11.8687 25.1684 11.6343 24.8047" stroke="#333333" stroke-width="3.33333" stroke-linecap="round" stroke-linejoin="round"/>
</svg>
