<svg width="28" height="34" viewBox="0 0 28 34" fill="none" xmlns="http://www.w3.org/2000/svg">
<path d="M14 18.6663C13.4925 18.6604 12.9955 18.8101 12.5757 19.0952C12.1559 19.3803 11.8335 19.7872 11.652 20.261C11.4704 20.7349 11.4384 21.253 11.5602 21.7456C11.682 22.2382 11.9518 22.6817 12.3333 23.0163V25.333C12.3333 25.775 12.5089 26.199 12.8214 26.5115C13.134 26.8241 13.5579 26.9997 14 26.9997C14.442 26.9997 14.8659 26.8241 15.1785 26.5115C15.491 26.199 15.6666 25.775 15.6666 25.333V23.0163C16.0481 22.6817 16.3179 22.2382 16.4397 21.7456C16.5615 21.253 16.5295 20.7349 16.3479 20.261C16.1664 19.7872 15.844 19.3803 15.4242 19.0952C15.0044 18.8101 14.5074 18.6604 14 18.6663ZM22.3333 11.9997V8.66634C22.3333 6.4562 21.4553 4.33659 19.8925 2.77378C18.3297 1.21098 16.2101 0.333008 14 0.333008C11.7898 0.333008 9.67021 1.21098 8.1074 2.77378C6.5446 4.33659 5.66663 6.4562 5.66663 8.66634V11.9997C4.34054 11.9997 3.06877 12.5265 2.13109 13.4641C1.19341 14.4018 0.666626 15.6736 0.666626 16.9997V28.6663C0.666626 29.9924 1.19341 31.2642 2.13109 32.2019C3.06877 33.1396 4.34054 33.6663 5.66663 33.6663H22.3333C23.6594 33.6663 24.9311 33.1396 25.8688 32.2019C26.8065 31.2642 27.3333 29.9924 27.3333 28.6663V16.9997C27.3333 15.6736 26.8065 14.4018 25.8688 13.4641C24.9311 12.5265 23.6594 11.9997 22.3333 11.9997ZM8.99996 8.66634C8.99996 7.34026 9.52674 6.06849 10.4644 5.13081C11.4021 4.19313 12.6739 3.66634 14 3.66634C15.326 3.66634 16.5978 4.19313 17.5355 5.13081C18.4732 6.06849 19 7.34026 19 8.66634V11.9997H8.99996V8.66634ZM24 28.6663C24 29.1084 23.8244 29.5323 23.5118 29.8449C23.1992 30.1574 22.7753 30.333 22.3333 30.333H5.66663C5.2246 30.333 4.80068 30.1574 4.48811 29.8449C4.17555 29.5323 3.99996 29.1084 3.99996 28.6663V16.9997C3.99996 16.5576 4.17555 16.1337 4.48811 15.8212C4.80068 15.5086 5.2246 15.333 5.66663 15.333H22.3333C22.7753 15.333 23.1992 15.5086 23.5118 15.8212C23.8244 16.1337 24 16.5576 24 16.9997V28.6663Z" fill="#333333"/>
</svg>
