<svg width="24" height="24" viewBox="0 0 24 24" fill="none" xmlns="http://www.w3.org/2000/svg">
<g clip-path="url(#clip0_1_417)">
<path d="M20.5712 12.8566V9.428C20.5712 8.97334 20.3906 8.53731 20.0691 8.21582C19.7476 7.89432 19.3116 7.71371 18.8569 7.71371H2.57122C2.11656 7.71371 1.68053 7.89432 1.35904 8.21582C1.03755 8.53731 0.856934 8.97334 0.856934 9.428V21.428C0.856934 21.8827 1.03755 22.3187 1.35904 22.6402C1.68053 22.9617 2.11656 23.1423 2.57122 23.1423H18.8569C19.3116 23.1423 19.7476 22.9617 20.0691 22.6402C20.3906 22.3187 20.5712 21.8827 20.5712 21.428V17.1423M6.58265 3.428L16.3026 0.890855C16.4119 0.86008 16.5262 0.851756 16.6387 0.866383C16.7513 0.88101 16.8597 0.918286 16.9574 0.975961C17.0551 1.03364 17.1401 1.11051 17.2073 1.20196C17.2745 1.2934 17.3225 1.39751 17.3484 1.508L17.8284 3.428" stroke="#333333" stroke-linecap="round" stroke-linejoin="round"/>
<path d="M22.2854 12.8574H17.9997C17.5263 12.8574 17.1426 13.2412 17.1426 13.7146V16.286C17.1426 16.7594 17.5263 17.1431 17.9997 17.1431H22.2854C22.7588 17.1431 23.1426 16.7594 23.1426 16.286V13.7146C23.1426 13.2412 22.7588 12.8574 22.2854 12.8574Z" stroke="#333333" stroke-linecap="round" stroke-linejoin="round"/>
</g>
<defs>
<clipPath id="clip0_1_417">
<rect width="24" height="24" fill="white"/>
</clipPath>
</defs>
</svg>
