<svg width="24" height="27" viewBox="0 0 24 27" fill="none" xmlns="http://www.w3.org/2000/svg">
<path d="M0 4V23.2903C0 24.8121 1.74204 25.6763 2.95375 24.7555C3.74104 24.1573 4.86036 24.2881 5.48848 25.0518L5.72727 25.3421C6.48874 26.2679 7.84568 26.4265 8.8001 25.7012L9.5916 25.0998C10.7053 24.2536 12.2344 24.2109 13.3935 24.9938L14.3977 25.6721C15.5573 26.4553 17.0984 26.362 18.1549 25.4444L19.0987 24.6248C19.72 24.0853 20.6437 24.0853 21.265 24.6248C22.3343 25.5535 24 24.7939 24 23.3776V4C24 1.79086 22.2091 0 20 0H4C1.79086 0 0 1.79086 0 4Z" fill="#333333"/>
<path d="M4.90918 5.86914H11.4546" stroke="white" stroke-opacity="0.7" stroke-width="2"/>
<path d="M4.90918 11.4453H18.0001" stroke="white" stroke-opacity="0.7" stroke-width="2"/>
<path d="M4.90918 17.0215H18.0001" stroke="white" stroke-opacity="0.7" stroke-width="2"/>
</svg>
