<svg width="20" height="23" viewBox="0 0 20 23" fill="none" xmlns="http://www.w3.org/2000/svg">
<path d="M5 0H15C16.3261 0 17.5979 0.363481 18.5355 1.01048C19.4732 1.65748 20 2.535 20 3.45V19.55C20 20.465 19.4732 21.3425 18.5355 21.9895C17.5979 22.6365 16.3261 23 15 23H5C3.67392 23 2.40215 22.6365 1.46447 21.9895C0.526784 21.3425 0 20.465 0 19.55L0 3.45C0 2.535 0.526784 1.65748 1.46447 1.01048C2.40215 0.363481 3.67392 0 5 0ZM5 2.3C4.55797 2.3 4.13405 2.42116 3.82149 2.63683C3.50893 2.85249 3.33333 3.145 3.33333 3.45V19.55C3.33333 19.855 3.50893 20.1475 3.82149 20.3632C4.13405 20.5788 4.55797 20.7 5 20.7H15C15.442 20.7 15.8659 20.5788 16.1785 20.3632C16.4911 20.1475 16.6667 19.855 16.6667 19.55V3.45C16.6667 3.145 16.4911 2.85249 16.1785 2.63683C15.8659 2.42116 15.442 2.3 15 2.3H5ZM10 19.55C9.55797 19.55 9.13405 19.4288 8.82149 19.2132C8.50893 18.9975 8.33333 18.705 8.33333 18.4C8.33333 18.095 8.50893 17.8025 8.82149 17.5868C9.13405 17.3712 9.55797 17.25 10 17.25C10.442 17.25 10.8659 17.3712 11.1785 17.5868C11.4911 17.8025 11.6667 18.095 11.6667 18.4C11.6667 18.705 11.4911 18.9975 11.1785 19.2132C10.8659 19.4288 10.442 19.55 10 19.55Z" fill="#333333"/>
<path d="M6 9.15385L8.66667 8V13M14 11.8462L11.3333 13V8" stroke="#048CFC" stroke-linecap="round" stroke-linejoin="round"/>
</svg>
