<svg width="360" height="284" viewBox="0 0 360 284" fill="none" xmlns="http://www.w3.org/2000/svg">
<path d="M323.928 263.742H300.082V263.934H323.928V263.742Z" fill="#EBEBEB"/>
<path d="M238.478 265.824H232.222V266.016H238.478V265.824Z" fill="#EBEBEB"/>
<path d="M299.362 256.641H285.545V256.833H299.362V256.641Z" fill="#EBEBEB"/>
<path d="M68.8678 257.928H37.771V258.12H68.8678V257.928Z" fill="#EBEBEB"/>
<path d="M79.8408 257.928H75.2832V258.12H79.8408V257.928Z" fill="#EBEBEB"/>
<path d="M162.108 261.156H94.6582V261.348H162.108V261.156Z" fill="#EBEBEB"/>
<path d="M171.648 217.305H32.6161C31.5257 217.305 30.48 216.844 29.709 216.025C28.938 215.206 28.5049 214.094 28.5049 212.936V5.24876C28.5144 4.09666 28.9517 2.99518 29.7217 2.18408C30.4917 1.37298 31.5319 0.917925 32.6161 0.917969H171.648C172.188 0.917969 172.723 1.03098 173.221 1.25054C173.72 1.47011 174.173 1.79193 174.555 2.19763C174.937 2.60334 175.24 3.08498 175.446 3.61506C175.653 4.14514 175.759 4.71327 175.759 5.28702V212.936C175.759 213.509 175.653 214.078 175.446 214.608C175.24 215.138 174.937 215.619 174.555 216.025C174.173 216.431 173.72 216.753 173.221 216.972C172.723 217.192 172.188 217.305 171.648 217.305ZM32.6161 1.071C31.574 1.07302 30.5752 1.51383 29.8384 2.29687C29.1016 3.07992 28.6868 4.14137 28.6849 5.24876V212.936C28.6868 214.043 29.1016 215.104 29.8384 215.888C30.5752 216.671 31.574 217.111 32.6161 217.113H171.648C172.69 217.111 173.689 216.671 174.426 215.888C175.163 215.104 175.577 214.043 175.579 212.936V5.24876C175.577 4.14137 175.163 3.07992 174.426 2.29687C173.689 1.51383 172.69 1.07302 171.648 1.071H32.6161Z" fill="#EBEBEB"/>
<path d="M327.384 217.305H188.352C187.262 217.305 186.216 216.844 185.445 216.025C184.674 215.206 184.241 214.094 184.241 212.936V5.24876C184.25 4.09666 184.688 2.99518 185.458 2.18408C186.227 1.37298 187.268 0.917925 188.352 0.917969H327.384C328.474 0.917969 329.52 1.37828 330.291 2.19763C331.062 3.01699 331.495 4.12828 331.495 5.28702V212.936C331.495 214.094 331.062 215.206 330.291 216.025C329.52 216.844 328.474 217.305 327.384 217.305ZM188.352 1.071C187.31 1.07302 186.311 1.51383 185.574 2.29687C184.837 3.07992 184.423 4.14137 184.421 5.24876V212.936C184.423 214.043 184.837 215.104 185.574 215.888C186.311 216.671 187.31 217.111 188.352 217.113H327.384C328.426 217.111 329.425 216.671 330.162 215.888C330.898 215.104 331.313 214.043 331.315 212.936V5.24876C331.313 4.14137 330.898 3.07992 330.162 2.29687C329.425 1.51383 328.426 1.07302 327.384 1.071H188.352Z" fill="#EBEBEB"/>
<path d="M360 251.43H0V251.622H360V251.43Z" fill="#EBEBEB"/>
<path d="M292.881 84.9395H264.413C263.769 84.9395 263.132 85.0743 262.537 85.3362C261.943 85.5982 261.403 85.9821 260.948 86.4661C260.493 86.9501 260.133 87.5245 259.887 88.1567C259.642 88.7888 259.516 89.4663 259.517 90.1502V109.631C259.516 110.315 259.642 110.992 259.887 111.625C260.133 112.257 260.493 112.831 260.948 113.315C261.403 113.799 261.943 114.183 262.537 114.445C263.132 114.707 263.769 114.842 264.413 114.842H272.599L276.257 119.922C276.538 120.313 276.899 120.629 277.314 120.847C277.728 121.064 278.185 121.178 278.647 121.178C279.109 121.178 279.566 121.064 279.98 120.847C280.395 120.629 280.756 120.313 281.037 119.922L284.695 114.842H292.881C293.525 114.842 294.162 114.707 294.757 114.445C295.351 114.183 295.891 113.799 296.346 113.315C296.801 112.831 297.161 112.257 297.407 111.625C297.652 110.992 297.778 110.315 297.777 109.631V90.1502C297.778 89.4663 297.652 88.7888 297.407 88.1567C297.161 87.5245 296.801 86.9501 296.346 86.4661C295.891 85.9821 295.351 85.5982 294.757 85.3362C294.162 85.0743 293.525 84.9395 292.881 84.9395Z" fill="#E0E0E0"/>
<path d="M272.527 101.973C271.915 101.392 271.419 100.686 271.069 99.8977C270.719 99.1089 270.522 98.2534 270.49 97.382C270.459 96.8279 270.54 96.2732 270.726 95.7546C270.912 95.2361 271.2 94.7656 271.57 94.3742C271.941 93.9828 272.385 93.6795 272.874 93.4844C273.363 93.2893 273.885 93.2068 274.407 93.2425C276.61 93.2425 277.359 94.329 278.647 95.8976C279.936 94.3672 280.685 93.2425 282.888 93.2425C283.409 93.2068 283.932 93.2893 284.421 93.4844C284.91 93.6795 285.354 93.9828 285.724 94.3742C286.095 94.7656 286.383 95.2361 286.569 95.7546C286.755 96.2732 286.836 96.8279 286.805 97.382C286.773 98.2534 286.576 99.1089 286.226 99.8977C285.875 100.686 285.38 101.392 284.767 101.973L278.647 108.446L272.527 101.973Z" fill="white"/>
<path d="M72.6193 238.117C71.903 237.439 71.3213 236.616 70.9083 235.696C70.4954 234.777 70.2595 233.778 70.2145 232.76C70.1749 232.107 70.2674 231.452 70.4858 230.839C70.7042 230.227 71.0433 229.671 71.4804 229.21C71.9176 228.748 72.4426 228.391 73.0203 228.163C73.598 227.934 74.2149 227.84 74.8297 227.886C77.4217 227.886 78.3073 229.164 79.8265 231.016C81.3457 229.164 82.2313 227.886 84.8233 227.886C85.438 227.84 86.055 227.934 86.6326 228.163C87.2103 228.391 87.7353 228.748 88.1725 229.21C88.6096 229.671 88.9488 230.227 89.1671 230.839C89.3855 231.452 89.478 232.107 89.4385 232.76C89.3935 233.778 89.1576 234.777 88.7446 235.696C88.3316 236.616 87.7499 237.439 87.0337 238.117L79.8337 245.768L72.6193 238.117Z" fill="#E0E0E0"/>
<path d="M88.8983 246.74C88.4647 246.32 88.114 245.814 87.8668 245.249C87.6195 244.684 87.4807 244.072 87.4583 243.45C87.436 243.051 87.4939 242.651 87.6281 242.278C87.7624 241.904 87.9699 241.565 88.2369 241.284C88.5039 241.002 88.8242 240.784 89.1766 240.645C89.529 240.505 89.9054 240.446 90.2807 240.473C91.8647 240.473 92.4407 241.238 93.3335 242.378C94.2623 241.254 94.7735 240.473 96.3863 240.473C96.7616 240.446 97.1379 240.505 97.4903 240.645C97.8427 240.784 98.1631 241.002 98.4301 241.284C98.6971 241.565 98.9046 241.904 99.0388 242.278C99.1731 242.651 99.231 243.051 99.2087 243.45C99.1863 244.072 99.0474 244.684 98.8002 245.249C98.553 245.814 98.2023 246.32 97.7687 246.74L93.3623 251.4L88.8983 246.74Z" fill="#EBEBEB"/>
<path d="M273.758 29.4434H241.099C239.608 29.4434 238.178 30.073 237.123 31.1937C236.069 32.3144 235.476 33.8343 235.476 35.4192V57.7695C235.476 59.3551 236.068 60.8759 237.123 61.9978C238.177 63.1197 239.607 63.751 241.099 63.7531H250.495L254.686 69.5759C255.007 70.0247 255.422 70.3885 255.898 70.639C256.374 70.8894 256.898 71.0197 257.429 71.0197C257.96 71.0197 258.484 70.8894 258.959 70.639C259.435 70.3885 259.85 70.0247 260.172 69.5759L264.37 63.7531H273.73C275.223 63.7531 276.655 63.1227 277.711 62.0005C278.767 60.8784 279.36 59.3565 279.36 57.7695V35.4192C279.36 33.8383 278.771 32.3218 277.721 31.2018C276.671 30.0817 275.246 29.4494 273.758 29.4434Z" fill="#F5F5F5"/>
<path d="M247.176 55.5812H250.877V41.6094H246.557L247.176 55.5812Z" fill="#E0E0E0"/>
<path d="M268.034 43.7664C267.847 43.1466 267.257 41.8458 266.695 41.5857C265.075 40.8205 261.525 41.0577 258.386 41.4938C258.516 41.226 258.624 40.9888 258.689 40.8205C259.065 39.8138 259.286 38.7494 259.344 37.668C259.294 36.9029 258.969 35.2808 258.386 34.8829C258.156 34.7621 257.902 34.6992 257.645 34.6992C257.388 34.6992 257.134 34.7621 256.903 34.8829C256.277 35.5792 256.709 37.7675 256.464 38.7087C255.912 39.9848 255.184 41.166 254.304 42.2131C253.202 42.4273 252.504 42.588 252.504 42.588V54.93C252.504 54.93 261.986 57.6693 265.039 56.7817C266.213 56.445 266.767 54.2796 267.199 53.0707C267.984 50.8976 268.704 46.0006 268.034 43.7664Z" fill="#E0E0E0"/>
<path d="M191.16 48.8621C190.994 46.672 190.058 44.6286 188.538 43.1386C187.019 41.6485 185.027 40.8209 182.959 40.8203H177.041C174.973 40.8209 172.982 41.6485 171.462 43.1386C169.943 44.6286 169.006 46.672 168.84 48.8621L168.343 54.2182H191.657L191.16 48.8621Z" fill="#EBEBEB"/>
<path d="M180 40.8202C183.066 40.8202 185.551 38.179 185.551 34.9209C185.551 31.6627 183.066 29.0215 180 29.0215C176.934 29.0215 174.449 31.6627 174.449 34.9209C174.449 38.179 176.934 40.8202 180 40.8202Z" fill="#EBEBEB"/>
<path d="M69.84 131.103C68.9857 131.1 68.1567 131.411 67.4928 131.983L63.036 128.157C63.3033 127.608 63.4416 126.999 63.4392 126.382C63.4392 125.485 63.1522 124.616 62.6255 123.916C62.0988 123.216 61.3636 122.727 60.5409 122.53C59.7182 122.333 58.8569 122.439 58.0986 122.832C57.3402 123.224 56.73 123.878 56.3681 124.688C56.0063 125.497 55.9144 126.414 56.1075 127.286C56.3007 128.158 56.7674 128.935 57.4309 129.488C58.0945 130.041 58.9153 130.338 59.7586 130.33C60.602 130.321 61.4175 130.008 62.0712 129.442L66.528 133.268C66.2632 133.819 66.1251 134.429 66.1251 135.047C66.1251 135.666 66.2632 136.275 66.528 136.826L62.0712 140.652C61.4175 140.086 60.602 139.773 59.7586 139.764C58.9153 139.756 58.0945 140.053 57.4309 140.606C56.7674 141.159 56.3007 141.936 56.1075 142.808C55.9144 143.68 56.0063 144.597 56.3681 145.406C56.73 146.216 57.3402 146.87 58.0986 147.263C58.8569 147.655 59.7182 147.761 60.5409 147.564C61.3636 147.367 62.0988 146.878 62.6255 146.178C63.1522 145.478 63.4392 144.609 63.4392 143.712C63.4399 143.095 63.3017 142.486 63.036 141.937L67.4928 138.111C67.954 138.511 68.4988 138.787 69.0813 138.916C69.6637 139.045 70.2668 139.024 70.8399 138.853C71.4129 138.683 71.9391 138.369 72.3741 137.938C72.8092 137.506 73.1404 136.97 73.3399 136.375C73.5394 135.779 73.6014 135.141 73.5205 134.515C73.4397 133.888 73.2185 133.291 72.8755 132.775C72.5325 132.258 72.0778 131.837 71.5495 131.546C71.0213 131.255 70.435 131.103 69.84 131.103Z" fill="#E0E0E0"/>
<path d="M180 283.04C257.1 283.04 319.601 279.162 319.601 274.378C319.601 269.595 257.1 265.717 180 265.717C102.901 265.717 40.3994 269.595 40.3994 274.378C40.3994 279.162 102.901 283.04 180 283.04Z" fill="#F5F5F5"/>
<path d="M249.74 167.027H304.236C306.245 167.027 308.172 167.875 309.592 169.385C311.013 170.895 311.811 172.942 311.811 175.077V219.096C311.811 221.231 311.013 223.279 309.592 224.788C308.172 226.298 306.245 227.146 304.236 227.146H263.088C262.692 230.587 261.127 233.756 258.688 236.058C256.249 238.36 253.103 239.637 249.84 239.648C249.538 239.648 249.243 239.648 248.94 239.603C251.1 236.618 252.807 232.303 253.944 227.153H249.776C247.767 227.153 245.84 226.305 244.42 224.796C242.999 223.286 242.201 221.239 242.201 219.104V175.077C242.201 172.949 242.994 170.907 244.407 169.398C245.82 167.89 247.737 167.037 249.74 167.027Z" fill="#048CFC"/>
<path opacity="0.4" d="M249.74 167.027H304.236C306.245 167.027 308.172 167.875 309.592 169.385C311.013 170.895 311.811 172.942 311.811 175.077V219.096C311.811 221.231 311.013 223.279 309.592 224.788C308.172 226.298 306.245 227.146 304.236 227.146H263.088C262.692 230.587 261.127 233.756 258.688 236.058C256.249 238.36 253.103 239.637 249.84 239.648C249.538 239.648 249.243 239.648 248.94 239.603C251.1 236.618 252.807 232.303 253.944 227.153H249.776C247.767 227.153 245.84 226.305 244.42 224.796C242.999 223.286 242.201 221.239 242.201 219.104V175.077C242.201 172.949 242.994 170.907 244.407 169.398C245.82 167.89 247.737 167.037 249.74 167.027Z" fill="white"/>
<path d="M247.162 184.144L244.469 179.301L246.154 176.24C246.263 176.042 246.329 175.82 246.346 175.591C246.364 175.361 246.332 175.131 246.255 174.916L246.125 174.572C246.024 174.285 245.845 174.037 245.61 173.86C245.375 173.682 245.095 173.584 244.807 173.577L242.165 173.501C241.897 173.491 241.631 173.561 241.398 173.703C241.166 173.845 240.975 174.053 240.847 174.304L240.315 175.345C240.186 175.596 240.114 175.875 240.105 176.161C240.097 176.447 240.151 176.731 240.264 176.99L241.402 179.599L243.511 185.598L247.162 184.144Z" fill="#7F3E3B"/>
<path d="M268.61 183.294L253.224 195.192L246.024 180.822L241.92 182.712C241.92 182.712 248.249 204.489 251.928 203.609C255.607 202.729 265.99 197.273 269.366 193.532C271.073 191.642 272.369 188.175 270.684 183.891C270.606 183.685 270.485 183.502 270.329 183.355C270.173 183.208 269.988 183.102 269.787 183.044C269.586 182.986 269.375 182.978 269.171 183.022C268.967 183.065 268.775 183.158 268.61 183.294Z" fill="#048CFC"/>
<path d="M274.356 154.961C274.356 154.961 268.928 156.491 271.44 163.447C271.44 163.447 274.148 162.681 274.587 160.83C275.026 158.978 275.444 156.361 275.444 156.361L274.356 154.961Z" fill="#333333"/>
<path opacity="0.3" d="M274.356 154.961C274.356 154.961 268.928 156.491 271.44 163.447C271.44 163.447 274.148 162.681 274.587 160.83C275.026 158.978 275.444 156.361 275.444 156.361L274.356 154.961Z" fill="#333333"/>
<path d="M287.194 182.606L277.272 182.262L273.168 182.889L272.606 190.839L280.606 193.663L289.138 191.857L289.584 184.198L288.972 182.667L287.194 182.606Z" fill="#7F3E3B"/>
<path d="M273.686 227.145H287.726C287.863 221.888 288.598 194.595 288.446 194.763C288.295 194.931 289.93 188.948 289.93 188.948V186.522L288.446 183.921C288.446 183.921 285.264 189.078 280.022 188.825C275.054 188.581 274.198 183.309 274.198 183.309L273.6 191.366L272.974 210.877L273.773 219.141L273.686 227.145Z" fill="#048CFC"/>
<path opacity="0.6" d="M273.686 227.145H287.726C287.863 221.888 288.598 194.595 288.446 194.763C288.295 194.931 289.93 188.948 289.93 188.948V186.522L288.446 183.921C288.446 183.921 285.264 189.078 280.022 188.825C275.054 188.581 274.198 183.309 274.198 183.309L273.6 191.366L272.974 210.877L273.773 219.141L273.686 227.145Z" fill="white"/>
<path d="M268.099 227.146H275.702C277.2 216.617 277.402 197.366 277.402 197.366C276.494 193.681 275.784 189.943 275.278 186.172C274.817 181.757 280.75 182.346 285.934 183.073C291.118 183.8 281.902 197.733 281.902 197.733C281.902 197.733 281.246 216.564 282.766 227.146H301.486C300.55 224.338 297.785 215.714 297.166 209.601C296.366 202.209 301.154 191.428 300.47 186.172C299.786 180.915 283.378 181.986 283.378 181.986C283.378 181.986 272.873 181.91 270.533 182.025C267.797 182.155 266.702 189.814 265.406 195.866C264.11 201.919 266.494 207.91 267.797 215.523C268.443 219.36 268.545 223.277 268.099 227.146Z" fill="#333333"/>
<path d="M276.48 181.963C279.893 181.963 283.414 181.963 283.414 181.963C283.414 181.963 285.509 181.826 288.231 181.887C289.318 182.652 290.751 184.504 289.613 188.375L287.237 189.347L287.669 191.834C287.669 191.834 284.933 196.425 281.909 198.185C281.909 197.879 281.909 197.71 281.909 197.71C281.909 197.71 291.132 183.777 285.941 183.05C280.75 182.323 274.824 181.734 275.285 186.149C275.792 189.92 276.501 193.658 277.409 197.343C277.409 197.343 277.409 197.419 277.409 197.55C275.969 196.165 274.709 193.724 273.809 190.801L274.781 187.939L272.621 186.684C272.806 185.601 273.261 184.591 273.941 183.761C274.62 182.93 275.497 182.309 276.48 181.963Z" fill="#048CFC"/>
<path d="M276.336 186.132C276.17 185.726 276.102 185.282 276.14 184.84C276.178 184.399 276.32 183.975 276.552 183.607C280.454 182.207 280.094 179.093 279.194 176.208L285.48 169.391C285.113 173.017 284.976 181.365 287.208 184.273V184.939C286.237 186.264 284.938 187.276 283.457 187.861C281.975 188.447 280.37 188.582 278.82 188.252C278.27 188.153 277.753 187.906 277.319 187.535C276.884 187.164 276.546 186.681 276.336 186.132Z" fill="#7F3E3B"/>
<path opacity="0.1" d="M279.194 176.208L284.191 170.791L285.343 171.235C285.307 171.885 285.286 172.597 285.278 173.347C284.645 174.724 283.118 176.66 279.576 177.632C279.473 177.15 279.346 176.675 279.194 176.208Z" fill="#333333"/>
<path d="M288.72 163.377C287.201 169.552 286.682 172.2 283.118 174.786C277.761 178.68 270.957 175.352 270.705 168.818C270.482 162.933 272.995 153.828 279.216 152.543C280.585 152.253 282.002 152.34 283.331 152.795C284.66 153.251 285.857 154.06 286.809 155.145C287.761 156.231 288.437 157.557 288.771 158.997C289.106 160.438 289.088 161.946 288.72 163.377Z" fill="#7F3E3B"/>
<path d="M274.874 164.969C274.233 166.041 273.458 167.017 272.57 167.869C272.779 168.104 273.033 168.289 273.315 168.409C273.597 168.529 273.901 168.582 274.205 168.565L274.874 164.969Z" fill="#630F0F"/>
<path d="M281.074 162.695C281.115 162.693 281.154 162.68 281.189 162.657C281.216 162.641 281.239 162.618 281.258 162.592C281.277 162.565 281.29 162.535 281.298 162.503C281.305 162.471 281.306 162.437 281.301 162.405C281.296 162.372 281.285 162.341 281.268 162.313C281.047 161.899 280.735 161.549 280.359 161.292C279.983 161.034 279.554 160.878 279.108 160.836C279.077 160.835 279.046 160.841 279.017 160.852C278.987 160.864 278.961 160.882 278.938 160.905C278.915 160.927 278.897 160.955 278.884 160.985C278.871 161.015 278.864 161.048 278.863 161.081C278.861 161.114 278.866 161.147 278.876 161.178C278.886 161.209 278.902 161.237 278.923 161.261C278.944 161.286 278.969 161.305 278.997 161.319C279.025 161.333 279.056 161.34 279.086 161.341C279.453 161.384 279.804 161.519 280.112 161.735C280.42 161.95 280.676 162.24 280.858 162.581C280.881 162.618 280.914 162.648 280.951 162.668C280.989 162.688 281.031 162.698 281.074 162.695Z" fill="#333333"/>
<path d="M271.44 160.837C271.478 160.848 271.518 160.848 271.555 160.837C271.871 160.637 272.227 160.52 272.594 160.495C272.96 160.47 273.327 160.537 273.665 160.692C273.721 160.722 273.787 160.727 273.847 160.707C273.908 160.687 273.958 160.643 273.989 160.584C274.004 160.554 274.012 160.522 274.015 160.488C274.017 160.454 274.014 160.42 274.004 160.388C273.993 160.356 273.977 160.326 273.956 160.301C273.935 160.275 273.91 160.255 273.881 160.24C273.473 160.047 273.028 159.961 272.582 159.987C272.136 160.014 271.703 160.153 271.318 160.393C271.262 160.426 271.221 160.48 271.202 160.544C271.183 160.608 271.189 160.677 271.217 160.737C271.239 160.779 271.271 160.814 271.311 160.837C271.35 160.86 271.395 160.871 271.44 160.868V160.837Z" fill="#333333"/>
<path d="M276.638 170.263C276.361 170.264 276.084 170.238 275.81 170.186C275.791 170.183 275.773 170.177 275.756 170.166C275.74 170.156 275.726 170.142 275.714 170.126C275.703 170.109 275.695 170.091 275.69 170.071C275.686 170.051 275.685 170.03 275.688 170.01C275.695 169.97 275.716 169.935 275.747 169.911C275.777 169.887 275.816 169.876 275.853 169.88C276.461 170.007 277.088 169.981 277.684 169.804C278.281 169.628 278.83 169.305 279.288 168.863C279.316 168.842 279.35 168.832 279.385 168.834C279.419 168.837 279.452 168.852 279.477 168.877C279.502 168.902 279.519 168.936 279.524 168.972C279.528 169.008 279.522 169.045 279.504 169.077C278.727 169.848 277.701 170.273 276.638 170.263Z" fill="#333333"/>
<path d="M286.726 168.206C286.023 167.357 285.501 166.357 285.196 165.274C284.892 164.191 284.812 163.05 284.962 161.931C284.962 161.931 282.622 159.383 282.737 156.659C282.737 156.659 282.017 158.832 282.737 160.378C282.737 160.378 276.667 159.911 276.811 156.659C276.811 156.659 276.408 158.297 277.322 159.146C277.322 159.146 271.93 159.383 272.664 156.414C273.398 153.446 277.618 151.999 277.618 151.999C277.618 151.999 281.642 148.365 287.208 154.785C287.208 154.785 293.76 159.131 289.116 166.384L286.726 168.206Z" fill="#333333"/>
<path d="M289.159 168.61C288.896 169.156 288.532 169.641 288.09 170.035C287.647 170.43 287.134 170.725 286.582 170.905C285.142 171.38 284.343 169.987 284.724 168.495C285.07 167.149 286.251 165.282 287.748 165.435C288.268 165.516 288.735 165.813 289.049 166.261C289.362 166.708 289.495 167.27 289.419 167.822C289.385 168.101 289.296 168.369 289.159 168.61Z" fill="#7F3E3B"/>
<path d="M279.245 164.089C279.187 164.617 278.878 165.023 278.525 164.985C278.172 164.946 277.978 164.495 278.035 163.952C278.093 163.408 278.395 163.026 278.719 163.056C279.043 163.087 279.295 163.554 279.245 164.089Z" fill="#333333" fill-opacity="0.2"/>
<path d="M273.6 163.461C273.55 163.989 273.24 164.387 272.916 164.357C272.592 164.326 272.362 163.859 272.412 163.324C272.463 162.788 272.772 162.39 273.132 162.428C273.492 162.467 273.6 162.918 273.6 163.461Z" fill="#333333" fill-opacity="0.2"/>
<path d="M273.204 162.474L272.038 161.969C272.038 161.969 272.556 163.032 273.204 162.474Z" fill="#333333" fill-opacity="0.2"/>
<path d="M278.885 163.132L277.711 162.635C277.711 162.635 278.237 163.668 278.885 163.132Z" fill="#333333" fill-opacity="0.2"/>
<path d="M286.222 173.776C286.599 173.777 286.969 173.661 287.285 173.443C287.601 173.225 287.851 172.913 288.004 172.546C288.156 172.18 288.205 171.774 288.145 171.378C288.084 170.982 287.916 170.614 287.662 170.318L287.41 170.563C287.681 170.875 287.83 171.285 287.828 171.71C287.829 172.049 287.736 172.38 287.56 172.661C287.384 172.943 287.133 173.163 286.84 173.293C286.546 173.423 286.223 173.458 285.91 173.392C285.598 173.326 285.312 173.164 285.087 172.925C284.862 172.686 284.709 172.381 284.647 172.049C284.585 171.717 284.618 171.374 284.74 171.062C284.862 170.75 285.069 170.483 285.334 170.296C285.6 170.109 285.911 170.01 286.229 170.012C286.455 170.01 286.678 170.059 286.884 170.157L287.021 169.828C286.773 169.706 286.503 169.643 286.229 169.645C285.974 169.645 285.721 169.698 285.485 169.802C285.249 169.906 285.035 170.058 284.855 170.25C284.674 170.441 284.531 170.669 284.433 170.92C284.335 171.171 284.285 171.439 284.285 171.71C284.285 171.982 284.335 172.25 284.433 172.501C284.531 172.752 284.674 172.979 284.855 173.171C285.035 173.363 285.249 173.515 285.485 173.619C285.721 173.723 285.974 173.776 286.229 173.776H286.222Z" fill="#048CFC"/>
<g opacity="0.6">
<path d="M286.222 173.776C286.599 173.777 286.969 173.661 287.285 173.443C287.601 173.225 287.851 172.913 288.004 172.546C288.156 172.18 288.205 171.774 288.145 171.378C288.084 170.982 287.916 170.614 287.662 170.318L287.41 170.563C287.681 170.875 287.83 171.285 287.828 171.71C287.829 172.049 287.736 172.38 287.56 172.661C287.384 172.943 287.133 173.163 286.84 173.293C286.546 173.423 286.223 173.458 285.91 173.392C285.598 173.326 285.312 173.164 285.087 172.925C284.862 172.686 284.709 172.381 284.647 172.049C284.585 171.717 284.618 171.374 284.74 171.062C284.862 170.75 285.069 170.483 285.334 170.296C285.6 170.109 285.911 170.01 286.229 170.012C286.455 170.01 286.678 170.059 286.884 170.157L287.021 169.828C286.773 169.706 286.503 169.643 286.229 169.645C285.974 169.645 285.721 169.698 285.485 169.802C285.249 169.906 285.035 170.058 284.855 170.25C284.674 170.441 284.531 170.669 284.433 170.92C284.335 171.171 284.285 171.439 284.285 171.71C284.285 171.982 284.335 172.25 284.433 172.501C284.531 172.752 284.674 172.979 284.855 173.171C285.035 173.363 285.249 173.515 285.485 173.619C285.721 173.723 285.974 173.776 286.229 173.776H286.222Z" fill="white"/>
</g>
<path d="M284.882 205.025L279.597 205.27L277.826 202.21C277.712 202.013 277.558 201.845 277.375 201.721C277.191 201.596 276.984 201.517 276.768 201.49L276.422 201.444C276.138 201.405 275.849 201.457 275.592 201.593C275.336 201.73 275.123 201.944 274.982 202.21L273.672 204.65C273.538 204.898 273.471 205.18 273.48 205.465C273.489 205.751 273.573 206.028 273.722 206.265L274.334 207.252C274.481 207.492 274.678 207.692 274.911 207.835C275.144 207.979 275.405 208.062 275.673 208.078L278.373 208.239L284.349 209.096L284.882 205.025Z" fill="#7F3E3B"/>
<path d="M294.278 184.557L296.906 204.581H281.578L281.21 209.318C281.21 209.318 302.27 213.656 303.271 209.792C304.272 205.928 304.639 193.632 303.127 188.697C302.357 186.21 300.096 183.341 295.747 182.92C295.544 182.9 295.338 182.93 295.147 183.007C294.955 183.084 294.783 183.205 294.642 183.362C294.5 183.52 294.395 183.709 294.332 183.916C294.269 184.123 294.251 184.342 294.278 184.557Z" fill="#048CFC"/>
<path d="M227.297 69.018H210.471L193.507 275.152H210.334C214.178 275.077 217.863 273.509 220.693 270.742C223.523 267.976 225.301 264.204 225.691 260.139L240.185 84.038C240.385 82.126 240.199 80.1907 239.639 78.3612C239.079 76.5316 238.159 74.85 236.939 73.4285C235.72 72.007 234.229 70.8783 232.566 70.1177C230.903 69.3572 229.107 68.9822 227.297 69.018Z" fill="#333333"/>
<path d="M237.723 89.677C237.759 89.2929 237.925 88.9357 238.189 88.6713C238.454 88.4069 238.8 88.2532 239.163 88.2385C239.336 88.2353 239.508 88.2713 239.668 88.3441C239.827 88.417 239.97 88.525 240.087 88.661C240.204 88.797 240.293 88.958 240.347 89.1331C240.401 89.3083 240.419 89.4937 240.401 89.677L239.263 103.45C239.246 103.851 239.087 104.231 238.82 104.514C238.552 104.797 238.194 104.963 237.816 104.98C237.643 104.982 237.472 104.945 237.314 104.872C237.155 104.799 237.013 104.691 236.897 104.555C236.78 104.419 236.692 104.258 236.639 104.084C236.585 103.909 236.567 103.724 236.585 103.542L237.723 89.677Z" fill="#048CFC"/>
<path opacity="0.3" d="M237.723 89.677C237.759 89.2929 237.925 88.9357 238.189 88.6713C238.454 88.4069 238.8 88.2532 239.163 88.2385C239.336 88.2353 239.508 88.2713 239.668 88.3441C239.827 88.417 239.97 88.525 240.087 88.661C240.204 88.797 240.293 88.958 240.347 89.1331C240.401 89.3083 240.419 89.4937 240.401 89.677L239.263 103.45C239.246 103.851 239.087 104.231 238.82 104.514C238.552 104.797 238.194 104.963 237.816 104.98C237.643 104.982 237.472 104.945 237.314 104.872C237.155 104.799 237.013 104.691 236.897 104.555C236.78 104.419 236.692 104.258 236.639 104.084C236.585 103.909 236.567 103.724 236.585 103.542L237.723 89.677Z" fill="white"/>
<path d="M206.885 275.151H137.556C135.747 275.186 133.952 274.81 132.29 274.05C130.629 273.289 129.139 272.161 127.919 270.741C126.7 269.32 125.779 267.64 125.219 265.812C124.658 263.984 124.47 262.05 124.668 260.139L139.169 84.0378C139.554 79.9702 141.331 76.1943 144.161 73.4259C146.992 70.6575 150.68 69.089 154.526 69.0178H223.855C225.663 68.9836 227.458 69.359 229.119 70.1191C230.78 70.8791 232.27 72.0064 233.489 73.4259C234.708 74.8454 235.629 76.5246 236.19 78.3517C236.751 80.1788 236.94 82.112 236.743 84.0225L222.242 260.139C221.852 264.204 220.074 267.976 217.244 270.742C214.415 273.509 210.729 275.077 206.885 275.151Z" fill="#048CFC"/>
<path d="M223.575 72.4762H205.575C204.988 72.4884 204.423 72.7091 203.969 73.1031C203.514 73.497 203.198 74.0414 203.069 74.6493L202.947 75.2538C202.634 76.7396 201.86 78.0708 200.751 79.0337C199.641 79.9966 198.259 80.5355 196.827 80.564H179.676C178.319 80.5948 177.006 80.0535 176.024 79.0584C175.042 78.0633 174.47 76.6954 174.435 75.2538V74.6493C174.427 74.3558 174.365 74.0668 174.253 73.7988C174.14 73.5307 173.979 73.2889 173.778 73.0871C173.578 72.8853 173.342 72.7275 173.084 72.6227C172.826 72.5178 172.551 72.4681 172.275 72.4762H154.275C151.314 72.5346 148.476 73.7429 146.297 75.873C144.117 78.0031 142.747 80.9075 142.445 84.0378L127.908 260.139C127.755 261.612 127.9 263.102 128.332 264.51C128.763 265.919 129.472 267.214 130.412 268.308C131.351 269.403 132.499 270.272 133.78 270.859C135.06 271.445 136.443 271.734 137.837 271.708H207.173C210.135 271.65 212.973 270.44 215.153 268.309C217.333 266.177 218.702 263.271 219.003 260.139L233.503 84.0378C233.655 82.5658 233.51 81.0764 233.077 79.6686C232.645 78.2609 231.936 76.9671 230.997 75.8734C230.057 74.7796 228.91 73.911 227.63 73.3252C226.35 72.7395 224.968 72.4501 223.575 72.4762Z" fill="#048CFC"/>
<path opacity="0.7" d="M223.575 72.4762H205.575C204.988 72.4884 204.423 72.7091 203.969 73.1031C203.514 73.497 203.198 74.0414 203.069 74.6493L202.947 75.2538C202.634 76.7396 201.86 78.0708 200.751 79.0337C199.641 79.9966 198.259 80.5355 196.827 80.564H179.676C178.319 80.5948 177.006 80.0535 176.024 79.0584C175.042 78.0633 174.47 76.6954 174.435 75.2538V74.6493C174.427 74.3558 174.365 74.0668 174.253 73.7988C174.14 73.5307 173.979 73.2889 173.778 73.0871C173.578 72.8853 173.342 72.7275 173.084 72.6227C172.826 72.5178 172.551 72.4681 172.275 72.4762H154.275C151.314 72.5346 148.476 73.7429 146.297 75.873C144.117 78.0031 142.747 80.9075 142.445 84.0378L127.908 260.139C127.755 261.612 127.9 263.102 128.332 264.51C128.763 265.919 129.472 267.214 130.412 268.308C131.351 269.403 132.499 270.272 133.78 270.859C135.06 271.445 136.443 271.734 137.837 271.708H207.173C210.135 271.65 212.973 270.44 215.153 268.309C217.333 266.177 218.702 263.271 219.003 260.139L233.503 84.0378C233.655 82.5658 233.51 81.0764 233.077 79.6686C232.645 78.2609 231.936 76.9671 230.997 75.8734C230.057 74.7796 228.91 73.911 227.63 73.3252C226.35 72.7395 224.968 72.4501 223.575 72.4762Z" fill="white"/>
<g opacity="0.2">
<path d="M184.082 75.4315C184.656 74.8471 184.714 73.9204 184.211 73.3618C183.708 72.8032 182.834 72.8241 182.259 73.4086C181.685 73.993 181.627 74.9197 182.13 75.4783C182.634 76.0369 183.507 76.016 184.082 75.4315Z" fill="#333333"/>
<path d="M194.436 72.9652H189.713C189.338 72.9724 188.979 73.1251 188.703 73.3943C188.428 73.6635 188.254 74.0307 188.215 74.4267C188.197 74.613 188.216 74.8014 188.271 74.9793C188.326 75.1572 188.417 75.3207 188.536 75.4588C188.655 75.597 188.8 75.7067 188.962 75.7807C189.124 75.8547 189.299 75.8913 189.475 75.8881H194.198C194.573 75.8793 194.931 75.7261 195.206 75.4572C195.482 75.1882 195.656 74.822 195.696 74.4267C195.716 74.2401 195.697 74.0512 195.643 73.8727C195.588 73.6942 195.498 73.5303 195.378 73.3918C195.259 73.2534 195.113 73.1437 194.951 73.0701C194.788 72.9966 194.613 72.9608 194.436 72.9652Z" fill="#333333"/>
</g>
<path d="M150.242 80.5416H151.697L151.826 78.9883H150.365L150.242 80.5416Z" fill="#048CFC"/>
<path d="M153.288 78.989L153.158 80.5423H154.613L154.742 78.989L154.872 77.4434H153.41L153.288 78.989Z" fill="#048CFC"/>
<path d="M156.456 75.8887L156.326 77.4419L156.197 78.9876L156.074 80.5408H157.529L157.658 78.9876L157.788 77.4419L157.91 75.8887H156.456Z" fill="#048CFC"/>
<path d="M219.146 75.9961L219.053 77.1285H218.333L218.146 79.424H218.866L218.772 80.5641H225.187L225.561 76.019L219.146 75.9961ZM221.717 79.4011H219.557L219.744 77.1056H221.904L221.717 79.4011Z" fill="#048CFC"/>
<g opacity="0.4">
<path d="M179.727 80.5645L131.868 269.689C133.605 271.018 135.696 271.726 137.837 271.709H141.581L189.951 80.5645H179.727Z" fill="white"/>
<path d="M223.575 72.4766H205.575C204.988 72.4888 204.423 72.7095 203.969 73.1034C203.515 73.4974 203.198 74.0418 203.069 74.6496L202.947 75.2541C202.642 76.7005 201.901 78.0014 200.837 78.9587C199.772 79.9161 198.442 80.4772 197.05 80.5567L148.651 271.708H185.551L233.503 82.2094C233.35 79.5392 232.231 77.0354 230.38 75.2216C228.53 73.4078 226.091 72.4242 223.575 72.4766Z" fill="white"/>
</g>
<path d="M151.135 123.804L148.975 123.307C148.836 123.278 148.705 123.216 148.59 123.128C148.475 123.039 148.38 122.924 148.312 122.792C148.243 122.66 148.202 122.514 148.193 122.364C148.183 122.213 148.204 122.062 148.255 121.922L151.272 113.551L154.721 114.316L152.266 123.062C152.201 123.315 152.048 123.532 151.839 123.67C151.629 123.808 151.377 123.856 151.135 123.804Z" fill="#048CFC"/>
<path d="M159.502 113.092C159.36 113.059 159.225 112.997 159.106 112.909C158.986 112.821 158.885 112.709 158.806 112.578C158.728 112.448 158.675 112.303 158.649 112.151C158.624 111.999 158.628 111.843 158.659 111.692L158.947 110.253C158.978 110.102 159.037 109.958 159.12 109.83C159.204 109.703 159.31 109.594 159.433 109.511C159.557 109.428 159.694 109.371 159.838 109.345C159.982 109.319 160.13 109.323 160.272 109.358C160.56 109.424 160.811 109.609 160.97 109.871C161.129 110.134 161.184 110.453 161.122 110.758L160.827 112.189C160.763 112.495 160.588 112.762 160.34 112.931C160.091 113.1 159.79 113.158 159.502 113.092Z" fill="#048CFC"/>
<path d="M157.371 105.96C157.371 105.96 149.163 104.966 146.29 103.405C139.536 99.7168 133.078 90.9174 131.71 90.6037C129.478 90.0834 126.439 95.6997 124.913 103.145C123.387 110.59 123.963 117.032 126.195 117.545C127.57 117.866 136.872 112.709 144.461 112.334C147.687 112.181 155.52 114.928 155.52 114.928L157.371 105.96Z" fill="#048CFC"/>
<path opacity="0.3" d="M157.371 105.96C157.371 105.96 149.163 104.966 146.29 103.405C139.536 99.7168 133.078 90.9174 131.71 90.6037C129.478 90.0834 126.439 95.6997 124.913 103.145C123.387 110.59 123.963 117.032 126.195 117.545C127.57 117.866 136.872 112.709 144.461 112.334C147.687 112.181 155.52 114.928 155.52 114.928L157.371 105.96Z" fill="white"/>
<path d="M132.992 104.98C131.472 112.418 128.427 118.034 126.195 117.514C123.963 116.993 123.394 110.551 124.913 103.113C126.432 95.676 129.478 90.0521 131.71 90.5724C133.942 91.0928 134.518 97.566 132.992 104.98Z" fill="#048CFC"/>
<path opacity="0.4" d="M132.992 104.98C131.472 112.418 128.427 118.034 126.195 117.514C123.963 116.993 123.394 110.551 124.913 103.113C126.432 95.676 129.478 90.0521 131.71 90.5724C133.942 91.0928 134.518 97.566 132.992 104.98Z" fill="#333333"/>
<path d="M156.039 104.98L152.23 104.1C151.985 104.043 151.731 104.04 151.485 104.091C151.238 104.142 151.005 104.247 150.798 104.398C150.591 104.55 150.416 104.745 150.283 104.971C150.151 105.198 150.063 105.451 150.027 105.715C149.89 106.732 149.717 107.781 149.501 108.852C149.285 109.923 149.026 110.956 148.781 111.913C148.711 112.169 148.692 112.439 148.724 112.704C148.756 112.969 148.839 113.225 148.968 113.454C149.097 113.684 149.269 113.883 149.474 114.039C149.678 114.195 149.91 114.304 150.156 114.361L154.671 115.402C157.378 116.029 159.329 114.001 159.876 111.109C160.121 109.757 159.856 108.356 159.138 107.21C158.42 106.063 157.307 105.263 156.039 104.98Z" fill="#333333"/>
<path d="M129.075 103.489L128.837 104.66C128.768 104.987 128.81 105.329 128.957 105.626C129.103 105.924 129.344 106.156 129.636 106.282L132.401 107.506C132.617 106.703 132.819 105.869 132.991 105.012C133.164 104.155 133.315 103.298 133.438 102.471L130.435 102.364C130.121 102.353 129.812 102.459 129.563 102.665C129.315 102.87 129.142 103.162 129.075 103.489Z" fill="#333333"/>
<path opacity="0.8" d="M129.075 103.489L128.837 104.66C128.768 104.987 128.81 105.329 128.957 105.626C129.103 105.924 129.344 106.156 129.636 106.282L132.401 107.506C132.617 106.703 132.819 105.869 132.991 105.012C133.164 104.155 133.315 103.298 133.438 102.471L130.435 102.364C130.121 102.353 129.812 102.459 129.563 102.665C129.315 102.87 129.142 103.162 129.075 103.489Z" fill="white"/>
<path opacity="0.2" d="M131.162 104.583C131.011 105.348 130.846 106.037 130.666 106.741L132.401 107.506C132.617 106.703 132.818 105.869 132.991 105.012C133.164 104.155 133.315 103.298 133.438 102.471L131.551 102.402C131.446 103.101 131.316 103.828 131.162 104.583Z" fill="#333333"/>
<path d="M197.683 105.041C198.371 105.321 199.112 105.423 199.844 105.339C200.576 105.256 201.279 104.988 201.895 104.559C204.106 103.029 208.253 104.957 207 111.224C204.84 121.997 200.333 129.733 203.256 132.993C203.256 132.993 193.522 133.467 194.962 124.331C196.042 117.445 203.364 109.701 201.6 108.155C201.01 107.635 200.16 107.903 197.388 107.903L197.683 105.041Z" fill="#333333"/>
<path d="M197.388 107.904C198.722 107.857 200.055 108.028 201.341 108.409C201.795 107.022 201.971 105.55 201.859 104.086C200.441 104.259 199.043 104.579 197.683 105.042L197.388 107.904Z" fill="#048CFC"/>
<path d="M188.222 97.1903C188.222 97.1903 184.176 95.966 186.847 93.1885C190.332 89.5693 195.286 96.3486 195.286 96.3486C195.286 96.3486 206.899 101.743 197.316 114.253C197.316 114.253 193.853 120.834 193.133 118.27C192.413 115.707 197.222 108.446 197.222 108.446L196.934 101.942L195.602 99.4092L191.419 96.8689L188.222 97.1903Z" fill="#333333"/>
<path d="M172.174 133.834C171.9 133.357 171.539 132.943 171.114 132.614C170.688 132.285 170.206 132.048 169.695 131.917C169.183 131.786 168.652 131.764 168.133 131.851C167.613 131.939 167.114 132.134 166.666 132.427H166.608C165.348 133.245 164.009 134.156 162.684 134.998L158.688 137.545C156.816 138.714 154.935 139.849 153.044 140.95C152.935 139.423 152.911 137.89 152.972 136.359C153.022 134.569 153.144 132.74 153.274 130.912C153.404 129.083 153.576 127.208 153.72 125.395V125.349C153.757 124.839 153.619 124.332 153.333 123.922C153.047 123.511 152.631 123.223 152.161 123.112C151.691 123 151.2 123.072 150.776 123.314C150.353 123.557 150.025 123.953 149.854 124.431C149.213 126.275 148.709 128.096 148.205 129.963C147.701 131.83 147.32 133.712 146.981 135.656C146.612 137.673 146.409 139.722 146.376 141.777C146.348 143.07 146.506 144.36 146.844 145.603C147.153 146.714 147.752 147.709 148.572 148.472C149.194 149.03 149.936 149.417 150.732 149.597C151.427 149.74 152.14 149.74 152.835 149.597C153.002 149.557 153.165 149.504 153.324 149.436L153.562 149.337C155.096 148.663 156.622 147.99 158.105 147.225C159.588 146.46 161.072 145.694 162.519 144.891C163.966 144.088 165.399 143.223 166.839 142.328C168.279 141.432 169.618 140.537 171.036 139.497C171.861 138.877 172.435 137.951 172.646 136.902C172.857 135.853 172.688 134.758 172.174 133.834Z" fill="#CE7A63"/>
<path d="M175.68 128.249C178.107 133.444 174.615 137.951 168.214 145.174C164.871 142.293 162.535 138.303 161.583 133.842C161.583 133.842 168.984 127.354 175.68 128.249Z" fill="#048CFC"/>
<path opacity="0.2" d="M175.932 134.415C173.564 132.885 170.892 132.196 169.042 134.698C167.598 136.713 165.924 138.53 164.06 140.108C165.193 142.019 166.603 143.728 168.236 145.174C172.08 140.858 174.831 137.514 175.932 134.415Z" fill="#333333"/>
<path d="M151.92 115.692L153.562 116.848C153.868 117.06 154.122 117.347 154.301 117.685C154.48 118.024 154.58 118.403 154.591 118.791L154.721 122.472C154.742 123.196 154.602 123.915 154.312 124.571C154.022 125.227 153.589 125.8 153.051 126.244L152.367 126.803C149.487 125.081 147.622 120.995 147.622 120.995L146.959 119.893C146.817 119.671 146.718 119.421 146.668 119.158C146.617 118.895 146.617 118.624 146.665 118.361C146.714 118.098 146.812 117.847 146.953 117.624C147.093 117.401 147.274 117.21 147.485 117.062L149.515 115.639C149.878 115.4 150.298 115.278 150.725 115.288C151.152 115.297 151.567 115.438 151.92 115.692Z" fill="#CE7A63"/>
<path d="M170.057 271.708C173.786 259.466 176.335 245.869 173.801 235.945C189.209 187.847 182.261 173.845 182.261 173.845L163.922 166.736C163.922 166.736 161.302 210.052 160.51 231.01C160.07 242.724 158.191 257.958 156.024 271.716L170.057 271.708Z" fill="#333333"/>
<path opacity="0.5" d="M179.568 191.643L175.846 185.262L173.571 190.235C172.384 203.949 172.946 217.77 175.241 231.324C178.207 221.857 180.55 212.183 182.254 202.371L179.568 191.643Z" fill="#333333"/>
<path d="M181.325 271.708H195.228C196.668 258.983 196.668 245.294 192.42 236.143C198.9 185.803 189.54 173.477 189.54 173.477L170.258 170.232C170.258 170.232 175.493 213.28 178.495 233.993C180.043 244.721 180.921 258.639 181.325 271.708Z" fill="#333333"/>
<path d="M167.098 137.921C166.283 141.646 165.706 145.424 165.37 149.231C164.75 154.778 164.297 160.256 163.699 169.415L189.806 173.846C190.447 165.949 192.629 157.188 199.937 140.393C200.35 139.519 200.574 138.559 200.592 137.581C200.61 136.604 200.423 135.634 200.043 134.744C199.664 133.853 199.101 133.064 198.398 132.435C197.694 131.805 196.867 131.35 195.977 131.104C194.962 130.821 193.882 130.545 192.766 130.293C188.862 129.331 184.899 128.666 180.907 128.303C179.604 128.212 178.243 128.158 176.94 128.127C172.231 127.997 167.969 133.063 167.098 137.921Z" fill="#048CFC"/>
<path d="M194.04 115.93C192.406 119.809 190.037 127.024 192.11 130.146C192.11 130.146 188.582 128.96 180.166 132.71C178.445 128.953 180.259 128.119 180.259 128.119C184.745 127.774 185.371 124.438 185.299 121.232L194.04 115.93Z" fill="#CE7A63"/>
<path d="M181.93 131.968C182.382 132.145 182.794 132.423 183.137 132.784C183.48 133.144 183.746 133.578 183.917 134.057C184.06 134.406 184.271 134.718 184.536 134.973C184.801 135.228 185.114 135.421 185.454 135.539C185.794 135.657 186.153 135.697 186.509 135.657C186.864 135.616 187.208 135.496 187.517 135.304C189.677 134.011 192.398 132.167 193.759 130.53C193.054 129.96 192.379 129.349 191.736 128.701C191.736 128.701 183.636 130.668 181.93 131.968Z" fill="white"/>
<path d="M179.59 131.134C178.974 131.24 178.391 131.503 177.89 131.899C177.752 132.007 177.584 132.064 177.413 132.065C177.241 132.065 177.074 132.007 176.935 131.9C176.796 131.793 176.692 131.642 176.639 131.469C176.586 131.296 176.585 131.109 176.638 130.935C177.538 128.227 179.093 127.875 179.093 127.875C179.844 127.57 180.674 127.57 181.426 127.875C180.803 128.094 180.275 128.543 179.938 129.142C179.6 129.74 179.477 130.447 179.59 131.134Z" fill="white"/>
<path opacity="0.2" d="M190.483 118.096L185.328 121.233C185.352 122.001 185.309 122.769 185.198 123.528C186.883 123.528 189.518 122.059 190.094 120.307C190.351 119.602 190.483 118.852 190.483 118.096Z" fill="#333333"/>
<path d="M198.511 108.347C196.351 114.698 195.631 117.422 191.621 119.97C185.638 123.796 178.747 120.085 179.042 113.298C179.316 107.177 182.758 97.8263 189.425 96.7321C190.85 96.4461 192.32 96.5703 193.685 97.0919C195.049 97.6134 196.257 98.5132 197.184 99.6981C198.111 100.883 198.723 102.31 198.956 103.831C199.19 105.351 199.036 106.911 198.511 108.347Z" fill="#CE7A63"/>
<path d="M190.483 108.109C190.325 108.653 189.936 109.028 189.605 108.943C189.274 108.859 189.137 108.354 189.288 107.811C189.439 107.268 189.842 106.9 190.174 106.985C190.505 107.069 190.642 107.574 190.483 108.109Z" fill="#333333"/>
<path d="M184.111 106.304C183.953 106.84 183.557 107.215 183.226 107.131C182.894 107.046 182.758 106.541 182.916 106.006C183.074 105.47 183.47 105.088 183.802 105.172C184.133 105.256 184.27 105.746 184.111 106.304Z" fill="#333333"/>
<path d="M183.938 105.242L182.83 104.561C182.83 104.561 183.161 105.747 183.938 105.242Z" fill="#333333"/>
<path d="M185.961 107.422C185.15 108.545 184.206 109.553 183.153 110.421C183.362 110.683 183.622 110.891 183.916 111.031C184.21 111.172 184.53 111.24 184.853 111.232L185.961 107.422Z" fill="#BA4D3C"/>
<path d="M192.42 104.981C192.379 104.977 192.34 104.963 192.305 104.941C192.27 104.918 192.24 104.887 192.218 104.851C192.022 104.508 191.747 104.223 191.42 104.023C191.093 103.822 190.724 103.712 190.346 103.703C190.307 103.704 190.268 103.697 190.231 103.681C190.195 103.666 190.161 103.643 190.133 103.614C190.105 103.585 190.082 103.55 190.067 103.511C190.052 103.473 190.044 103.431 190.044 103.389C190.049 103.3 190.085 103.215 190.145 103.152C190.204 103.088 190.284 103.05 190.368 103.045C190.845 103.054 191.313 103.188 191.729 103.437C192.145 103.685 192.496 104.04 192.751 104.468C192.779 104.525 192.792 104.588 192.788 104.652C192.785 104.716 192.765 104.778 192.731 104.83C192.697 104.883 192.65 104.925 192.595 104.951C192.54 104.978 192.48 104.988 192.42 104.981Z" fill="#333333"/>
<path d="M182.743 101.759C182.707 101.744 182.675 101.721 182.648 101.692C182.62 101.663 182.599 101.629 182.585 101.591C182.559 101.508 182.566 101.419 182.602 101.342C182.638 101.264 182.702 101.205 182.779 101.177C183.24 100.971 183.74 100.881 184.239 100.912C184.738 100.944 185.224 101.098 185.659 101.361C185.691 101.385 185.719 101.416 185.739 101.452C185.76 101.488 185.773 101.528 185.779 101.57C185.784 101.611 185.781 101.654 185.771 101.694C185.76 101.735 185.742 101.772 185.717 101.805C185.666 101.875 185.594 101.922 185.512 101.937C185.431 101.953 185.347 101.936 185.277 101.889C184.93 101.683 184.543 101.565 184.146 101.543C183.749 101.522 183.353 101.599 182.988 101.767C182.948 101.783 182.907 101.79 182.865 101.789C182.823 101.788 182.781 101.777 182.743 101.759Z" fill="#333333"/>
<path d="M190.311 107.054L189.209 106.373C189.209 106.373 189.533 107.544 190.311 107.054Z" fill="#333333"/>
<path d="M166.565 158.779H160.344C160.042 158.765 159.752 158.647 159.518 158.443C159.285 158.239 159.12 157.959 159.048 157.647L156.168 143.323C156.131 143.188 156.125 143.046 156.151 142.909C156.176 142.771 156.232 142.642 156.313 142.532C156.395 142.422 156.5 142.334 156.62 142.276C156.74 142.218 156.872 142.191 157.003 142.198H163.224C163.526 142.212 163.815 142.329 164.048 142.532C164.282 142.734 164.447 143.012 164.52 143.323L167.4 157.647C167.437 157.782 167.443 157.924 167.417 158.062C167.392 158.2 167.337 158.329 167.255 158.44C167.173 158.55 167.068 158.639 166.948 158.698C166.829 158.757 166.697 158.785 166.565 158.779Z" fill="#333333"/>
<path d="M165.845 158.779H159.624C159.322 158.765 159.032 158.647 158.798 158.443C158.564 158.239 158.399 157.959 158.328 157.647L155.448 143.323C155.411 143.188 155.405 143.046 155.43 142.909C155.456 142.771 155.511 142.642 155.593 142.532C155.675 142.422 155.78 142.334 155.9 142.276C156.02 142.218 156.151 142.191 156.283 142.198H162.504C162.805 142.212 163.094 142.329 163.328 142.532C163.562 142.734 163.727 143.012 163.8 143.323L166.68 157.647C166.717 157.782 166.722 157.924 166.697 158.062C166.672 158.2 166.616 158.329 166.535 158.44C166.453 158.55 166.348 158.639 166.228 158.698C166.108 158.757 165.977 158.785 165.845 158.779Z" fill="#333333"/>
<path opacity="0.2" d="M165.845 158.779H159.624C159.322 158.765 159.032 158.647 158.798 158.443C158.564 158.239 158.399 157.959 158.328 157.647L155.448 143.323C155.411 143.188 155.405 143.046 155.43 142.909C155.456 142.771 155.511 142.642 155.593 142.532C155.675 142.422 155.78 142.334 155.9 142.276C156.02 142.218 156.151 142.191 156.283 142.198H162.504C162.805 142.212 163.094 142.329 163.328 142.532C163.562 142.734 163.727 143.012 163.8 143.323L166.68 157.647C166.717 157.782 166.722 157.924 166.697 158.062C166.672 158.2 166.616 158.329 166.535 158.44C166.453 158.55 166.348 158.639 166.228 158.698C166.108 158.757 165.977 158.785 165.845 158.779Z" fill="white"/>
<path d="M163.613 150.339L165.542 149.888C165.899 149.804 166.269 149.812 166.622 149.91C166.975 150.008 167.301 150.195 167.573 150.454L170.15 152.918C170.656 153.405 171.045 154.013 171.286 154.692C171.528 155.37 171.615 156.099 171.54 156.82L171.439 157.723C168.293 158.71 164.239 157.318 164.239 157.318L163.03 157.057C162.781 157.011 162.543 156.913 162.33 156.769C162.117 156.624 161.933 156.436 161.789 156.215C161.645 155.995 161.544 155.746 161.491 155.483C161.438 155.22 161.435 154.949 161.482 154.685L161.935 152.137C162.024 151.699 162.229 151.296 162.526 150.978C162.824 150.659 163.201 150.437 163.613 150.339Z" fill="#CE7A63"/>
<path d="M196.798 135.441C195.742 135.334 194.69 135.677 193.872 136.395C193.053 137.112 192.537 138.145 192.435 139.267V139.412C192.363 140.177 192.269 141.111 192.175 141.975C192.082 142.84 191.967 143.735 191.844 144.615C191.599 146.383 191.304 148.127 190.973 149.857C190.642 151.586 190.253 153.284 189.785 154.945C189.403 156.276 188.964 157.562 188.496 158.817C187.916 158.841 187.334 158.803 186.761 158.702C184.902 158.405 183.064 157.973 181.26 157.409C179.568 156.842 177.862 156.184 176.155 155.496C174.449 154.807 172.728 154.065 171.051 153.353H171.007C170.556 153.154 170.052 153.137 169.59 153.307C169.128 153.477 168.741 153.821 168.502 154.274C168.263 154.727 168.189 155.258 168.294 155.765C168.398 156.272 168.675 156.721 169.071 157.026C170.655 158.266 172.253 159.322 173.902 160.423C175.551 161.525 177.257 162.466 179.035 163.377C181.083 164.33 183.202 165.098 185.371 165.672C186.545 166.016 187.754 166.201 188.971 166.223C189.787 166.233 190.598 166.107 191.376 165.848C192.467 165.494 193.441 164.817 194.184 163.897C194.313 163.727 194.429 163.545 194.53 163.354L194.602 163.209C195.533 161.387 196.341 159.497 197.021 157.554C197.677 155.66 198.235 153.729 198.691 151.769C199.159 149.834 199.519 147.882 199.815 145.924C199.951 144.937 200.074 143.957 200.182 142.97C200.29 141.983 200.369 141.027 200.419 139.909C200.474 138.812 200.128 137.735 199.453 136.902C198.779 136.069 197.827 135.546 196.798 135.441Z" fill="#CE7A63"/>
<path d="M198 132.059C202.45 135.402 202.666 140.406 200.261 149.986C197.042 151.7 189.223 149.535 189.223 149.535C189.223 149.535 191.686 134.66 198 132.059Z" fill="#048CFC"/>
<path d="M181.987 113.069C181.987 113.069 184.147 112.618 190.015 112.809C189.295 114.676 187.941 116.16 184.91 116.061C184.183 116.111 183.466 115.853 182.918 115.342C182.37 114.831 182.035 114.11 181.987 113.337C181.987 113.245 181.98 113.161 181.987 113.069Z" fill="#333333"/>
<path d="M186.351 114.599C185.189 114.495 184.025 114.781 183.024 115.418C183.577 115.822 184.233 116.038 184.904 116.038C186.064 116.146 187.226 115.859 188.223 115.219C187.676 114.807 187.021 114.59 186.351 114.599Z" fill="#BA4D3C"/>
<path d="M182.253 113.031C182.307 113.262 182.419 113.473 182.578 113.642C182.737 113.81 182.936 113.93 183.153 113.987C184.906 114.04 186.659 113.935 188.395 113.673C188.672 113.654 188.94 113.563 189.176 113.408C189.412 113.253 189.608 113.04 189.749 112.786C187.248 112.657 184.742 112.739 182.253 113.031Z" fill="white"/>
<path d="M189.475 96.3109C189.098 96.3721 188.725 96.4616 188.359 96.5787V96.946C189.306 96.9325 190.25 97.0797 191.153 97.3821C196.135 98.9966 196.913 101.973 195.243 106.373C194.443 108.469 194.011 112.915 194.933 113.749C195.171 113.963 195.891 113.933 196.827 113.749C197.446 112.219 198.036 110.436 198.792 108.186C199.324 106.715 199.477 105.12 199.234 103.565C198.992 102.01 198.364 100.552 197.414 99.3419C196.465 98.1315 195.228 97.2124 193.832 96.6796C192.437 96.1467 190.933 96.0195 189.475 96.3109Z" fill="#333333"/>
<path d="M199.08 114.162C198.618 114.674 198.066 115.084 197.454 115.368C196.842 115.652 196.183 115.804 195.516 115.815C193.788 115.815 193.514 113.917 194.486 112.341C195.357 110.925 197.301 109.219 198.806 109.992C200.311 110.764 200.275 112.853 199.08 114.162Z" fill="#CE7A63"/>
<g opacity="0.9">
<path d="M188.46 146.666C176.335 145.901 170.863 143.49 168.682 142.144C168.611 142.104 168.546 142.055 168.487 141.998C167.861 141.417 168.653 140.353 169.38 140.797C171.288 141.968 176.544 144.347 188.547 145.135C188.736 145.147 188.914 145.238 189.041 145.389C189.168 145.539 189.233 145.737 189.223 145.939C189.219 146.04 189.195 146.139 189.154 146.231C189.113 146.322 189.056 146.404 188.985 146.472C188.914 146.539 188.831 146.591 188.741 146.625C188.651 146.658 188.555 146.672 188.46 146.666Z" fill="white"/>
</g>
<g opacity="0.9">
<path d="M187.827 153.95C187.827 154.054 187.807 154.156 187.769 154.252C187.73 154.347 187.674 154.433 187.603 154.505C187.533 154.577 187.449 154.632 187.357 154.668C187.266 154.704 187.168 154.72 187.071 154.715C180.153 154.448 173.35 152.753 167.04 149.726C166.953 149.68 166.876 149.616 166.813 149.537C166.75 149.459 166.702 149.367 166.673 149.269C166.644 149.17 166.634 149.066 166.644 148.963C166.654 148.86 166.684 148.761 166.731 148.67C166.819 148.499 166.967 148.37 167.142 148.31C167.318 148.25 167.508 148.264 167.674 148.349C173.813 151.267 180.422 152.909 187.143 153.185C187.327 153.195 187.501 153.28 187.629 153.422C187.756 153.564 187.827 153.754 187.827 153.95Z" fill="white"/>
</g>
<g opacity="0.9">
<path d="M175.63 166.706C170.014 165.543 167.127 164.747 165.91 164.41C165.816 164.382 165.729 164.333 165.654 164.268C165.579 164.202 165.517 164.122 165.472 164.03C165.427 163.939 165.4 163.838 165.392 163.735C165.384 163.632 165.396 163.529 165.427 163.431C165.487 163.245 165.611 163.091 165.775 163C165.938 162.909 166.128 162.888 166.306 162.941C167.472 163.293 170.352 164.081 175.903 165.237C176.09 165.276 176.255 165.392 176.362 165.559C176.468 165.727 176.508 165.933 176.472 166.132C176.429 166.325 176.317 166.493 176.16 166.6C176.003 166.707 175.813 166.745 175.63 166.706Z" fill="white"/>
</g>
<path d="M188.446 98.8596C188.204 98.9684 187.931 98.9725 187.687 98.8711C187.442 98.7696 187.244 98.5706 187.135 98.3164C187.037 98.0576 187.004 97.7763 187.04 97.4999C187.075 97.2235 187.177 96.9617 187.337 96.7402C187.66 96.297 188.08 95.9449 188.561 95.7148C188.153 96.2291 187.869 96.8409 187.733 97.4977C187.747 98.0945 187.92 99.0509 188.446 98.8596Z" fill="#333333"/>
<path d="M194.457 114.476C194.456 114.547 194.441 114.616 194.412 114.679C194.384 114.743 194.343 114.799 194.293 114.845C194.243 114.89 194.184 114.924 194.12 114.943C194.057 114.963 193.99 114.968 193.925 114.958C193.793 114.928 193.671 114.859 193.575 114.759C193.478 114.659 193.41 114.532 193.377 114.392C193.323 114.109 193.323 113.818 193.377 113.535C193.421 112.883 193.57 112.244 193.817 111.645C194.065 111.042 194.517 110.559 195.084 110.291C195.185 110.419 195.25 110.574 195.27 110.74C195.291 110.905 195.266 111.074 195.199 111.225C195.051 111.494 194.882 111.749 194.695 111.99C194.478 112.332 194.337 112.722 194.284 113.13C194.23 113.538 194.265 113.954 194.386 114.346C194.443 114.362 194.4 114.469 194.457 114.476Z" fill="#333333"/>
<path d="M113.335 163.01H62.0714C60.1809 163.01 58.3679 163.808 57.0311 165.228C55.6943 166.649 54.9434 168.576 54.9434 170.585V211.995C54.9434 214.004 55.6943 215.931 57.0311 217.352C58.3679 218.772 60.1809 219.57 62.0714 219.57H100.8C101.176 222.812 102.654 225.797 104.956 227.961C107.258 230.126 110.226 231.322 113.299 231.323C113.58 231.323 113.861 231.323 114.142 231.277C112.14 228.477 110.506 224.391 109.433 219.57H113.357C115.247 219.57 117.06 218.772 118.397 217.352C119.734 215.931 120.485 214.004 120.485 211.995V170.585C120.485 169.588 120.3 168.601 119.94 167.681C119.581 166.76 119.054 165.924 118.39 165.22C117.725 164.517 116.937 163.959 116.07 163.58C115.202 163.2 114.273 163.007 113.335 163.01Z" fill="#048CFC"/>
<path opacity="0.4" d="M113.335 163.01H62.0714C60.1809 163.01 58.3679 163.808 57.0311 165.228C55.6943 166.649 54.9434 168.576 54.9434 170.585V211.995C54.9434 214.004 55.6943 215.931 57.0311 217.352C58.3679 218.772 60.1809 219.57 62.0714 219.57H100.8C101.176 222.812 102.654 225.797 104.956 227.961C107.258 230.126 110.226 231.322 113.299 231.323C113.58 231.323 113.861 231.323 114.142 231.277C112.14 228.477 110.506 224.391 109.433 219.57H113.357C115.247 219.57 117.06 218.772 118.397 217.352C119.734 215.931 120.485 214.004 120.485 211.995V170.585C120.485 169.588 120.3 168.601 119.94 167.681C119.581 166.76 119.054 165.924 118.39 165.22C117.725 164.517 116.937 163.959 116.07 163.58C115.202 163.2 114.273 163.007 113.335 163.01Z" fill="white"/>
<path d="M123.603 180.609L127.591 176.684L131.004 183.394C131.004 183.394 127.051 186.6 124.711 184.626L123.603 180.609Z" fill="#FF8B7B"/>
<path d="M123.603 180.602L120.888 186.738L124.611 190.013L127.865 184.412L123.603 180.602Z" fill="#FF8B7B"/>
<path d="M131.386 177.594L132.041 180.126C132.203 180.718 132.191 181.349 132.005 181.933C131.82 182.517 131.47 183.027 131.004 183.394L129.564 184.411L125.489 176.806L128.981 175.872C129.245 175.814 129.518 175.813 129.783 175.869C130.048 175.925 130.299 176.036 130.523 176.196C130.747 176.357 130.939 176.563 131.087 176.803C131.235 177.043 131.337 177.312 131.386 177.594Z" fill="#FF8B7B"/>
<path d="M123.603 180.609C123.603 180.609 125.043 175.88 124.812 174.434C124.69 173.569 125.532 173.707 126.209 173.967C126.47 174.062 126.698 174.238 126.862 174.473C127.027 174.708 127.12 174.991 127.131 175.283C127.188 176.814 127.131 179.798 126.029 179.989C125.205 180.122 124.393 180.329 123.603 180.609Z" fill="#FF8B7B"/>
<path d="M128.261 185.521C127.142 184.191 125.65 183.279 124.006 182.919L122.796 182.651C122.076 182.498 121.939 182.651 121.853 182.873L121.507 183.447L120.787 184.587C120.312 185.352 119.837 186.118 119.347 186.883C118.39 188.413 117.389 189.844 116.381 191.236C115.437 192.568 114.399 193.821 113.278 194.986L112.982 195.276C112.608 194.848 112.262 194.397 111.888 193.93C110.834 192.514 109.851 191.04 108.943 189.515C108.014 187.985 105.005 183.348 104.184 181.68C103.774 180.853 103.37 180.012 102.989 179.17L102.434 177.907C102.269 177.502 102.067 177.027 101.952 176.721L101.873 176.522C101.282 175.142 100.202 174.066 98.8671 173.529C97.5324 172.993 96.0522 173.04 94.7498 173.659C93.4475 174.279 92.4289 175.421 91.9166 176.837C91.4043 178.252 91.44 179.825 92.0159 181.213C92.2751 181.833 92.4767 182.276 92.7359 182.789L93.4559 184.258C93.9359 185.232 94.4159 186.189 94.8959 187.128C95.9183 189.017 99.1727 193.838 100.368 195.651C101.579 197.498 102.904 199.256 104.335 200.916C105.84 202.681 107.507 204.283 109.31 205.698L109.534 205.874C110.087 206.301 110.725 206.588 111.399 206.714C112.072 206.84 112.764 206.801 113.422 206.601C114.889 206.146 116.257 205.386 117.446 204.367C118.355 203.601 119.201 202.753 119.974 201.834C121.325 200.219 122.555 198.495 123.653 196.677C124.711 194.94 125.64 193.165 126.533 191.389C126.958 190.487 127.375 189.591 127.764 188.673L128.34 187.296L128.621 186.6C128.707 186.355 128.75 186.087 128.261 185.521Z" fill="#333333"/>
<path opacity="0.4" d="M101.578 183.088L97.6176 186.064L96.48 188.941C96.6744 189.324 96.8616 189.707 97.0632 190.089C98.0784 191.979 99.2232 193.815 100.39 195.629C101.601 197.475 102.926 199.234 104.357 200.893C105.077 201.658 105.797 202.423 106.517 203.189C104.573 198.33 101.578 183.088 101.578 183.088Z" fill="#333333"/>
<path d="M66.1823 206.349C66.4919 214 65.3543 213.648 65.3255 219.571H100.411C102.319 201.505 101.426 198.728 101.462 186.738C101.462 179.989 100.49 173.103 94.1687 172.399C86.7438 171.629 79.2637 171.68 71.8487 172.552C70.7379 172.696 69.6653 173.074 68.6939 173.664C67.7224 174.254 66.8717 175.045 66.1917 175.989C65.5116 176.933 65.0159 178.013 64.7336 179.163C64.4514 180.314 64.3882 181.513 64.5479 182.69C65.9663 192.89 65.1959 198.667 66.1823 206.349Z" fill="#333333"/>
<path opacity="0.9" d="M90.9648 172.115C86.2902 171.79 81.6012 171.775 76.9248 172.069C77.0256 173.6 78.12 177.425 86.0904 180.739C86.0904 180.739 87.8688 176.637 89.3664 178.481C89.3664 178.481 90.5688 176.125 93.1464 180.463C93.1464 180.463 96.9912 176.086 90.9648 172.115Z" fill="white"/>
<path opacity="0.4" d="M72 182.965C72.7704 190.058 68.508 201.918 66.24 207.649C66.24 207.251 66.24 206.815 66.24 206.348C65.6208 201.558 65.6928 197.503 65.52 192.667L72 182.965Z" fill="#333333"/>
<path d="M80.3662 158.541C80.4844 163.194 79.6388 167.817 77.8894 172.084C77.8245 172.247 77.8083 172.426 77.8431 172.599C77.8779 172.772 77.962 172.929 78.0838 173.048C81.0218 175.74 84.7892 177.189 88.6678 177.119C93.3838 177.18 93.1102 175.589 91.9942 173.852C91.8316 173.605 91.6203 173.399 91.375 173.247C88.1494 171.212 88.0342 168.488 88.9414 166.843L80.3662 158.541Z" fill="#FF8B7B"/>
<path opacity="0.2" d="M80.374 158.541L88.942 166.843C88.6558 167.366 88.4902 167.953 88.4589 168.557C88.4277 169.161 88.5315 169.764 88.762 170.317C86.9542 170.377 85.192 169.707 83.83 168.442C81.6196 166.445 80.8708 164.088 80.3164 160.791C80.3596 160.071 80.374 159.306 80.374 158.541Z" fill="#333333"/>
<path d="M77.8179 154.226C78.1923 160.347 77.3787 161.327 80.3019 164.425C84.7011 169.085 91.8651 169.973 92.8803 163.775C93.7875 158.189 94.3203 148.082 88.6395 145.725C87.3877 145.196 86.0295 145.015 84.6934 145.199C83.3574 145.383 82.0876 145.926 81.0042 146.777C79.9208 147.628 79.0596 148.759 78.502 150.062C77.9445 151.366 77.709 152.799 77.8179 154.226Z" fill="#FF8B7B"/>
<path d="M91.8002 160.838C91.8002 160.838 89.777 160.157 84.0386 159.896C84.6506 162.085 85.853 163.906 88.7906 164.005C91.7282 164.105 91.8002 160.838 91.8002 160.838Z" fill="#333333"/>
<path d="M87.4803 162.222C88.6357 162.202 89.7594 162.623 90.6483 163.408C90.1171 163.831 89.4597 164.035 88.7979 163.982C87.6404 164.007 86.5141 163.582 85.6299 162.788C86.162 162.368 86.8194 162.167 87.4803 162.222Z" fill="#FF5652"/>
<path d="M91.5408 160.738C91.368 161.189 91.188 161.648 90.612 161.771C88.913 161.686 87.2255 161.429 85.572 161.006C85.288 160.951 85.0223 160.819 84.8012 160.621C84.5802 160.424 84.4116 160.169 84.312 159.881C86.7412 159.931 89.161 160.218 91.5408 160.738Z" fill="white"/>
<path d="M89.5464 155.121C90.1531 156.262 90.9068 157.308 91.7856 158.228C91.5586 158.464 91.2854 158.644 90.9855 158.755C90.6856 158.866 90.3663 158.905 90.0504 158.87L89.5464 155.121Z" fill="#FF5652"/>
<path d="M83.8659 152.481C83.8167 152.474 83.7711 152.45 83.7363 152.412C83.7091 152.384 83.6875 152.35 83.6727 152.312C83.658 152.275 83.6504 152.235 83.6504 152.194C83.6504 152.154 83.658 152.113 83.6727 152.076C83.6875 152.038 83.7091 152.005 83.7363 151.976C84.0347 151.604 84.4127 151.313 84.8386 151.128C85.2646 150.943 85.726 150.869 86.1843 150.912C86.2607 150.925 86.3294 150.969 86.3753 151.035C86.4212 151.101 86.4406 151.183 86.4291 151.264C86.4177 151.346 86.3763 151.419 86.3142 151.467C86.2521 151.516 86.1743 151.537 86.0979 151.525C85.7336 151.495 85.3679 151.557 85.031 151.708C84.6942 151.858 84.396 152.092 84.1611 152.389C84.1251 152.433 84.0783 152.464 84.026 152.481C83.9738 152.497 83.9182 152.497 83.8659 152.481Z" fill="#333333"/>
<path d="M93.4271 153.569C93.3802 153.577 93.3319 153.574 93.2866 153.557C93.2414 153.541 93.2006 153.514 93.1679 153.477C92.9291 153.188 92.6288 152.963 92.292 152.822C91.9551 152.681 91.5914 152.627 91.2311 152.666C91.1568 152.679 91.0804 152.661 91.0185 152.615C90.9565 152.569 90.914 152.5 90.8999 152.421C90.8873 152.34 90.9052 152.257 90.9496 152.19C90.994 152.122 91.0615 152.076 91.1375 152.061C91.5917 152.008 92.0512 152.071 92.4781 152.244C92.905 152.417 93.2871 152.695 93.5927 153.056C93.62 153.084 93.6416 153.118 93.6563 153.156C93.6711 153.193 93.6787 153.233 93.6787 153.274C93.6787 153.315 93.6711 153.355 93.6563 153.392C93.6416 153.43 93.62 153.464 93.5927 153.492C93.5462 153.535 93.4884 153.562 93.4271 153.569Z" fill="#333333"/>
<path d="M55.4977 207.596C55.5102 207.885 55.5512 208.172 55.6201 208.453C56.2706 210.899 57.1161 213.282 58.1473 215.576C58.6705 216.79 59.2105 217.984 59.7673 219.157C60.509 219.427 61.2872 219.567 62.0713 219.57H69.8401L69.0697 217.742C68.2129 215.745 67.4209 213.74 66.7009 211.758C66.1012 210.151 65.5962 208.505 65.1889 206.83C65.2706 206.19 65.3933 205.556 65.5561 204.933C65.7793 204.015 66.0817 203.02 66.4273 202.01C67.1473 199.998 67.9393 197.924 68.8033 195.889C69.6673 193.853 70.6249 191.765 71.5897 189.706C72.5545 187.648 73.5625 185.567 74.5633 183.623V183.554L74.6137 183.44C75.2668 182.085 75.3867 180.51 74.9472 179.062C74.5077 177.613 73.5447 176.409 72.2701 175.715C70.9955 175.021 69.5136 174.894 68.1505 175.361C66.7874 175.828 65.6548 176.851 65.0017 178.206C63.9217 180.456 62.9497 182.606 61.9705 184.832C60.9913 187.059 60.1057 189.308 59.2417 191.604C58.3777 193.899 57.6001 196.218 56.8801 198.705C56.5273 199.952 56.2105 201.237 55.9441 202.622C55.6129 204.199 55.4606 205.812 55.4905 207.427L55.4977 207.596Z" fill="#333333"/>
<path d="M75.2043 158.327C75.7035 159.639 76.6532 160.7 77.8611 161.295C79.4019 161.999 80.2515 160.4 79.8843 158.564C79.5603 156.919 78.3579 154.562 76.7811 154.639C75.2043 154.715 74.5491 156.643 75.2043 158.327Z" fill="#FF8B7B"/>
<path d="M85.2266 154.563C85.2266 155.091 85.4354 155.543 85.7738 155.566C86.1122 155.589 86.393 155.175 86.4146 154.632C86.4362 154.089 86.2058 153.653 85.8746 153.63C85.5434 153.607 85.2554 154.02 85.2266 154.563Z" fill="#333333" fill-opacity="0.2"/>
<path d="M90.9219 154.915C90.9219 155.451 91.1379 155.902 91.4619 155.925C91.7859 155.948 92.0811 155.527 92.1171 154.992C92.1531 154.456 91.9011 154.012 91.5771 153.989C91.2531 153.966 90.9507 154.379 90.9219 154.915Z" fill="#333333" fill-opacity="0.2"/>
<path d="M107.395 55.6817H56.1599C54.2706 55.6837 52.4595 56.4827 51.1243 57.9031C49.7891 59.3235 49.0391 61.2491 49.0391 63.2568V104.667C49.0381 105.662 49.2216 106.646 49.579 107.565C49.9365 108.484 50.4608 109.32 51.1222 110.023C51.7835 110.727 52.5688 111.285 53.4332 111.665C54.2976 112.046 55.2241 112.242 56.1599 112.242H94.8743C95.2454 115.486 96.7209 118.473 99.0223 120.639C101.324 122.806 104.292 124.002 107.366 124.003C107.654 124.003 107.935 124.003 108.216 123.957C106.214 121.149 104.573 117.07 103.507 112.242H107.431C109.322 112.242 111.135 111.444 112.471 110.024C113.808 108.603 114.559 106.676 114.559 104.667V63.2568C114.558 62.2591 114.372 61.2713 114.011 60.3503C113.65 59.4292 113.122 58.5928 112.456 57.8891C111.791 57.1854 111.001 56.6282 110.133 56.2494C109.264 55.8706 108.334 55.6777 107.395 55.6817Z" fill="#048CFC"/>
<path opacity="0.4" d="M107.395 55.6817H56.1599C54.2706 55.6837 52.4595 56.4827 51.1243 57.9031C49.7891 59.3235 49.0391 61.2491 49.0391 63.2568V104.667C49.0381 105.662 49.2216 106.646 49.579 107.565C49.9365 108.484 50.4608 109.32 51.1222 110.023C51.7835 110.727 52.5688 111.285 53.4332 111.665C54.2976 112.046 55.2241 112.242 56.1599 112.242H94.8743C95.2454 115.486 96.7209 118.473 99.0223 120.639C101.324 122.806 104.292 124.002 107.366 124.003C107.654 124.003 107.935 124.003 108.216 123.957C106.214 121.149 104.573 117.07 103.507 112.242H107.431C109.322 112.242 111.135 111.444 112.471 110.024C113.808 108.603 114.559 106.676 114.559 104.667V63.2568C114.558 62.2591 114.372 61.2713 114.011 60.3503C113.65 59.4292 113.122 58.5928 112.456 57.8891C111.791 57.1854 111.001 56.6282 110.133 56.2494C109.264 55.8706 108.334 55.6777 107.395 55.6817Z" fill="white"/>
<path d="M94.8384 112.242C94.5446 107.794 94.5446 103.33 94.8384 98.8823C95.2848 91.0471 93.0816 82.5768 91.4184 81.1306C89.0208 79.0265 86.7888 77.0447 85.9968 79.6921C85.536 81.2225 85.3992 83.7475 85.428 86.5786C85.5 93.4191 86.868 101.951 87.516 105.891C87.7536 107.284 88.3512 112.25 88.3512 112.25L94.8384 112.242Z" fill="#048CFC"/>
<path d="M90.3599 81.4669C90.2778 80.9045 90.0445 80.3792 89.6881 79.9543C89.3318 79.5295 88.8675 79.2231 88.3511 79.072C86.5511 78.5593 83.4407 77.7253 80.6111 77.1897C77.2767 76.6139 73.9084 76.2866 70.5311 76.2103C68.3711 76.1185 66.2975 76.2103 64.6343 76.2868C64.4372 76.3032 64.2419 76.3391 64.0511 76.3939C63.6997 76.4998 63.3714 76.6782 63.085 76.9189C62.7985 77.1597 62.5596 77.4581 62.3817 77.797C62.2038 78.136 62.0906 78.5089 62.0484 78.8944C62.0062 79.2799 62.0359 79.6705 62.1359 80.0438C66.4055 96.2422 67.2911 103.993 67.5143 112.242H88.3511C89.3231 104.758 91.2311 98.6141 91.4039 94.2145C91.5522 89.9358 91.2015 85.6541 90.3599 81.4669Z" fill="#048CFC"/>
<path opacity="0.8" d="M90.3599 81.4669C90.2778 80.9045 90.0445 80.3792 89.6881 79.9543C89.3318 79.5295 88.8675 79.2231 88.3511 79.072C86.5511 78.5593 83.4407 77.7253 80.6111 77.1897C77.2767 76.6139 73.9084 76.2866 70.5311 76.2103C68.3711 76.1185 66.2975 76.2103 64.6343 76.2868C64.4372 76.3032 64.2419 76.3391 64.0511 76.3939C63.6997 76.4998 63.3714 76.6782 63.085 76.9189C62.7985 77.1597 62.5596 77.4581 62.3817 77.797C62.2038 78.136 62.0906 78.5089 62.0484 78.8944C62.0062 79.2799 62.0359 79.6705 62.1359 80.0438C66.4055 96.2422 67.2911 103.993 67.5143 112.242H88.3511C89.3231 104.758 91.2311 98.6141 91.4039 94.2145C91.5522 89.9358 91.2015 85.6541 90.3599 81.4669Z" fill="white"/>
<path d="M81.7991 73.4475C80.4311 75.414 79.4303 77.7477 81.5759 80.3339C82.0412 80.8735 82.3138 81.5693 82.3463 82.3004C82.3463 83.4711 81.7343 84.5959 78.1487 82.3616C72.9503 79.1173 73.3895 75.4752 73.3895 75.4752C76.1183 74.5953 77.7527 68.4969 78.3863 65.0078L81.7991 73.4475Z" fill="#FFB573"/>
<path opacity="0.2" d="M78.6741 70.219C78.2781 71.7034 79.7541 74.0448 80.8773 75.0089C81.139 74.4711 81.445 73.959 81.7917 73.4786L79.7757 68.4668C79.3043 68.9687 78.93 69.564 78.6741 70.219Z" fill="#333333"/>
<path d="M92.3543 55.0985C94.1831 57.5623 90.0647 64.9843 89.6183 63.4311C88.8983 60.906 87.8471 55.7795 87.8615 53.6753C87.8903 50.3545 90.5327 52.6423 92.3543 55.0985Z" fill="#333333"/>
<path d="M77.1911 55.8715C77.6765 54.9936 78.3198 54.2259 79.0845 53.6123C79.8491 52.9988 80.7199 52.5513 81.6473 52.2955C82.5747 52.0397 83.5404 51.9805 84.4893 52.1215C85.4382 52.2625 86.3517 52.6007 87.1775 53.1169C92.0807 56.1317 91.7063 64.5943 89.9063 69.4607C87.9335 74.8857 81.2663 75.582 77.8175 70.6467C75.4991 67.3565 75.7943 64.9616 76.2047 59.2918C76.2765 58.0852 76.6144 56.9136 77.1911 55.8715Z" fill="#FFB573"/>
<path d="M83.7069 62.1301C83.6709 62.5969 83.8653 62.9948 84.1461 63.0254C84.4269 63.056 84.6933 62.704 84.7437 62.2602C84.7941 61.8164 84.5853 61.3956 84.3045 61.365C84.0237 61.3344 83.7717 61.7246 83.7069 62.1301Z" fill="#333333"/>
<path d="M84.1606 61.4351L85.2334 61.2285C85.2334 61.2285 84.6286 62.009 84.1606 61.4351Z" fill="#333333"/>
<path d="M89.1646 63.4545C89.1646 63.9212 89.323 64.3191 89.6038 64.3497C89.8846 64.3803 90.151 64.0283 90.2014 63.5846C90.2518 63.1408 90.043 62.7199 89.7622 62.6893C89.4814 62.6587 89.2294 63.0183 89.1646 63.4545Z" fill="#333333"/>
<path d="M89.6182 62.7281L90.691 62.5215C90.691 62.5215 90.0862 63.3019 89.6182 62.7281Z" fill="#333333"/>
<path d="M87.1201 66.9516C87.3725 67.0607 87.6442 67.1103 87.9164 67.0971C88.1886 67.0838 88.4549 67.0081 88.6969 66.8751C88.1789 65.8853 87.7912 64.8246 87.5449 63.7227L87.1201 66.9516Z" fill="#ED893E"/>
<path d="M83.0087 66.7603C82.9954 66.7275 82.994 66.6907 83.0046 66.6568C83.0152 66.623 83.0372 66.5944 83.0663 66.5767C83.0969 66.5607 83.1322 66.5581 83.1645 66.5696C83.1969 66.581 83.2237 66.6056 83.2391 66.6379C83.505 67.1398 83.8794 67.5673 84.3313 67.8852C84.7832 68.2032 85.2997 68.4025 85.8383 68.4666C85.8694 68.4755 85.8965 68.4957 85.9149 68.5236C85.9333 68.5516 85.9419 68.5856 85.9391 68.6196C85.9374 68.6365 85.9324 68.6529 85.9245 68.6676C85.9165 68.6823 85.9058 68.6951 85.8929 68.7052C85.88 68.7153 85.8653 68.7224 85.8497 68.7261C85.8342 68.7298 85.818 68.73 85.8023 68.7268C85.5951 68.7026 85.3903 68.6591 85.1903 68.5967C84.7302 68.4598 84.3003 68.2269 83.9258 67.9116C83.5512 67.5963 83.2395 67.2049 83.0087 66.7603Z" fill="#333333"/>
<path d="M83.5201 59.1853C83.48 59.1284 83.4628 59.057 83.4723 58.9867C83.4817 58.9164 83.5171 58.853 83.5705 58.8103C83.9983 58.5348 84.4765 58.3595 84.9732 58.2961C85.4699 58.2328 85.9735 58.2829 86.4505 58.4431C86.5138 58.4674 86.5658 58.5169 86.5953 58.5811C86.6249 58.6454 86.6298 58.7194 86.6089 58.7874C86.5876 58.8541 86.5423 58.9092 86.483 58.9407C86.4237 58.9722 86.3552 58.9776 86.2921 58.9557C85.8944 58.8194 85.4741 58.7734 85.0586 58.8209C84.643 58.8684 84.2415 59.0081 83.8801 59.2312C83.8381 59.2666 83.7861 59.2858 83.7325 59.2858C83.6789 59.2858 83.6269 59.2666 83.5849 59.2312L83.5201 59.1853Z" fill="#333333"/>
<path d="M91.3752 60.9524C91.2022 60.6648 90.9667 60.4257 90.6885 60.2553C90.4103 60.0848 90.0976 59.988 89.7768 59.9729C89.7431 59.974 89.7095 59.9678 89.6781 59.9548C89.6467 59.9418 89.6181 59.9222 89.5939 59.8973C89.5697 59.8723 89.5505 59.8424 89.5374 59.8094C89.5243 59.7764 89.5176 59.741 89.5176 59.7051C89.5176 59.6334 89.5439 59.5645 89.5909 59.513C89.638 59.4616 89.7021 59.4317 89.7696 59.4297C90.1741 59.4448 90.5695 59.5624 90.9226 59.7727C91.2758 59.9829 91.5766 60.2798 91.8 60.6386C91.8186 60.6676 91.8315 60.7002 91.838 60.7345C91.8444 60.7689 91.8443 60.8043 91.8376 60.8386C91.8309 60.8729 91.8177 60.9054 91.7988 60.9341C91.78 60.9629 91.7559 60.9873 91.728 61.0059C91.6905 61.0319 91.6467 61.0458 91.602 61.0458C91.5572 61.0458 91.5134 61.0319 91.476 61.0059L91.3752 60.9524Z" fill="#333333"/>
<path d="M84.8229 54.7391C84.0186 54.8995 83.2578 55.2477 82.5954 55.7584C81.933 56.2692 81.3855 56.9298 80.9925 57.6926C80.6253 58.4119 78.2637 59.9881 77.8605 60.6997C76.5933 62.9416 77.9757 69.3231 77.3781 69.8051C76.7805 70.2872 76.9893 68.3972 76.4205 68.0299C75.817 67.7404 75.2387 67.3948 74.6925 66.997C73.9725 66.3542 71.4741 59.4296 74.5557 55.2365C76.0891 53.0248 78.3337 51.4889 80.8629 50.921C83.4253 50.4582 86.0559 51.0938 88.1781 52.6885C88.8477 53.2012 90.0213 54.6014 88.1781 55.2288C87.6741 55.3972 87.6525 54.9687 87.1269 54.831C86.3741 54.6242 85.5882 54.5929 84.8229 54.7391Z" fill="#333333"/>
<path d="M72.5687 60.7C74.3471 58.8636 76.5647 58.8636 78.5231 58.8636C79.4536 58.9419 80.3896 58.8302 81.2807 58.5346C83.2535 57.624 84.4631 54.6323 84.6863 53.6529C84.8056 53.2521 85.0189 52.8901 85.306 52.601C85.5932 52.3119 85.9448 52.1051 86.3279 52.0001C86.6396 51.9839 86.9507 52.0445 87.2367 52.1772C87.5227 52.31 87.776 52.5112 87.9767 52.7653C88.3295 53.3085 88.2935 54.0967 87.8687 55.0608L88.1495 55.1908C88.6175 54.0814 88.6391 53.1938 88.2287 52.551C87.9967 52.2531 87.7032 52.016 87.3711 51.8581C87.039 51.7002 86.6771 51.6258 86.3135 51.6405C85.8635 51.7472 85.4482 51.9791 85.1104 52.3126C84.7726 52.6461 84.5243 53.069 84.3911 53.5381C84.1895 54.441 83.0015 57.3639 81.1583 58.2056C80.306 58.4838 79.4113 58.5851 78.5231 58.504C76.6079 58.504 74.2031 58.504 72.3599 60.4322L72.5687 60.7Z" fill="#333333"/>
<path opacity="0.1" d="M72.5687 60.7C74.3471 58.8636 76.5647 58.8636 78.5231 58.8636C79.4536 58.9419 80.3896 58.8302 81.2807 58.5346C83.2535 57.624 84.4631 54.6323 84.6863 53.6529C84.8056 53.2521 85.0189 52.8901 85.306 52.601C85.5932 52.3119 85.9448 52.1051 86.3279 52.0001C86.6396 51.9839 86.9507 52.0445 87.2367 52.1772C87.5227 52.31 87.776 52.5112 87.9767 52.7653C88.3295 53.3085 88.2935 54.0967 87.8687 55.0608L88.1495 55.1908C88.6175 54.0814 88.6391 53.1938 88.2287 52.551C87.9967 52.2531 87.7032 52.016 87.3711 51.8581C87.039 51.7002 86.6771 51.6258 86.3135 51.6405C85.8635 51.7472 85.4482 51.9791 85.1104 52.3126C84.7726 52.6461 84.5243 53.069 84.3911 53.5381C84.1895 54.441 83.0015 57.3639 81.1583 58.2056C80.306 58.4838 79.4113 58.5851 78.5231 58.504C76.6079 58.504 74.2031 58.504 72.3599 60.4322L72.5687 60.7Z" fill="white"/>
<path d="M74.0949 62.8496C74.1242 62.6067 74.1983 62.3723 74.3131 62.16C74.4278 61.9476 74.5809 61.7614 74.7636 61.6121C74.9462 61.4628 75.1548 61.3533 75.3774 61.29C75.5999 61.2266 75.8321 61.2105 76.0605 61.2427C77.3853 61.457 77.9901 63.3546 77.9901 64.5941C77.9901 65.9638 77.0325 66.9814 75.8661 66.2086C74.9922 65.6164 74.3738 64.6814 74.1453 63.6071C74.0784 63.3612 74.0612 63.103 74.0949 62.8496Z" fill="#FFB573"/>
<path d="M76.4493 83.0417C76.1685 86.9593 72.7629 101.758 65.3829 102.171C64.207 102.206 63.0615 101.772 62.1717 100.954C56.2245 97.1283 60.8973 78.688 62.0925 77.6168C62.6114 77.1438 63.2337 76.8166 63.9023 76.6652C64.571 76.5138 65.2647 76.5429 65.92 76.7499C66.5753 76.957 67.1714 77.3353 67.6536 77.8503C68.1358 78.3653 68.4889 79.0006 68.6805 79.698C68.8359 79.1145 68.9585 78.5218 69.0477 77.9228C69.3573 75.9258 70.3797 71.2736 72.2661 70.9369C73.4037 70.7303 75.7437 70.6232 76.4205 71.6103C77.0973 72.5973 76.9173 76.5761 76.4493 83.0417Z" fill="#048CFC"/>
<g opacity="0.2">
<path d="M76.0605 61.2441V61.5885L76.3989 64.9858V69.3625L76.9605 66.7609C77.1031 66.0831 77.1347 65.3843 77.0541 64.695L76.6581 61.4354L76.0605 61.2441Z" fill="#333333"/>
</g>
<path d="M72.3597 71.7267L71.4741 64.9092L76.8237 64.8633C76.8237 64.8633 76.3845 69.9822 75.0453 71.7497L72.3597 71.7267Z" fill="#FFB573"/>
<path d="M72.4173 60.248L76.3773 60.9903L76.8021 64.8467L71.4741 64.9079L72.4173 60.248Z" fill="#FFB573"/>
<path opacity="0.2" d="M67.0394 85.9043C67.0394 85.9043 63.8354 93.7701 63.7346 90.6559C63.6338 87.2663 67.0394 85.9043 67.0394 85.9043Z" fill="#333333"/>
<path d="M264.521 131.896H244.706C243.799 131.896 242.929 132.279 242.288 132.961C241.646 133.643 241.286 134.567 241.286 135.531V149.09C241.288 150.052 241.649 150.975 242.29 151.655C242.932 152.335 243.8 152.716 244.706 152.716H250.401L252.943 156.251C253.138 156.524 253.391 156.745 253.68 156.898C253.969 157.05 254.287 157.129 254.61 157.129C254.932 157.129 255.251 157.05 255.54 156.898C255.829 156.745 256.081 156.524 256.277 156.251L258.818 152.716H264.521C265.426 152.716 266.294 152.334 266.934 151.654C267.574 150.974 267.933 150.051 267.933 149.09V135.531C267.933 134.568 267.574 133.645 266.934 132.964C266.294 132.282 265.426 131.899 264.521 131.896Z" fill="#048CFC"/>
<path opacity="0.7" d="M264.521 131.896H244.706C243.799 131.896 242.929 132.279 242.288 132.961C241.646 133.643 241.286 134.567 241.286 135.531V149.09C241.288 150.052 241.649 150.975 242.29 151.655C242.932 152.335 243.8 152.716 244.706 152.716H250.401L252.943 156.251C253.138 156.524 253.391 156.745 253.68 156.898C253.969 157.05 254.287 157.129 254.61 157.129C254.932 157.129 255.251 157.05 255.54 156.898C255.829 156.745 256.081 156.524 256.277 156.251L258.818 152.716H264.521C265.426 152.716 266.294 152.334 266.934 151.654C267.574 150.974 267.933 150.051 267.933 149.09V135.531C267.933 134.568 267.574 133.645 266.934 132.964C266.294 132.282 265.426 131.899 264.521 131.896Z" fill="white"/>
<path d="M263.369 141.216L257.04 137.115V139.579H254.16C252.296 139.579 250.509 140.366 249.191 141.766C247.873 143.167 247.133 145.066 247.133 147.047C247.135 147.6 247.193 148.152 247.306 148.692C247.659 147.04 248.53 145.565 249.775 144.507C251.02 143.45 252.566 142.872 254.16 142.869H257.04V145.341L263.369 141.216Z" fill="#048CFC"/>
<path d="M125.1 48.9082H140.292C140.987 48.9082 141.654 49.2016 142.145 49.724C142.637 50.2463 142.913 50.9547 142.913 51.6934V62.1301C142.913 62.4955 142.845 62.8573 142.713 63.1948C142.581 63.5323 142.388 63.8388 142.145 64.0969C141.901 64.3549 141.612 64.5593 141.294 64.6984C140.976 64.8376 140.636 64.9087 140.292 64.9077H135.922L133.978 67.624C133.828 67.8333 133.634 68.003 133.413 68.1198C133.191 68.2366 132.947 68.2974 132.7 68.2974C132.452 68.2974 132.208 68.2366 131.986 68.1198C131.765 68.003 131.571 67.8333 131.422 67.624L129.47 64.9077H125.1C124.756 64.9087 124.416 64.8375 124.099 64.6983C123.781 64.5591 123.493 64.3545 123.25 64.0964C123.007 63.8383 122.814 63.5317 122.683 63.1942C122.552 62.8568 122.485 62.4952 122.486 62.1301V51.6934C122.485 51.328 122.552 50.966 122.683 50.6281C122.814 50.2902 123.007 49.9832 123.249 49.7244C123.492 49.4657 123.781 49.2604 124.098 49.1204C124.416 48.9803 124.756 48.9082 125.1 48.9082Z" fill="#048CFC"/>
<path opacity="0.7" d="M125.1 48.9082H140.292C140.987 48.9082 141.654 49.2016 142.145 49.724C142.637 50.2463 142.913 50.9547 142.913 51.6934V62.1301C142.913 62.4955 142.845 62.8573 142.713 63.1948C142.581 63.5323 142.388 63.8388 142.145 64.0969C141.901 64.3549 141.612 64.5593 141.294 64.6984C140.976 64.8376 140.636 64.9087 140.292 64.9077H135.922L133.978 67.624C133.828 67.8333 133.634 68.003 133.413 68.1198C133.191 68.2366 132.947 68.2974 132.7 68.2974C132.452 68.2974 132.208 68.2366 131.986 68.1198C131.765 68.003 131.571 67.8333 131.422 67.624L129.47 64.9077H125.1C124.756 64.9087 124.416 64.8375 124.099 64.6983C123.781 64.5591 123.493 64.3545 123.25 64.0964C123.007 63.8383 122.814 63.5317 122.683 63.1942C122.552 62.8568 122.485 62.4952 122.486 62.1301V51.6934C122.485 51.328 122.552 50.966 122.683 50.6281C122.814 50.2902 123.007 49.9832 123.249 49.7244C123.492 49.4657 123.781 49.2604 124.098 49.1204C124.416 48.9803 124.756 48.9082 125.1 48.9082Z" fill="white"/>
<path d="M126 56.0548L130.867 52.9023V54.7923H133.092C133.9 54.7947 134.696 54.9895 135.424 55.3624C136.151 55.7354 136.79 56.2769 137.295 56.9472C137.799 57.6175 138.155 58.3995 138.338 59.2355C138.52 60.0716 138.524 60.9405 138.348 61.7782C138.077 60.5117 137.41 59.3806 136.455 58.5702C135.5 57.7597 134.314 57.318 133.092 57.3173H130.867V59.2072L126 56.0548Z" fill="#048CFC"/>
</svg>
