<svg width="79" height="87" viewBox="0 0 79 87" fill="none" xmlns="http://www.w3.org/2000/svg">
<path d="M59.3354 18.0098H8.07136C6.1809 18.0098 4.36786 18.8079 3.0311 20.2285C1.69434 21.6491 0.943359 23.5758 0.943359 25.5849V66.9952C0.943359 69.0042 1.69434 70.931 3.0311 72.3516C4.36786 73.7722 6.1809 74.5703 8.07136 74.5703H46.8002C47.176 77.8124 48.6541 80.7966 50.9562 82.9612C53.2583 85.1259 56.2255 86.3215 59.2994 86.3231C59.5802 86.3231 59.861 86.3231 60.1418 86.2772C58.1402 83.4767 56.5058 79.3908 55.433 74.5703H59.357C61.2474 74.5703 63.0605 73.7722 64.3972 72.3516C65.734 70.931 66.485 69.0042 66.485 66.9952V25.5849C66.485 24.5882 66.2999 23.6013 65.9403 22.6807C65.5807 21.7602 65.0538 20.9241 64.3896 20.2203C63.7254 19.5166 62.9371 18.9591 62.0698 18.5798C61.2025 18.2005 60.2732 18.0068 59.3354 18.0098Z" fill="#048CFC"/>
<path opacity="0.4" d="M59.3354 18.0098H8.07136C6.1809 18.0098 4.36786 18.8079 3.0311 20.2285C1.69434 21.6491 0.943359 23.5758 0.943359 25.5849V66.9952C0.943359 69.0042 1.69434 70.931 3.0311 72.3516C4.36786 73.7722 6.1809 74.5703 8.07136 74.5703H46.8002C47.176 77.8124 48.6541 80.7966 50.9562 82.9612C53.2583 85.1259 56.2255 86.3215 59.2994 86.3231C59.5802 86.3231 59.861 86.3231 60.1418 86.2772C58.1402 83.4767 56.5058 79.3908 55.433 74.5703H59.357C61.2474 74.5703 63.0605 73.7722 64.3972 72.3516C65.734 70.931 66.485 69.0042 66.485 66.9952V25.5849C66.485 24.5882 66.2999 23.6013 65.9403 22.6807C65.5807 21.7602 65.0538 20.9241 64.3896 20.2203C63.7254 19.5166 62.9371 18.9591 62.0698 18.5798C61.2025 18.2005 60.2732 18.0068 59.3354 18.0098Z" fill="white"/>
<path d="M69.6025 35.6089L73.5913 31.6836L77.0041 38.394C77.0041 38.394 73.0513 41.6 70.7113 39.6259L69.6025 35.6089Z" fill="#FF8B7B"/>
<path d="M69.6026 35.6016L66.8882 41.7381L70.6106 45.013L73.865 39.4121L69.6026 35.6016Z" fill="#FF8B7B"/>
<path d="M77.3856 32.5938L78.0408 35.1265C78.2031 35.7184 78.1907 36.349 78.0053 36.9332C77.8199 37.5174 77.4704 38.0271 77.004 38.3937L75.564 39.4114L71.4888 31.8057L74.9808 30.8722C75.2453 30.8145 75.5179 30.8134 75.7828 30.8691C76.0477 30.9248 76.2994 31.036 76.5234 31.1963C76.7473 31.3566 76.9389 31.5628 77.0869 31.8028C77.235 32.0427 77.3365 32.3116 77.3856 32.5938Z" fill="#FF8B7B"/>
<path d="M69.6025 35.6089C69.6025 35.6089 71.0425 30.8802 70.8121 29.4341C70.6897 28.5695 71.5321 28.7072 72.2089 28.9674C72.4699 29.0617 72.6978 29.2381 72.8623 29.4731C73.0269 29.7081 73.1204 29.9907 73.1305 30.2834C73.1881 31.8137 73.1305 34.7979 72.0289 34.9891C71.205 35.1219 70.3932 35.3292 69.6025 35.6089Z" fill="#FF8B7B"/>
<path d="M74.2607 40.5207C73.1416 39.191 71.6498 38.2789 70.0055 37.9192L68.7959 37.6514C68.0759 37.4984 67.9391 37.6514 67.8527 37.8733L67.5071 38.4471L66.7871 39.5872C66.3119 40.3524 65.8367 41.1175 65.3471 41.8827C64.3895 43.413 63.3887 44.8439 62.3807 46.2365C61.4368 47.5676 60.3995 48.821 59.2775 49.9857L58.9823 50.2765C58.6079 49.848 58.2623 49.3966 57.8879 48.9298C56.8344 47.5139 55.8514 46.0402 54.9431 44.5149C54.0143 42.9845 51.0047 38.3477 50.1839 36.6796C49.7735 35.8532 49.3703 35.0116 48.9887 34.1699L48.4343 32.9074C48.2687 32.5019 48.0671 32.0275 47.9519 31.7214L47.8727 31.5225C47.2823 30.1419 46.2017 29.0658 44.8671 28.5293C43.5324 27.9928 42.0522 28.0396 40.7498 28.6593C39.4475 29.279 38.4289 30.4214 37.9166 31.8367C37.4043 33.2521 37.44 34.8254 38.0159 36.2129C38.2751 36.8327 38.4767 37.2764 38.7359 37.7891L39.4559 39.2582C39.9359 40.2325 40.4159 41.1889 40.8959 42.1275C41.9183 44.0175 45.1727 48.838 46.3679 50.6514C47.5792 52.4976 48.9045 54.2562 50.3351 55.9157C51.8404 57.681 53.507 59.2829 55.3103 60.6979L55.5335 60.8739C56.0872 61.3006 56.725 61.5879 57.3987 61.7138C58.0723 61.8397 58.764 61.8011 59.4215 61.6008C60.8887 61.1455 62.2566 60.3862 63.4463 59.3666C64.3553 58.6006 65.2008 57.7533 65.9735 56.8339C67.3245 55.2193 68.5547 53.495 69.6527 51.6767C70.7111 49.9398 71.6399 48.1646 72.5327 46.3895C72.9575 45.4866 73.3751 44.5914 73.7639 43.6732L74.3399 42.2959L74.6207 41.5996C74.7071 41.3547 74.7503 41.0869 74.2607 40.5207Z" fill="#333333"/>
<path opacity="0.4" d="M47.5776 38.0879L43.6176 41.0644L42.48 43.9414C42.6744 44.3239 42.8616 44.7065 43.0632 45.0891C44.0784 46.979 45.2232 48.8154 46.3896 50.6288C47.6008 52.475 48.9261 54.2337 50.3568 55.8931C51.0768 56.6583 51.7968 57.4235 52.5168 58.1886C50.5728 53.3299 47.5776 38.0879 47.5776 38.0879Z" fill="#333333"/>
<path d="M12.1823 61.3489C12.4919 69.0005 11.3543 68.6485 11.3255 74.5708H46.4111C48.3191 56.5054 47.4263 53.7279 47.4623 41.7379C47.4623 34.9892 46.4903 28.1027 40.1687 27.3988C32.7438 26.629 25.2637 26.6803 17.8487 27.5518C16.7379 27.6956 15.6653 28.0736 14.6939 28.6639C13.7224 29.2541 12.8717 30.0446 12.1917 30.989C11.5116 31.9334 11.0159 33.0126 10.7336 34.1634C10.4514 35.3141 10.3882 36.5132 10.5479 37.6902C11.9663 47.8897 11.1959 53.6667 12.1823 61.3489Z" fill="#333333"/>
<path opacity="0.9" d="M36.9648 27.1153C32.2902 26.7902 27.6012 26.7748 22.9248 27.0694C23.0256 28.5997 24.12 32.4255 32.0904 35.7386C32.0904 35.7386 33.8688 31.6373 35.3664 33.4814C35.3664 33.4814 36.5688 31.1247 39.1464 35.4631C39.1464 35.4631 42.9912 31.0864 36.9648 27.1153Z" fill="white"/>
<path opacity="0.4" d="M18 37.9648C18.7704 45.0579 14.508 56.9178 12.24 62.6488C12.24 62.2509 12.24 61.8148 12.24 61.3481C11.6208 56.5582 11.6928 52.5028 11.52 47.667L18 37.9648Z" fill="#333333"/>
<path d="M26.3662 13.541C26.4844 18.1938 25.6388 22.8173 23.8894 27.0843C23.8245 27.2467 23.8083 27.4265 23.8431 27.599C23.8779 27.7716 23.962 27.9285 24.0838 28.0484C27.0218 30.7403 30.7892 32.1893 34.6678 32.1191C39.3838 32.1803 39.1102 30.5887 37.9942 28.8518C37.8316 28.6049 37.6203 28.3986 37.375 28.2474C34.1494 26.212 34.0342 23.4881 34.9414 21.843L26.3662 13.541Z" fill="#FF8B7B"/>
<path opacity="0.2" d="M26.374 13.541L34.942 21.843C34.6558 22.3657 34.4902 22.953 34.4589 23.5569C34.4277 24.1607 34.5315 24.7639 34.762 25.3168C32.9542 25.3767 31.192 24.7069 29.83 23.4422C27.6196 21.4451 26.8708 19.0884 26.3164 15.7906C26.3596 15.0713 26.374 14.3062 26.374 13.541Z" fill="#333333"/>
<path d="M23.8179 9.22591C24.1923 15.3472 23.3787 16.3266 26.3019 19.4255C30.7011 24.0853 37.8651 24.9729 38.8803 18.7751C39.7875 13.1894 40.3203 3.08169 34.6395 0.725004C33.3877 0.195778 32.0295 0.0146716 30.6934 0.198806C29.3574 0.38294 28.0876 0.926231 27.0042 1.77729C25.9208 2.62836 25.0596 3.75905 24.502 5.06245C23.9445 6.36584 23.709 7.79884 23.8179 9.22591Z" fill="#FF8B7B"/>
<path d="M37.8002 15.8376C37.8002 15.8376 35.777 15.1566 30.0386 14.8965C30.6506 17.0848 31.853 18.9059 34.7906 19.0054C37.7282 19.1049 37.8002 15.8376 37.8002 15.8376Z" fill="#333333"/>
<path d="M33.4803 17.2218C34.6357 17.2024 35.7594 17.6231 36.6483 18.4078C36.1171 18.8307 35.4597 19.0346 34.7979 18.9817C33.6404 19.0065 32.5141 18.5821 31.6299 17.788C32.162 17.3679 32.8194 17.1667 33.4803 17.2218Z" fill="#FF5652"/>
<path d="M37.5408 15.7378C37.368 16.1893 37.188 16.6484 36.612 16.7708C34.913 16.6855 33.2255 16.4293 31.572 16.0056C31.288 15.9511 31.0223 15.8186 30.8012 15.6213C30.5802 15.424 30.4116 15.1688 30.312 14.8809C32.7412 14.9309 35.161 15.2178 37.5408 15.7378Z" fill="white"/>
<path d="M35.5464 10.1211C36.1531 11.2623 36.9068 12.3079 37.7856 13.2276C37.5586 13.4638 37.2854 13.6438 36.9855 13.7549C36.6856 13.866 36.3663 13.9054 36.0504 13.8704L35.5464 10.1211Z" fill="#FF5652"/>
<path d="M29.8659 7.48107C29.8167 7.47407 29.7711 7.44984 29.7363 7.4122C29.7091 7.38372 29.6875 7.34977 29.6727 7.31233C29.658 7.27489 29.6504 7.23472 29.6504 7.19413C29.6504 7.15354 29.658 7.11336 29.6727 7.07592C29.6875 7.03848 29.7091 7.00454 29.7363 6.97606C30.0347 6.60385 30.4127 6.31305 30.8386 6.128C31.2646 5.94296 31.726 5.86905 32.1843 5.91249C32.2607 5.92466 32.3294 5.96859 32.3753 6.0346C32.4212 6.10061 32.4406 6.18329 32.4291 6.26447C32.4177 6.34564 32.3763 6.41864 32.3142 6.46743C32.2521 6.51622 32.1743 6.53679 32.0979 6.52462C31.7336 6.49464 31.3679 6.55744 31.031 6.70782C30.6942 6.85819 30.396 7.09181 30.1611 7.38925C30.1251 7.43264 30.0783 7.46429 30.026 7.48054C29.9738 7.49679 29.9182 7.49698 29.8659 7.48107Z" fill="#333333"/>
<path d="M39.4271 8.56865C39.3802 8.57735 39.3319 8.57352 39.2866 8.55749C39.2414 8.54146 39.2006 8.51375 39.1679 8.47684C38.9291 8.18762 38.6288 7.96315 38.292 7.82208C37.9551 7.68102 37.5914 7.62743 37.2311 7.66577C37.1568 7.6792 37.0804 7.66106 37.0185 7.61528C36.9565 7.56949 36.914 7.4997 36.8999 7.42092C36.8873 7.33985 36.9052 7.25676 36.9496 7.18951C36.994 7.12226 37.0615 7.07622 37.1375 7.06129C37.5917 7.00824 38.0512 7.07078 38.4781 7.24374C38.905 7.4167 39.2871 7.69512 39.5927 8.056C39.62 8.08448 39.6416 8.11842 39.6563 8.15586C39.6711 8.1933 39.6787 8.23348 39.6787 8.27407C39.6787 8.31466 39.6711 8.35483 39.6563 8.39227C39.6416 8.42971 39.62 8.46365 39.5927 8.49213C39.5462 8.53497 39.4884 8.56167 39.4271 8.56865Z" fill="#333333"/>
<path d="M1.4977 62.5957C1.51022 62.8851 1.55124 63.1723 1.62009 63.4526C2.27061 65.8992 3.11607 68.2823 4.1473 70.5763C4.6705 71.7903 5.2105 72.984 5.7673 74.1572C6.509 74.4273 7.28725 74.5669 8.07129 74.5704H15.8401L15.0697 72.7417C14.2129 70.7446 13.4209 68.7399 12.7009 66.7581C12.1012 65.1505 11.5962 63.5048 11.1889 61.8305C11.2706 61.1898 11.3933 60.5559 11.5561 59.9329C11.7793 59.0147 12.0817 58.02 12.4273 57.01C13.1473 54.9976 13.9393 52.9241 14.8033 50.8887C15.6673 48.8534 16.6249 46.7646 17.5897 44.7063C18.5545 42.648 19.5625 40.5668 20.5633 38.6233V38.5544L20.6137 38.4396C21.2668 37.0851 21.3867 35.5102 20.9472 34.0617C20.5077 32.6131 19.5447 31.4094 18.2701 30.7154C16.9955 30.0213 15.5136 29.8938 14.1505 30.3609C12.7874 30.828 11.6548 31.8514 11.0017 33.2059C9.92169 35.4555 8.94969 37.6056 7.97049 39.8322C6.99129 42.0588 6.10569 44.3084 5.24169 46.6039C4.37769 48.8993 3.60009 51.2178 2.88009 53.7045C2.52729 54.9517 2.21049 56.2372 1.94409 57.6221C1.6129 59.1989 1.46061 60.8121 1.49049 62.4273L1.4977 62.5957Z" fill="#333333"/>
<path d="M21.2043 13.3266C21.7035 14.6385 22.6532 15.6998 23.8611 16.2954C25.4019 16.9994 26.2515 15.4002 25.8843 13.5638C25.5603 11.9187 24.3579 9.56202 22.7811 9.63854C21.2043 9.71505 20.5491 11.6433 21.2043 13.3266Z" fill="#FF8B7B"/>
<path d="M31.2266 9.56331C31.2266 10.0913 31.4354 10.5427 31.7738 10.5657C32.1122 10.5886 32.393 10.1754 32.4146 9.63217C32.4362 9.08891 32.2058 8.65277 31.8746 8.62982C31.5434 8.60686 31.2554 9.02005 31.2266 9.56331Z" fill="#333333" fill-opacity="0.2"/>
<path d="M36.9219 9.91504C36.9219 10.4507 37.1379 10.9021 37.4619 10.925C37.7859 10.948 38.0811 10.5271 38.1171 9.99154C38.1531 9.45593 37.9011 9.01215 37.5771 8.98919C37.2531 8.96624 36.9507 9.37943 36.9219 9.91504Z" fill="#333333" fill-opacity="0.2"/>
</svg>
