<svg width="30" height="30" viewBox="0 0 30 30" fill="none" xmlns="http://www.w3.org/2000/svg">
<g clip-path="url(#clip0_1_9601)">
<path d="M15.8775 2.74402L24.6275 6.02527C25.1041 6.20394 25.5149 6.52384 25.8048 6.94222C26.0947 7.36059 26.2501 7.8575 26.25 8.36652V15.0703C26.25 17.1596 25.6683 19.2076 24.5699 20.9848C23.4715 22.7621 21.9 24.1984 20.0312 25.1328L15.8387 27.229C15.5783 27.3593 15.2912 27.4271 15 27.4271C14.7088 27.4271 14.4217 27.3593 14.1613 27.229L9.96875 25.1328C8.10005 24.1984 6.52846 22.7621 5.43009 20.9848C4.33171 19.2076 3.74995 17.1596 3.75 15.0703V8.36652C3.74994 7.8575 3.90525 7.36059 4.19519 6.94222C4.48513 6.52384 4.89587 6.20394 5.3725 6.02527L14.1225 2.74402C14.6883 2.53194 15.3117 2.53194 15.8775 2.74402ZM15 5.08527L6.25 8.36652V15.0703C6.25029 16.6951 6.70299 18.2878 7.55739 19.6698C8.4118 21.0519 9.63415 22.1687 11.0875 22.8953L15 24.854L18.9125 22.8978C20.3662 22.1711 21.5888 21.0538 22.4433 19.6713C23.2977 18.2887 23.7502 16.6955 23.75 15.0703V8.36652L15 5.08527ZM15 10.0003C15.5336 10.0001 16.0532 10.1706 16.483 10.4869C16.9127 10.8031 17.23 11.2486 17.3883 11.7582C17.5467 12.2677 17.5379 12.8145 17.3633 13.3187C17.1886 13.8229 16.8572 14.258 16.4175 14.5603L16.25 14.6665V18.7503C16.2496 19.0689 16.1277 19.3753 15.9089 19.607C15.6902 19.8387 15.3913 19.9781 15.0733 19.9967C14.7552 20.0154 14.442 19.9119 14.1977 19.7074C13.9534 19.503 13.7964 19.2129 13.7587 18.8965L13.75 18.7503V14.6665C13.2728 14.3916 12.8997 13.9668 12.6887 13.4582C12.4777 12.9495 12.4406 12.3853 12.5831 11.8534C12.7256 11.3214 13.0398 10.8514 13.4768 10.5163C13.9138 10.1812 14.4493 9.99982 15 10.0003Z" fill="#048CFC"/>
</g>
<defs>
<clipPath id="clip0_1_9601">
<rect width="30" height="30" fill="white"/>
</clipPath>
</defs>
</svg>
