<svg width="34" height="32" viewBox="0 0 34 32" fill="none" xmlns="http://www.w3.org/2000/svg">
<path d="M22 13.6663C22 12.7497 22.75 11.9997 23.6667 11.9997C24.5834 11.9997 25.3334 12.7497 25.3334 13.6663C25.3334 14.583 24.5834 15.333 23.6667 15.333C22.75 15.333 22 14.583 22 13.6663ZM10.3334 11.9997H18.6667V8.66634H10.3334V11.9997ZM33.6667 9.49967V21.1163L28.9667 22.683L26.1667 31.9997H17V28.6663H13.6667V31.9997H4.50004C4.50004 31.9997 0.333374 17.8997 0.333374 12.833C0.333374 7.76634 4.43337 3.66634 9.50004 3.66634H17.8334C19.35 1.64967 21.7667 0.333008 24.5 0.333008C24.9119 0.333095 25.3174 0.435077 25.6803 0.629863C26.0432 0.824649 26.3522 1.10619 26.5799 1.44939C26.8076 1.7926 26.9469 2.1868 26.9853 2.59688C27.0237 3.00695 26.9601 3.42016 26.8 3.79967C26.5667 4.36634 26.3667 5.01634 26.2667 5.71634L30.05 9.49967H33.6667ZM30.3334 12.833H28.6667L22.8334 6.99967C22.8334 5.91634 22.9834 4.84967 23.2667 3.81634C21.65 4.23301 20.3334 5.43301 19.7834 6.99967H9.50004C6.28337 6.99967 3.66671 9.61634 3.66671 12.833C3.66671 15.9663 5.70004 23.9163 7.00004 28.6663H10.3334V25.333H20.3334V28.6663H23.6667L26.2667 20.083L30.3334 18.7163V12.833Z" fill="#333333"/>
</svg>
