<svg width="35" height="35" viewBox="0 0 35 35" fill="none" xmlns="http://www.w3.org/2000/svg">
<g clip-path="url(#clip0_1_8670)">
<path d="M32.0833 3.281H27.3438V1.0935C27.3439 0.803422 27.2289 0.525146 27.0239 0.319891C26.8189 0.114637 26.5408 -0.000782916 26.2507 -0.000976303C25.9606 -0.00116969 25.6824 0.113879 25.4771 0.31886C25.2719 0.523841 25.1564 0.801964 25.1562 1.09204V3.281H18.5938V1.0935C18.5938 0.94987 18.5657 0.807624 18.5108 0.674887C18.4559 0.542151 18.3754 0.421523 18.2739 0.319891C18.1724 0.218259 18.0519 0.137614 17.9192 0.0825595C17.7866 0.0275049 17.6444 -0.000880564 17.5007 -0.000976319C17.2106 -0.00116971 16.9324 0.113879 16.7271 0.31886C16.5219 0.523841 16.4064 0.801964 16.4062 1.09204V3.281H9.84375V1.0935C9.84385 0.94987 9.81565 0.807624 9.76077 0.674887C9.70589 0.542151 9.62541 0.421523 9.52391 0.319891C9.42242 0.218259 9.3019 0.137614 9.16923 0.0825595C9.03657 0.0275049 8.89436 -0.000880564 8.75073 -0.000976319C8.46065 -0.00116971 8.18237 0.113879 7.97712 0.31886C7.77186 0.523841 7.65644 0.801964 7.65625 1.09204V3.281H2.91667C2.14337 3.281 1.40173 3.58809 0.854787 4.13476C0.307848 4.68143 0.000386648 5.42292 0 6.19621V32.0816C0 32.8552 0.307291 33.597 0.854272 34.144C1.40125 34.691 2.14312 34.9983 2.91667 34.9983H32.0833C32.8569 34.9983 33.5987 34.691 34.1457 34.144C34.6927 33.597 35 32.8552 35 32.0816V6.19621C34.9996 5.42292 34.6922 4.68143 34.1452 4.13476C33.5983 3.58809 32.8566 3.281 32.0833 3.281ZM32.8125 32.0831C32.8125 32.2762 32.7359 32.4615 32.5994 32.5982C32.463 32.7349 32.2779 32.8119 32.0848 32.8123H2.91667C2.72328 32.8123 2.53781 32.7354 2.40107 32.5987C2.26432 32.4619 2.1875 32.2765 2.1875 32.0831V6.19767C2.18789 6.00454 2.26488 5.81944 2.40158 5.68301C2.53829 5.54658 2.72353 5.46996 2.91667 5.46996H7.65625V7.65746C7.65606 7.94754 7.77111 8.22582 7.97609 8.43107C8.18107 8.63633 8.45919 8.75175 8.74927 8.75194C9.03935 8.75213 9.31763 8.63709 9.52288 8.4321C9.72814 8.22712 9.84356 7.949 9.84375 7.65892V5.46996H16.4062V7.65746C16.4061 7.94754 16.5211 8.22582 16.7261 8.43107C16.9311 8.63633 17.2092 8.75175 17.4993 8.75194C17.7894 8.75213 18.0676 8.63709 18.2729 8.4321C18.4781 8.22712 18.5936 7.949 18.5938 7.65892V5.46996H25.1562V7.65746C25.1561 7.94754 25.2711 8.22582 25.4761 8.43107C25.6811 8.63633 25.9592 8.75175 26.2493 8.75194C26.5394 8.75213 26.8176 8.63709 27.0229 8.4321C27.2281 8.22712 27.3436 7.949 27.3438 7.65892V5.46996H32.0833C32.2762 5.47035 32.4611 5.54714 32.5975 5.68353C32.7339 5.81992 32.8107 6.00479 32.811 6.19767L32.8125 32.0831Z" fill="#333333"/>
<path d="M7.65625 13.125H12.0312V16.4062H7.65625V13.125ZM7.65625 18.5938H12.0312V21.875H7.65625V18.5938ZM7.65625 24.0625H12.0312V27.3438H7.65625V24.0625ZM15.3125 24.0625H19.6875V27.3438H15.3125V24.0625ZM15.3125 18.5938H19.6875V21.875H15.3125V18.5938ZM15.3125 13.125H19.6875V16.4062H15.3125V13.125ZM22.9688 24.0625H27.3438V27.3438H22.9688V24.0625ZM22.9688 18.5938H27.3438V21.875H22.9688V18.5938ZM22.9688 13.125H27.3438V16.4062H22.9688V13.125Z" fill="#333333"/>
</g>
<defs>
<clipPath id="clip0_1_8670">
<rect width="35" height="35" fill="white"/>
</clipPath>
</defs>
</svg>
