<svg width="37" height="37" viewBox="0 0 37 37" fill="none" xmlns="http://www.w3.org/2000/svg">
<path d="M16.1875 19.1822L13.1928 16.1875L11.5625 17.8178L16.1875 22.4428L25.4375 13.1928L23.8072 11.5625L16.1875 19.1822Z" fill="#333333"/>
<path d="M18.5 34.6875L11.359 30.88C9.32324 29.7969 7.62081 28.18 6.43445 26.2026C5.24808 24.2253 4.62256 21.9622 4.62501 19.6562V4.625C4.62562 4.01187 4.86945 3.42404 5.303 2.99049C5.73654 2.55695 6.32438 2.31311 6.93751 2.3125H30.0625C30.6756 2.31311 31.2635 2.55695 31.697 2.99049C32.1306 3.42404 32.3744 4.01187 32.375 4.625V19.6562C32.3775 21.9622 31.7519 24.2253 30.5656 26.2026C29.3792 28.18 27.6768 29.7969 25.641 30.88L18.5 34.6875ZM6.93751 4.625V19.6562C6.93559 21.543 7.44753 23.3947 8.41839 25.0125C9.38925 26.6303 10.7824 27.9532 12.4482 28.8392L18.5 32.0663L24.5518 28.8403C26.2178 27.9543 27.611 26.6312 28.5819 25.0132C29.5528 23.3951 30.0646 21.5432 30.0625 19.6562V4.625H6.93751Z" fill="#333333"/>
</svg>
