<svg width="24" height="24" viewBox="0 0 24 24" fill="none" xmlns="http://www.w3.org/2000/svg">
<path d="M4 20.7705V3.23047L5.27 4.19247L6.615 3.23147L7.962 4.19247L9.308 3.23147L10.654 4.19247L12 3.23147L13.346 4.19247L14.692 3.23147L16.038 4.19247L17.385 3.23147L18.731 4.19247L20 3.23147V20.7695L18.73 19.8085L17.385 20.7695L16.038 19.8085L14.692 20.7695L13.346 19.8085L12 20.7695L10.654 19.8085L9.308 20.7695L7.962 19.8085L6.615 20.7695L5.269 19.8085L4 20.7705ZM6.5 15.8855H17.5V14.8855H6.5V15.8855ZM6.5 12.5005H17.5V11.5005H6.5V12.5005ZM6.5 9.11547H17.5V8.11547H6.5V9.11547ZM5 19.1005H19V4.90047H5V19.1005Z" fill="#048CFC"/>
</svg>
