<svg width="41" height="41" viewBox="0 0 41 41" fill="none" xmlns="http://www.w3.org/2000/svg">
<path d="M40.1865 20.5195C40.1865 31.151 31.568 39.7695 20.9365 39.7695C10.305 39.7695 1.68652 31.151 1.68652 20.5195C1.68652 9.88805 10.305 1.26953 20.9365 1.26953C31.568 1.26953 40.1865 9.88805 40.1865 20.5195Z" fill="white" stroke="#333333" stroke-width="1.5"/>
<path d="M21.4919 8.29785C27.9354 8.29785 33.1585 13.521 33.1585 19.9645C33.1585 26.408 27.9354 31.6312 21.4919 31.6312C15.0484 31.6312 9.8252 26.408 9.8252 19.9645C9.8252 13.521 15.0484 8.29785 21.4919 8.29785ZM23.4402 24.6312H19.5435L17.9335 26.8444L18.5799 28.8347C19.5198 29.1425 20.5028 29.2989 21.4919 29.2979C22.508 29.2979 23.4869 29.1345 24.4039 28.8347L25.049 26.8444L23.439 24.6312H23.4402ZM13.6682 18.6485L12.1609 19.7417L12.1585 19.9645C12.1585 21.9829 12.799 23.8507 13.8875 25.3779H16.1159L17.6594 23.2545L16.46 19.5562L13.6682 18.6485ZM29.3155 18.6485L26.5237 19.5562L25.3244 23.2545L26.8667 25.3779H29.095C30.223 23.7984 30.828 21.9054 30.8252 19.9645L30.8217 19.7429L29.3155 18.6485ZM21.4919 17.0899L18.7572 19.0755L19.8025 22.2979H23.18L24.2254 19.0755L21.4919 17.0899ZM24.1647 11.0197L22.6585 12.1164V15.0529L25.8015 17.336L28.4137 16.4879L29.06 14.501C27.8556 12.8337 26.135 11.6101 24.1647 11.0197ZM18.8179 11.0197C16.8478 11.6106 15.1276 12.8346 13.9237 14.5022L14.57 16.4879L17.1822 17.336L20.3252 15.0529V12.1164L18.8179 11.0197Z" fill="#333333"/>
</svg>
