<svg width="24" height="24" viewBox="0 0 24 24" fill="none" xmlns="http://www.w3.org/2000/svg">
<path d="M10.1549 14.7728L10.1459 14.7518C10.0107 14.7148 9.87664 14.6738 9.74391 14.6288L9.73391 14.6248C8.35214 14.1527 7.15273 13.26 6.30378 12.072C5.45483 10.8839 4.99891 9.46 4.99991 7.9998C4.99946 6.2079 5.68621 4.48407 6.9187 3.18336C8.15118 1.88265 9.83555 1.10411 11.6249 1.00811C13.4142 0.912106 15.1722 1.50595 16.5368 2.66732C17.9014 3.82869 18.7686 5.46914 18.9599 7.2508C19.0039 7.6628 18.6639 7.9998 18.2499 7.9998C17.8359 7.9998 17.5049 7.6618 17.4499 7.2518C17.3169 6.28406 16.9286 5.36921 16.3249 4.60124C15.7212 3.83328 14.924 3.23991 14.015 2.88212C13.1061 2.52433 12.1183 2.41503 11.1531 2.56545C10.1879 2.71586 9.28018 3.12057 8.52321 3.73798C7.76624 4.35539 7.18733 5.16323 6.84597 6.07847C6.50461 6.99371 6.41311 7.98334 6.58089 8.94565C6.74866 9.90797 7.16965 10.8083 7.80059 11.554C8.43153 12.2997 9.24967 12.864 10.1709 13.1888C10.3565 12.7693 10.6806 12.4264 11.089 12.2175C11.4973 12.0085 11.9651 11.9463 12.4138 12.0413C12.8626 12.1362 13.2651 12.3825 13.5538 12.7389C13.8426 13.0953 14.0001 13.5401 13.9999 13.9988C13.9999 14.5968 13.7379 15.1328 13.3229 15.4988C12.9582 15.8222 12.4874 16.0005 11.9999 15.9998C11.6055 16.0008 11.2196 15.8847 10.8912 15.6663C10.5627 15.4479 10.3065 15.1369 10.1549 14.7728ZM7.99691 15.4998C7.26009 15.1056 6.58521 14.6053 5.99391 14.0148C5.44605 14.0785 4.94068 14.3413 4.57381 14.7531C4.20694 15.165 4.00413 15.6972 4.00391 16.2488V16.8268C4.00391 17.7188 4.32191 18.5828 4.90191 19.2618C6.46791 21.0958 8.85391 22.0018 11.9999 22.0018C15.1459 22.0018 17.5329 21.0958 19.1019 19.2618C19.6833 18.5825 20.0028 17.7179 20.0029 16.8238V16.2488C20.003 15.9535 19.945 15.661 19.8321 15.3881C19.7192 15.1152 19.5536 14.8672 19.3449 14.6582C19.1362 14.4493 18.8883 14.2835 18.6155 14.1704C18.3427 14.0572 18.0502 13.9989 17.7549 13.9988H15.4999C15.4999 14.5368 15.3799 15.0448 15.1629 15.4988H17.7549C17.9535 15.4993 18.1437 15.5786 18.2839 15.7192C18.4242 15.8598 18.5029 16.0502 18.5029 16.2488V16.8238C18.5031 17.3602 18.3116 17.8791 17.9629 18.2868C16.7059 19.7548 14.7389 20.5008 11.9999 20.5008C9.26191 20.5008 7.29591 19.7548 6.04291 18.2878C5.69448 17.8804 5.50298 17.3619 5.50291 16.8258V16.2488C5.50291 16.0499 5.58192 15.8591 5.72258 15.7185C5.86323 15.5778 6.05399 15.4988 6.25291 15.4988L7.99691 15.4998ZM7.99991 7.9998C8.00009 7.30985 8.17873 6.63167 8.51848 6.03117C8.85822 5.43067 9.34752 4.92826 9.93882 4.57274C10.5301 4.21723 11.2033 4.02072 11.893 4.00228C12.5827 3.98385 13.2655 4.14413 13.8749 4.46755C14.4844 4.79097 14.9998 5.26653 15.3712 5.84803C15.7425 6.42953 15.9571 7.09719 15.9941 7.78615C16.0312 8.4751 15.8894 9.16192 15.5825 9.77987C15.2757 10.3978 14.8142 10.9259 14.2429 11.3128C13.6141 10.7864 12.8199 10.4985 11.9999 10.4998C12.6629 10.4998 13.2988 10.2364 13.7677 9.76756C14.2365 9.29872 14.4999 8.66284 14.4999 7.9998C14.4999 7.33675 14.2365 6.70087 13.7677 6.23203C13.2988 5.76319 12.6629 5.4998 11.9999 5.4998C11.3369 5.4998 10.701 5.76319 10.2321 6.23203C9.7633 6.70087 9.49991 7.33675 9.49991 7.9998C9.49991 8.66284 9.7633 9.29872 10.2321 9.76756C10.701 10.2364 11.3369 10.4998 11.9999 10.4998C11.1459 10.4998 10.3639 10.8058 9.75791 11.3128C9.21555 10.9472 8.77149 10.4538 8.46491 9.87598C8.15832 9.29821 7.99862 8.65387 7.99991 7.9998Z" fill="#048CFC"/>
</svg>
