<svg width="32" height="32" viewBox="0 0 32 32" fill="none" xmlns="http://www.w3.org/2000/svg">
<g clip-path="url(#clip0_1_3520)">
<path d="M3.11185 12.0535L16.0007 4.64904L28.8896 12.0535C29.0928 12.1598 29.3291 12.1834 29.5493 12.1195C29.7695 12.0557 29.9565 11.9092 30.0712 11.7107C30.186 11.5122 30.2196 11.2771 30.165 11.0544C30.1105 10.8317 29.972 10.6387 29.7785 10.5157L16.0007 2.5957L2.22296 10.5157C2.11673 10.5713 2.02285 10.6478 1.94694 10.7406C1.87104 10.8333 1.81469 10.9405 1.78129 11.0557C1.74789 11.1708 1.73812 11.2915 1.75258 11.4105C1.76704 11.5295 1.80542 11.6444 1.86541 11.7482C1.92541 11.852 2.00578 11.9425 2.10169 12.0145C2.1976 12.0864 2.30706 12.1382 2.42351 12.1667C2.53995 12.1952 2.66095 12.1999 2.77925 12.1804C2.89754 12.161 3.01068 12.1178 3.11185 12.0535Z" fill="#333333"/>
<path d="M3.55469 23.1119C3.55469 23.3476 3.64834 23.5737 3.81504 23.7404C3.98174 23.9071 4.20783 24.0008 4.44358 24.0008H27.5547C27.7904 24.0008 28.0165 23.9071 28.1832 23.7404C28.3499 23.5737 28.4436 23.3476 28.4436 23.1119C28.4436 22.8761 28.3499 22.65 28.1832 22.4833C28.0165 22.3166 27.7904 22.223 27.5547 22.223H24.888V15.6719H23.1102V22.223H16.888V15.6719H15.1102V22.223H8.88802V15.6719H7.11024V22.223H4.44358C4.20783 22.223 3.98174 22.3166 3.81504 22.4833C3.64834 22.65 3.55469 22.8761 3.55469 23.1119Z" fill="#333333"/>
<path d="M4.46289 12.4453H27.574V14.2231H4.46289V12.4453Z" fill="#333333"/>
<path d="M29.3329 25.7773H2.66623C2.43048 25.7773 2.20439 25.871 2.03769 26.0377C1.87099 26.2044 1.77734 26.4305 1.77734 26.6662C1.77734 26.902 1.87099 27.1281 2.03769 27.2948C2.20439 27.4615 2.43048 27.5551 2.66623 27.5551H29.3329C29.5686 27.5551 29.7947 27.4615 29.9614 27.2948C30.1281 27.1281 30.2218 26.902 30.2218 26.6662C30.2218 26.4305 30.1281 26.2044 29.9614 26.0377C29.7947 25.871 29.5686 25.7773 29.3329 25.7773Z" fill="#333333"/>
<path d="M19.6881 10.294H22.5415L16.577 6.86285C16.4689 6.80044 16.3463 6.76758 16.2215 6.76758C16.0966 6.76758 15.974 6.80044 15.8659 6.86285L9.89258 10.294H12.7459L16.2126 8.30285L19.6881 10.294Z" fill="#333333"/>
</g>
<defs>
<clipPath id="clip0_1_3520">
<rect width="32" height="32" fill="white"/>
</clipPath>
</defs>
</svg>
