<svg width="19" height="19" viewBox="0 0 19 19" fill="none" xmlns="http://www.w3.org/2000/svg">
<path d="M12.8557 1.15281L10.8766 5.56937L10.871 5.58155C10.7729 5.81084 10.7336 6.06095 10.7565 6.30927C10.7794 6.55759 10.8639 6.79628 11.0022 7.00374C11.0184 7.02817 11.0359 7.05164 11.0547 7.07405L13.0001 9.35593C12.2979 10.8016 10.8166 12.2941 9.38974 12.9962L7.07318 11.0481C7.04974 11.0294 7.0263 11.0116 7.00099 10.9947C6.79409 10.8593 6.55692 10.7771 6.31059 10.7555C6.06427 10.7339 5.81642 10.7736 5.58912 10.8709H5.57787L1.1538 12.8556C0.856865 12.9843 0.609506 13.2056 0.448653 13.4864C0.2878 13.7672 0.22208 14.0925 0.261304 14.4137C0.428467 15.6841 1.05234 16.8501 2.01639 17.6941C2.98045 18.5381 4.21876 19.0023 5.50005 19C12.9438 19 19.0001 12.9437 19.0001 5.49999C19.0023 4.2187 18.5382 2.98039 17.6942 2.01633C16.8502 1.05227 15.6841 0.428404 14.4138 0.261242C14.0927 0.221945 13.7674 0.287529 13.4866 0.448204C13.2058 0.608881 12.9845 0.856039 12.8557 1.15281ZM17.5001 5.49999C17.4966 8.68152 16.2312 11.7318 13.9815 13.9814C11.7318 16.2311 8.68159 17.4965 5.50005 17.5C4.58458 17.5035 3.69911 17.1737 3.00903 16.5721C2.31895 15.9705 1.87143 15.1383 1.75005 14.2309C1.7538 14.2313 1.75756 14.2313 1.7613 14.2309L6.16755 12.2622L8.48693 14.2C8.50956 14.2197 8.5337 14.2375 8.55912 14.2534C8.7756 14.3945 9.02486 14.4773 9.28274 14.4937C9.54061 14.5101 9.79836 14.4597 10.031 14.3472C11.7682 13.4978 13.5054 11.7475 14.3538 9.99155C14.4652 9.75721 14.5139 9.49797 14.4952 9.23917C14.4765 8.98036 14.3909 8.73085 14.2469 8.51499C14.2307 8.49092 14.2132 8.46776 14.1944 8.44562L12.2501 6.16655L14.2235 1.7603V1.74999C15.1322 1.86988 15.9661 2.31673 16.5691 3.00694C17.1722 3.69715 17.5031 4.58344 17.5001 5.49999Z" fill="#048CFC"/>
</svg>
