<svg width="24" height="24" viewBox="0 0 24 24" fill="none" xmlns="http://www.w3.org/2000/svg">
<path d="M9.60005 8.7998H14.4M12 8.7998V15.9998M16.8 15.9998V11.9998M16.8 11.9998V8.7998H18.4C18.8244 8.7998 19.2314 8.96838 19.5314 9.26843C19.8315 9.56849 20 9.97546 20 10.3998C20 10.8242 19.8315 11.2311 19.5314 11.5312C19.2314 11.8312 18.8244 11.9998 18.4 11.9998H16.8ZM7.20005 10.3998V13.5998C7.20005 14.0242 7.03148 14.4311 6.73142 14.7312C6.43136 15.0312 6.0244 15.1998 5.60005 15.1998C5.1757 15.1998 4.76874 15.0312 4.46868 14.7312C4.16862 14.4311 4.00005 14.0242 4.00005 13.5998V10.3998C4.00005 9.97546 4.16862 9.56849 4.46868 9.26843C4.76874 8.96838 5.1757 8.7998 5.60005 8.7998C6.0244 8.7998 6.43136 8.96838 6.73142 9.26843C7.03148 9.56849 7.20005 9.97546 7.20005 10.3998ZM2.40005 0.799805H21.6C22.0244 0.799805 22.4314 0.968376 22.7314 1.26843C23.0315 1.56849 23.2 1.97546 23.2 2.3998V21.5998C23.2 22.0242 23.0315 22.4311 22.7314 22.7312C22.4314 23.0312 22.0244 23.1998 21.6 23.1998H2.40005C1.9757 23.1998 1.56874 23.0312 1.26868 22.7312C0.96862 22.4311 0.800049 22.0242 0.800049 21.5998V2.3998C0.800049 1.97546 0.96862 1.56849 1.26868 1.26843C1.56874 0.968376 1.9757 0.799805 2.40005 0.799805Z" stroke="#048CFC"/>
</svg>
