<svg width="24" height="24" viewBox="0 0 24 24" fill="none" xmlns="http://www.w3.org/2000/svg">
<path d="M20.0001 13.9999C20.255 14.0001 20.5001 14.0977 20.6855 14.2727C20.8708 14.4477 20.9823 14.6868 20.9973 14.9413C21.0122 15.1957 20.9294 15.4462 20.7658 15.6417C20.6023 15.8371 20.3702 15.9628 20.1171 15.9929L20.0001 15.9999H6.41411L8.70711 18.2929C8.88646 18.4728 8.99059 18.7143 8.99834 18.9682C9.0061 19.2222 8.9169 19.4696 8.74886 19.6601C8.58083 19.8507 8.34656 19.9702 8.09364 19.9943C7.84072 20.0184 7.5881 19.9453 7.38711 19.7899L7.29311 19.7069L3.46311 15.8769C2.79811 15.2129 3.22411 14.0939 4.12611 14.0059L4.24111 13.9999H20.0001ZM15.2931 4.29286C15.4653 4.12068 15.6944 4.01725 15.9374 4.00197C16.1805 3.98669 16.4207 4.06061 16.6131 4.20986L16.7071 4.29286L20.5371 8.12286C21.2021 8.78686 20.7761 9.90586 19.8741 9.99386L19.7591 9.99986H4.00011C3.74523 9.99958 3.50008 9.90198 3.31474 9.72701C3.12941 9.55204 3.01788 9.31291 3.00294 9.05847C2.988 8.80402 3.07079 8.55348 3.23438 8.35803C3.39797 8.16258 3.63002 8.03696 3.88311 8.00686L4.00011 7.99986H17.5861L15.2931 5.70686C15.1056 5.51933 15.0003 5.26503 15.0003 4.99986C15.0003 4.7347 15.1056 4.48039 15.2931 4.29286Z" fill="#048CFC"/>
</svg>
