<svg width="32" height="32" viewBox="0 0 32 32" fill="none" xmlns="http://www.w3.org/2000/svg">
<mask id="mask0_1_4576" style="mask-type:luminance" maskUnits="userSpaceOnUse" x="2" y="5" width="28" height="22">
<path d="M18.667 5.33398H13.3337C8.30566 5.33398 5.79099 5.33398 4.22966 6.89665C3.10433 8.02065 2.78966 9.63932 2.70166 12.334H29.299C29.211 9.63932 28.8963 8.02065 27.771 6.89665C26.2097 5.33398 23.695 5.33398 18.667 5.33398ZM13.3337 26.6673H18.667C23.695 26.6673 26.2097 26.6673 27.771 25.1047C29.3337 23.5433 29.3337 21.0287 29.3337 16.0007C29.3337 15.4113 29.3337 14.8567 29.331 14.334H2.66966C2.66699 14.8567 2.66699 15.4113 2.66699 16.0007C2.66699 21.0287 2.66699 23.5433 4.22966 25.1047C5.79099 26.6673 8.30566 26.6673 13.3337 26.6673Z" fill="white"/>
<path fill-rule="evenodd" clip-rule="evenodd" d="M7 21.334C7 21.0688 7.10536 20.8144 7.29289 20.6269C7.48043 20.4393 7.73478 20.334 8 20.334H13.3333C13.5985 20.334 13.8529 20.4393 14.0404 20.6269C14.228 20.8144 14.3333 21.0688 14.3333 21.334C14.3333 21.5992 14.228 21.8536 14.0404 22.0411C13.8529 22.2286 13.5985 22.334 13.3333 22.334H8C7.73478 22.334 7.48043 22.2286 7.29289 22.0411C7.10536 21.8536 7 21.5992 7 21.334ZM15.6667 21.334C15.6667 21.0688 15.772 20.8144 15.9596 20.6269C16.1471 20.4393 16.4015 20.334 16.6667 20.334H18.6667C18.9319 20.334 19.1862 20.4393 19.3738 20.6269C19.5613 20.8144 19.6667 21.0688 19.6667 21.334C19.6667 21.5992 19.5613 21.8536 19.3738 22.0411C19.1862 22.2286 18.9319 22.334 18.6667 22.334H16.6667C16.4015 22.334 16.1471 22.2286 15.9596 22.0411C15.772 21.8536 15.6667 21.5992 15.6667 21.334Z" fill="black"/>
</mask>
<g mask="url(#mask0_1_4576)">
<path d="M0 0H32V32H0V0Z" fill="#277CA5"/>
</g>
</svg>
