<svg width="20" height="22" viewBox="0 0 20 22" fill="none" xmlns="http://www.w3.org/2000/svg">
<g clip-path="url(#clip0_1_369)">
<path d="M6.53476 7.47767C6.53656 7.26685 6.60806 7.06434 6.7357 6.90853C6.86333 6.75272 7.03822 6.65446 7.2272 6.63239L7.31805 6.62761L14.7843 6.73005L13.379 5.13721C13.2396 4.98075 13.1593 4.7713 13.1544 4.55175C13.1495 4.3322 13.2205 4.11914 13.3528 3.95618C13.4851 3.79323 13.6687 3.6927 13.866 3.67517C14.0633 3.65765 14.2594 3.72446 14.4142 3.86192L14.4865 3.93522L17.2049 7.01548C17.3373 7.16552 17.4159 7.36382 17.426 7.57315C17.4361 7.78249 17.377 7.98849 17.2598 8.1525L17.1947 8.23253L14.425 11.2383C14.284 11.3908 14.0959 11.4778 13.8987 11.4818C13.7016 11.4858 13.5103 11.4064 13.3636 11.2597C13.217 11.1131 13.1259 10.9102 13.1091 10.6922C13.0922 10.4743 13.1508 10.2576 13.2728 10.0863L13.3379 10.0054L14.769 8.45146L7.30355 8.34903C7.09773 8.3462 6.9011 8.25281 6.75693 8.0894C6.61276 7.92599 6.53284 7.70594 6.53476 7.47767ZM3.57717 13.715L6.34687 10.71C6.41915 10.6288 6.50533 10.5644 6.60039 10.5206C6.69545 10.4768 6.79748 10.4544 6.90053 10.4548C7.00358 10.4553 7.10559 10.4784 7.20059 10.523C7.2956 10.5676 7.38171 10.6327 7.45389 10.7145C7.52607 10.7963 7.58289 10.8932 7.62101 10.9996C7.65914 11.1059 7.67782 11.2195 7.67597 11.3337C7.67411 11.448 7.65175 11.5607 7.61019 11.6651C7.56863 11.7696 7.50871 11.8637 7.43393 11.9421L6.00208 13.496L13.4675 13.5985C13.6734 13.6013 13.87 13.6947 14.0141 13.8581C14.1583 14.0215 14.2382 14.2415 14.2363 14.4698C14.2344 14.6981 14.1508 14.9159 14.0039 15.0753C13.857 15.2347 13.6588 15.3227 13.453 15.3199L5.98835 15.2175L7.39289 16.812C7.53288 16.9763 7.60927 17.1948 7.6056 17.4204C7.60193 17.6461 7.5185 17.8608 7.37327 18.0184C7.22804 18.1761 7.03264 18.2639 6.82915 18.2631C6.62566 18.2622 6.43036 18.1728 6.28532 18.014L3.56691 14.9329C3.42278 14.7695 3.3429 14.5495 3.34482 14.3212C3.34674 14.093 3.43032 13.8744 3.57717 13.715Z" fill="#048CFC"/>
</g>
<defs>
<clipPath id="clip0_1_369">
<rect width="20.6578" height="18.6266" fill="white" transform="matrix(0.00842618 -0.999965 0.999906 0.0137198 0.986328 21.1738)"/>
</clipPath>
</defs>
</svg>
