<svg width="25" height="25" viewBox="0 0 25 25" fill="none" xmlns="http://www.w3.org/2000/svg">
<path d="M23.5376 12.041C23.5376 18.2542 18.5008 23.291 12.2876 23.291C6.07439 23.291 1.0376 18.2542 1.0376 12.041C1.0376 5.82781 6.07439 0.791016 12.2876 0.791016C18.5008 0.791016 23.5376 5.82781 23.5376 12.041Z" fill="white" stroke="#333333" stroke-width="1.5"/>
<path d="M11.2223 10.1123V15.5175L14.4592 12.8149L11.2223 10.1123ZM16.7713 7.40965H13.2662L14.7875 5.18675L14.4592 4.70703L12.6095 7.40965H12.5956L10.746 4.70703L10.4269 5.18675L11.9436 7.40965H8.44778C7.93912 7.40965 7.52295 8.01774 7.52295 8.76096V16.8688C7.52295 17.612 7.93912 18.2201 8.44778 18.2201H16.7713C17.2799 18.2201 17.6961 17.612 17.6961 16.8688V8.76096C17.6961 8.01774 17.2799 7.40965 16.7713 7.40965ZM16.7713 16.8688H8.44778V8.76096H16.7713V16.8688Z" fill="#333333"/>
</svg>
