<svg width="16" height="16" viewBox="0 0 16 16" fill="none" xmlns="http://www.w3.org/2000/svg">
<g clip-path="url(#clip0_88_6027)">
<path d="M8.00033 8.00059C7.62059 8.00059 7.24937 8.11319 6.93363 8.32416C6.61789 8.53514 6.3718 8.835 6.22648 9.18583C6.08116 9.53667 6.04314 9.92272 6.11722 10.2952C6.1913 10.6676 6.37417 11.0097 6.64268 11.2782C6.9112 11.5467 7.25331 11.7296 7.62575 11.8037C7.9982 11.8778 8.38424 11.8398 8.73508 11.6944C9.08591 11.5491 9.38578 11.303 9.59675 10.9873C9.80772 10.6715 9.92033 10.3003 9.92033 9.92059C9.92033 9.41137 9.71804 8.92301 9.35797 8.56294C8.9979 8.20287 8.50954 8.00059 8.00033 8.00059ZM8.00033 10.5606C7.87375 10.5606 7.75001 10.5231 7.64476 10.4527C7.53951 10.3824 7.45748 10.2824 7.40904 10.1655C7.3606 10.0486 7.34793 9.91988 7.37262 9.79573C7.39732 9.67158 7.45827 9.55754 7.54778 9.46804C7.63728 9.37853 7.75132 9.31758 7.87547 9.29288C7.99962 9.26819 8.1283 9.28086 8.24524 9.3293C8.36219 9.37774 8.46214 9.45977 8.53247 9.56502C8.60279 9.67027 8.64033 9.79401 8.64033 9.92059C8.64033 10.0903 8.5729 10.2531 8.45288 10.3731C8.33285 10.4932 8.17007 10.5606 8.00033 10.5606ZM7.54593 6.53499C7.60679 6.59325 7.67857 6.63893 7.75713 6.66939C7.83373 6.70325 7.91657 6.72073 8.00033 6.72073C8.08408 6.72073 8.16692 6.70325 8.24353 6.66939C8.32209 6.63893 8.39386 6.59325 8.45473 6.53499L9.92033 5.09499C10.0442 4.97108 10.1138 4.80302 10.1138 4.62779C10.1138 4.45255 10.0442 4.2845 9.92033 4.16059C9.79642 4.03668 9.62836 3.96707 9.45313 3.96707C9.27789 3.96707 9.10984 4.03668 8.98593 4.16059L8.64033 4.53819V2.24059C8.64033 2.07085 8.5729 1.90806 8.45288 1.78804C8.33285 1.66801 8.17007 1.60059 8.00033 1.60059C7.83059 1.60059 7.6678 1.66801 7.54778 1.78804C7.42776 1.90806 7.36033 2.07085 7.36033 2.24059V4.53819L7.01473 4.16059C6.89082 4.03668 6.72276 3.96707 6.54753 3.96707C6.37229 3.96707 6.20424 4.03668 6.08033 4.16059C5.95642 4.2845 5.88681 4.45255 5.88681 4.62779C5.88681 4.80302 5.95642 4.97108 6.08033 5.09499L7.54593 6.53499ZM12.4803 9.92059C12.4803 9.79401 12.4428 9.67027 12.3725 9.56502C12.3021 9.45977 12.2022 9.37774 12.0852 9.3293C11.9683 9.28086 11.8396 9.26819 11.7155 9.29288C11.5913 9.31758 11.4773 9.37853 11.3878 9.46804C11.2983 9.55754 11.2373 9.67158 11.2126 9.79573C11.1879 9.91988 11.2006 10.0486 11.249 10.1655C11.2975 10.2824 11.3795 10.3824 11.4848 10.4527C11.59 10.5231 11.7137 10.5606 11.8403 10.5606C12.0101 10.5606 12.1729 10.4932 12.2929 10.3731C12.4129 10.2531 12.4803 10.0903 12.4803 9.92059ZM13.1203 5.44059H11.2003C11.0306 5.44059 10.8678 5.50801 10.7478 5.62804C10.6278 5.74806 10.5603 5.91085 10.5603 6.08059C10.5603 6.25032 10.6278 6.41311 10.7478 6.53313C10.8678 6.65316 11.0306 6.72059 11.2003 6.72059H13.1203C13.2901 6.72059 13.4529 6.78801 13.5729 6.90804C13.6929 7.02806 13.7603 7.19085 13.7603 7.36059V12.4806C13.7603 12.6503 13.6929 12.8131 13.5729 12.9331C13.4529 13.0532 13.2901 13.1206 13.1203 13.1206H2.88033C2.71059 13.1206 2.5478 13.0532 2.42778 12.9331C2.30776 12.8131 2.24033 12.6503 2.24033 12.4806V7.36059C2.24033 7.19085 2.30776 7.02806 2.42778 6.90804C2.5478 6.78801 2.71059 6.72059 2.88033 6.72059H4.80033C4.97007 6.72059 5.13285 6.65316 5.25288 6.53313C5.3729 6.41311 5.44033 6.25032 5.44033 6.08059C5.44033 5.91085 5.3729 5.74806 5.25288 5.62804C5.13285 5.50801 4.97007 5.44059 4.80033 5.44059H2.88033C2.37111 5.44059 1.88275 5.64287 1.52268 6.00294C1.16261 6.36301 0.960327 6.85137 0.960327 7.36059V12.4806C0.960327 12.9898 1.16261 13.4782 1.52268 13.8382C1.88275 14.1983 2.37111 14.4006 2.88033 14.4006H13.1203C13.6295 14.4006 14.1179 14.1983 14.478 13.8382C14.838 13.4782 15.0403 12.9898 15.0403 12.4806V7.36059C15.0403 6.85137 14.838 6.36301 14.478 6.00294C14.1179 5.64287 13.6295 5.44059 13.1203 5.44059ZM3.52033 9.92059C3.52033 10.0472 3.55786 10.1709 3.62819 10.2762C3.69851 10.3814 3.79847 10.4634 3.91541 10.5119C4.03235 10.5603 4.16104 10.573 4.28518 10.5483C4.40933 10.5236 4.52337 10.4626 4.61288 10.3731C4.70238 10.2836 4.76334 10.1696 4.78803 10.0454C4.81272 9.9213 4.80005 9.79261 4.75161 9.67567C4.70317 9.55872 4.62114 9.45877 4.51589 9.38845C4.41064 9.31812 4.28691 9.28059 4.16033 9.28059C3.99059 9.28059 3.8278 9.34801 3.70778 9.46804C3.58776 9.58806 3.52033 9.75085 3.52033 9.92059Z" fill="#05478A"/>
</g>
<defs>
<clipPath id="clip0_88_6027">
<rect width="15.36" height="15.36" fill="white" transform="translate(0.320312 0.320312)"/>
</clipPath>
</defs>
</svg>
