<svg width="37" height="35" viewBox="0 0 37 35" fill="none" xmlns="http://www.w3.org/2000/svg">
<path opacity="0.5" d="M23.4706 27.3108C21.4257 27.3111 19.4266 26.736 17.7262 25.6581C16.0258 24.5802 14.7003 23.048 13.9175 21.2553C13.1347 19.4625 12.9296 17.4898 13.3283 15.5864C13.7269 13.6831 14.7113 11.9347 16.1571 10.5623C17.6028 9.18992 19.4449 8.25519 21.4505 7.87632C23.456 7.49745 25.5349 7.69146 27.4243 8.43381C29.3136 9.17617 30.9286 10.4335 32.0649 12.0469C33.2013 13.6602 33.8079 15.5571 33.8082 17.4977V17.4992C33.8054 20.1003 32.7154 22.5941 30.7774 24.4336C28.8393 26.273 26.2116 27.3077 23.4706 27.3108Z" fill="#FF0000"/>
<path d="M13.4114 27.3108C11.3666 27.3108 9.36758 26.7354 7.66731 25.6573C5.96704 24.5792 4.64184 23.0468 3.85929 21.2539C3.07675 19.4611 2.872 17.4883 3.27093 15.585C3.66987 13.6817 4.65459 11.9335 6.10055 10.5613C7.5465 9.18909 9.38877 8.25462 11.3944 7.87603C13.4 7.49745 15.4788 7.69175 17.3681 8.43437C19.2573 9.177 20.8721 10.4346 22.0082 12.0481C23.1442 13.6616 23.7506 15.5586 23.7506 17.4992C23.7478 20.1006 22.6576 22.5946 20.7192 24.4341C18.7808 26.2735 16.1527 27.3081 13.4114 27.3108Z" fill="#FF0000" fill-opacity="0.54"/>
</svg>
