<svg width="22" height="22" viewBox="0 0 22 22" fill="none" xmlns="http://www.w3.org/2000/svg">
<path d="M10.3334 3.37965C10.2507 3.29214 10.1861 3.18919 10.1432 3.07669C10.1003 2.96419 10.0799 2.84434 10.0833 2.72398C10.0867 2.60362 10.1138 2.4851 10.163 2.37521C10.2122 2.26531 10.2826 2.16619 10.3701 2.08349C10.4576 2.00079 10.5606 1.93613 10.6731 1.89322C10.7856 1.85031 10.9054 1.82997 11.0258 1.83337C11.1461 1.83678 11.2646 1.86386 11.3745 1.91306C11.4844 1.96227 11.5836 2.03264 11.6663 2.12015L19.4579 10.3702C19.6188 10.5403 19.7085 10.7657 19.7085 10.9999C19.7085 11.2341 19.6188 11.4595 19.4579 11.6297L11.6663 19.8806C11.5841 19.97 11.485 20.0422 11.3747 20.093C11.2644 20.1438 11.1451 20.1722 11.0238 20.1765C10.9024 20.1808 10.7814 20.161 10.6678 20.1181C10.5541 20.0753 10.4501 20.0103 10.3619 19.9269C10.2736 19.8435 10.2027 19.7435 10.1534 19.6325C10.1041 19.5215 10.0774 19.4018 10.0748 19.2804C10.0721 19.159 10.0936 19.0383 10.138 18.9252C10.1824 18.8122 10.2489 18.7091 10.3334 18.622L17.5311 10.9999L10.3334 3.37965Z" fill="#333333" fill-opacity="0.8"/>
</svg>
